<svg xmlns="http://www.w3.org/2000/svg" xmlns:xlink="http://www.w3.org/1999/xlink" width="75" height="94" viewBox="0 0 75 94"><defs><style>.a{font-size:15px;font-family:ArialMT, Arial;letter-spacing:0.06em;}.b{clip-path:url(#a);}</style><clipPath id="a"><rect width="75" height="75"/></clipPath></defs><text class="a" transform="translate(38 91)"><tspan x="-28.13" y="0">Arsenal</tspan></text><g class="b"><path d="M94.164,220.883a.339.339,0,0,0-.037-.086.452.452,0,0,0-.115-.066c-4.4-2.022-8.859-4.091-13.175-6.092l-2.146-.995a3.187,3.187,0,0,1-.321-.177c-.044-.027-.095-.058-.156-.093l-2.008-1.166,2.958-.986c.55-.184,1.07-.357,1.591-.529l1.784-.586q6.211-2.041,12.425-4.074l.034-.012,0-.009q1.17-2.54,2.353-5.1-.034-1.338-.081-2.718c-.022-.639-.072-1.265-.142-1.88-5.945,4.714-16.144,6.434-23.645,6.255-.1.984-.653,1.735-1.28,1.7-.656-.036-1.14-.916-1.082-1.965,0-.027,0-.054.007-.081-4.208-1.308-10.378-4.353-13.964-8.458v4.2c-.079,20.45,3.488,20.846,5.945,22.749s16.249,5.231,23.3,5.707c4,.27,7.005-.582,8.853-2.152q-.555-1.695-1.105-3.383" transform="translate(-48.591 -164.702)"/><path d="M71.177,103.44c.158-.86.673-1.485,1.247-1.453.632.035,1.1.853,1.085,1.85,12.082-.108,19.316-3.851,23.441-7.33-1.311-7.546-6.133-12.95-10.527-14-4.994-1.189-10.3-1.982-10.3-1.982s-3.567-.793-9.111-1.552-9.833,6.466-9.833,11.856v3.988c2.317,2.728,6.493,5.873,14,8.618" transform="translate(-48.599 -67.084)"/><path d="M135.376,71.215c9.969,2.423,11.2,13.609,11.46,18.936.96-2.075,1.917-4.141,2.859-6.174l.8-1.723c.049-.106.1-.209.178-.347.033-.062.071-.132.115-.216l1.136-2.162,1.021,3.013c.159.465.307.9.45,1.336l1.044,3.184c1.222,3.729,2.486,7.584,3.742,11.373h0l.867.4c.181-5.969.235-11.836-1.4-17.637a17.972,17.972,0,0,0-4.907-8.012c-3.032-2.994-7.292-4.4-11.49-5.13-5.75-.995-11.844-1.973-17.676-1.859a33.726,33.726,0,0,0-5.936.6,30.136,30.136,0,0,1-3.525.884c1.744-.119,8.592.813,21.262,3.527" transform="translate(-96.997 -56.263)"/><path d="M340.289,312.543a3.07,3.07,0,0,0-1.719-5.413,3.134,3.134,0,0,0-2.3.759,2.934,2.934,0,0,0-.92,1.479,3.074,3.074,0,0,0,4.938,3.175" transform="translate(-284.958 -261.052)"/><path d="M311.2,402.708a.057.057,0,0,0,.046.1l.254-.076-.058-.177-.242.149" transform="translate(-264.499 -342.175)"/><path d="M259.761,212.685c-3.664-1.7-7.436-3.443-11.172-5.182l-1.7-.79a2.085,2.085,0,0,1-1.064-1.147c-1.267-3.82-2.541-7.707-3.774-11.467l-.9-2.749c-1.506,3.251-3.049,6.582-4.585,9.906l-1.115,2.417-.535,1.162a2.046,2.046,0,0,1-1.292,1.136q-6.213,2.028-12.421,4.072l-1.672.549.2.091c4.314,2,8.775,4.069,13.169,6.089a2.22,2.22,0,0,1,1.269,1.407l.668,2.044.447,1.367.321.98c1.051,3.208,2.105,6.417,3.136,9.554l.024.073.311-.671c1.951-4.208,3.968-8.56,5.964-12.835a2.071,2.071,0,0,1,1.159-1.05c3.9-1.294,7.867-2.6,11.7-3.854l2.48-.814Zm-24.286-3.468a4.882,4.882,0,0,1,1.077-1.325c.012-.011.026-.02.039-.03a5.214,5.214,0,0,1,3.79-1.226,5.143,5.143,0,0,1,4.718,5.577,5.3,5.3,0,0,1-.16.924,5.113,5.113,0,0,1-1.654,2.6,5.215,5.215,0,0,1-7.267-.61,5,5,0,0,1-.572-.832,5.285,5.285,0,0,1,.03-5.081" transform="translate(-186.603 -162.648)"/></g></svg>