<svg xmlns="http://www.w3.org/2000/svg" xmlns:xlink="http://www.w3.org/1999/xlink" width="66" height="66" viewBox="0 0 66 66"><defs><style>.a{fill:none;}.b{font-size:11px;font-family:Arial-BoldMT, Arial;font-weight:700;letter-spacing:0.06em;}.c{clip-path:url(#a);}</style><clipPath id="a"><rect width="28.966" height="31.239"/></clipPath></defs><g transform="translate(-2 -2)"><rect class="a" width="66" height="66" rx="5" transform="translate(2 2)"/><text class="b" transform="translate(35 58)"><tspan x="-15.067" y="0">Bijuu</tspan></text><g transform="translate(21 7)"><g class="c"><path d="M100.521,5.565h0V0A7.179,7.179,0,0,0,97.26,3.541a14.521,14.521,0,0,0-11.872,0A7.138,7.138,0,0,0,82.133,0V9.065a6.96,6.96,0,0,0,.962,3.215,20.815,20.815,0,0,0,3.368,3.743,19,19,0,0,1,5.32,2.634c.662.467,1.292.99,1.9,1.5a18.677,18.677,0,0,0,3.071,2.217c2.02,1.073,4.528,1.139,7.825.2a14.25,14.25,0,0,0,1.214-5.119,14.455,14.455,0,0,0-5.273-11.888ZM89.076,12.437c-.137.409-.861.535-1.616.282s-1.256-.79-1.119-1.2.861-.535,1.616-.282,1.256.79,1.119,1.2m3.363,3.254-.28.687a.789.789,0,0,1-1.461,0l-.28-.687a.266.266,0,0,1,.246-.366h1.53a.266.266,0,0,1,.246.366Zm2.754-2.972c-.755.254-1.479.127-1.616-.282s.364-.946,1.119-1.2,1.479-.127,1.616.282-.364.946-1.119,1.2" transform="translate(-76.844)"/><path d="M19.573,265.7a19.236,19.236,0,0,1-3.194-2.3c-.6-.5-1.218-1.011-1.856-1.462A18.3,18.3,0,0,0,9.377,259.4L0,259.452a14.473,14.473,0,0,0,27.318,6.681,14.915,14.915,0,0,1-3.676.515,8.573,8.573,0,0,1-4.069-.944ZM7.451,261.832l-2.712,4.639a.741.741,0,0,1-1.256.033,10.287,10.287,0,0,1-1.744-5.748l5.07-.034a.737.737,0,0,1,.642,1.11Z" transform="translate(0 -242.696)"/></g></g></g></svg>