<svg xmlns="http://www.w3.org/2000/svg" xmlns:xlink="http://www.w3.org/1999/xlink" width="66" height="66" viewBox="0 0 66 66"><defs><style>.a,.c{fill:none;}.a{stroke:#707070;}.b{fill:#e6e6db;}.d{fill:#eaeade;font-size:11px;font-family:Arial-BoldMT, Arial;font-weight:700;letter-spacing:0.06em;}.e{clip-path:url(#a);}.f{clip-path:url(#b);}</style><clipPath id="a"><path class="a" d="M41.895,17.65l-9-6.867L35.761,21.85l-8.2,10.4-14.067,13-5.2-7.2L31.828,4.85H49.495l1.133,9.2Z"/></clipPath><clipPath id="b"><rect class="b" width="24.954" height="24.954"/></clipPath></defs><g transform="translate(-2.295 -2)"><rect class="c" width="66" height="66" rx="5" transform="translate(2.295 2)"/><text class="d" transform="translate(35.295 58)"><tspan x="-19.068" y="0">Bornal</tspan></text><g transform="translate(2)"><g class="e"><g transform="translate(14.186 7.838)"><path class="b" d="M492.023,4.763a4.027,4.027,0,0,1-4.7,3.215c-.108-.021-.3.048-.266-.05a1.088,1.088,0,0,0-.337-1.111c-.424-.593-.281-.725-1.557-1.211-.105-.04-.461-.376-.609-.3-.064.032-.322.227-.337.179a4.437,4.437,0,0,1-.109-2.2,4.027,4.027,0,0,1,7.915,1.486Zm-3.586-2.721a2.013,2.013,0,1,0,1.607,2.35,2.012,2.012,0,0,0-1.607-2.35Z" transform="translate(-460.134 0.008)"/><path class="b" d="M96.259,229.763a4.387,4.387,0,0,1-.547-.427c-.1-.151.159-.1-.1-.124a31.7,31.7,0,0,0-3.191-.224c-.5.069-13.277,19.52-13.277,19.52L98.106,234.48a19.039,19.039,0,0,0-.171-2.957c-.007-.03-.015-.058-.023-.084.04.127-.16.072-.353-.155a6.409,6.409,0,0,0-.839-.9c-.047-.037-.46-.622-.46-.622Z" transform="translate(-79.141 -215.47)"/><path class="b" d="M369.988,99.415a6.977,6.977,0,0,1,1.451.709,2.321,2.321,0,0,1,.686,1l.178.462-.663.376-.723.357-.349.481-.284.274-.541.554-.386.309-.789,1-.686.745-.739.735-.346.536-.611.486-.069.369-.89.379-.139.738-.482.238-.435-.3a2.287,2.287,0,0,0-.383-.594c-.056-.069-.273-.173-.333-.251a4.391,4.391,0,0,0-.32-.528,4.664,4.664,0,0,0-.432-.344c-.177-.126-.3-.2-.3-.2s-.113-.124.63-.155c.483-.021.591-.818.591-.818l.947-.969.725-.956.554-.333.745-1.061.584-.492.722-.356.633-.755.633-.755.231-.94Z" transform="translate(-345.685 -93.497)"/></g></g><g transform="matrix(0.829, -0.559, 0.559, 0.829, 23.598, 19.417)"><g class="f"><path class="b" d="M12.477,24.954,9.358,15.6,0,12.477,9.358,9.358,12.477,0,15.6,9.358l9.358,3.119L15.6,15.6Zm0-14.1a1.63,1.63,0,1,0,1.15.478,1.63,1.63,0,0,0-1.15-.478Z" transform="translate(0 0)"/></g></g></g></g></svg>