<svg xmlns="http://www.w3.org/2000/svg" xmlns:xlink="http://www.w3.org/1999/xlink" width="66" height="66" viewBox="0 0 66 66"><defs><style>.a{fill:#e6e6db;}.b{fill:none;}.c{fill:#eaeade;font-size:11px;font-family:Arial-BoldMT, Arial;font-weight:700;letter-spacing:0.06em;}.d{clip-path:url(#a);}</style><clipPath id="a"><rect class="a" width="29.935" height="29.943"/></clipPath></defs><g transform="translate(-2 -2)"><rect class="b" width="66" height="66" rx="5" transform="translate(2 2)"/><text class="c" transform="translate(35 52)"><tspan x="-28.934" y="0">Descrição</tspan><tspan x="-23.703" y="12">Clã / KG</tspan></text><g transform="translate(20 8)"><g class="d"><path class="a" d="M15,0A14.972,14.972,0,1,1,0,14.941,14.921,14.921,0,0,1,15,0M16.626,28.35c-.228-.025-.4-.061-.578-.062A11.969,11.969,0,0,1,9.983,26.6,11.2,11.2,0,0,1,4.355,18.35,11.664,11.664,0,0,1,6.831,8.768a9.513,9.513,0,0,1,4.706-3.122,9.251,9.251,0,0,1,5.13-.1A7.823,7.823,0,0,1,21.877,9.48a8.26,8.26,0,0,1-.111,8.271,6.656,6.656,0,0,1-6.734,3.374,5.772,5.772,0,0,1-4.025-2.274,5.713,5.713,0,0,1-.9-4.89,4.8,4.8,0,0,1,5.259-3.855A3.948,3.948,0,0,1,19.019,13.6c.086.667-.08,1.019-.447,1.071-.425.06-.689-.248-.813-.932a2.98,2.98,0,0,0-.979-1.764,3.358,3.358,0,0,0-3.855-.062,4.151,4.151,0,0,0-1.413,5.208,4.346,4.346,0,0,0,4.815,2.767,5.656,5.656,0,0,0,4.927-3.869,6.84,6.84,0,0,0,.066-4.527,6.835,6.835,0,0,0-2.729-3.76,7.274,7.274,0,0,0-4.911-1.164A8.786,8.786,0,0,0,7.429,10a9.224,9.224,0,0,0-1.936,5.026,10.805,10.805,0,0,0,2.981,8.816,10.663,10.663,0,0,0,8.3,3.24,12.991,12.991,0,0,0,6.351-1.784,8.616,8.616,0,0,0,2.906-2.473A13.544,13.544,0,1,0,3.309,21.663,13.157,13.157,0,0,0,13.334,28.3a10.2,10.2,0,0,0,3.292.047" transform="translate(-0.001 0)"/></g></g></g></svg>