<svg xmlns="http://www.w3.org/2000/svg" width="46" height="47" viewBox="0 0 46 47"><defs><style>.a{fill:#e97070;}.b{fill:#eaeade;}</style></defs><path class="a" d="M0,0H46a0,0,0,0,1,0,0V24A23,23,0,0,1,23,47h0A23,23,0,0,1,0,24V0A0,0,0,0,1,0,0Z"/><path class="b" d="M26.747,23.785l8.929-8.929A2.092,2.092,0,0,0,32.717,11.9l-8.929,8.929L14.859,11.9A2.092,2.092,0,1,0,11.9,14.856l8.929,8.929L11.9,32.714a2.092,2.092,0,1,0,2.959,2.959l8.929-8.929,8.929,8.929a2.092,2.092,0,0,0,2.959-2.959Z" transform="translate(-0.785 -1.289)"/></svg>