<svg xmlns="http://www.w3.org/2000/svg" width="66" height="66" viewBox="0 0 66 66"><defs><style>.a{fill:none;}.b{font-size:11px;font-family:Arial-BoldMT, Arial;font-weight:700;letter-spacing:0.06em;}</style></defs><g transform="translate(-2 -2)"><rect class="a" width="66" height="66" rx="5" transform="translate(2 2)"/><path d="M3.624,24.429l2.618-2.618,2.013,2.013L5.638,26.442ZM14.3,30V25.772h2.886V30Zm-10-17.114v2.886H0V12.886ZM20.067,6.913A8.784,8.784,0,0,1,23.188,10a8.151,8.151,0,0,1,1.175,4.295,8.279,8.279,0,0,1-2.517,6.074,8.272,8.272,0,0,1-6.074,2.517A8.281,8.281,0,0,1,9.7,20.368,8.274,8.274,0,0,1,7.181,14.3a8.354,8.354,0,0,1,4.3-7.382V0h8.591V6.913Zm7.114,5.973h4.295v2.886H27.181Zm-3.96,10.939,2.013-1.946,2.618,2.55-2.013,2.013Z" transform="translate(50.476 37) rotate(180)"/><text class="b" transform="translate(35 54)"><tspan x="-28.934" y="0">Descrição</tspan><tspan x="-19.068" y="12">Mental</tspan></text></g></svg>