<svg xmlns="http://www.w3.org/2000/svg" width="66" height="66" viewBox="0 0 66 66"><defs><style>.a{fill:none;}.b{font-size:11px;font-family:Arial-BoldMT, Arial;font-weight:700;letter-spacing:0.06em;}</style></defs><g transform="translate(-2.333 -2)"><rect class="a" width="66" height="66" rx="5" transform="translate(2.333 2)"/><path d="M14.956,16.969a7.229,7.229,0,0,1-5.307-2.193A7.229,7.229,0,0,1,7.456,9.469,7.225,7.225,0,0,1,9.65,4.162a7.236,7.236,0,0,1,5.307-2.193,7.223,7.223,0,0,1,5.306,2.193,7.231,7.231,0,0,1,2.193,5.307,7.231,7.231,0,0,1-2.193,5.307,7.224,7.224,0,0,1-5.307,2.193Zm0,3.772a26.633,26.633,0,0,1,6.1.79,19.191,19.191,0,0,1,6.1,2.588q2.763,1.8,2.763,4.079v3.772H0V28.2q0-2.281,2.763-4.079a19.22,19.22,0,0,1,6.1-2.588,26.564,26.564,0,0,1,6.1-.79Z" transform="translate(20.333 5.031)"/><text class="b" transform="translate(35.333 54)"><tspan x="-28.934" y="0">Descrição</tspan><tspan x="-17.242" y="12">Física</tspan></text></g></svg>