<svg xmlns="http://www.w3.org/2000/svg" width="66" height="66" viewBox="0 0 66 66"><defs><style>.a{fill:none;}.b{fill:#e6e6db;}.c{fill:#eaeade;font-size:11px;font-family:Arial-BoldMT, Arial;font-weight:700;letter-spacing:0.06em;}</style></defs><g transform="translate(-2 -2)"><rect class="a" width="66" height="66" rx="5" transform="translate(2 2)"/><path class="b" d="M13.847,8.655V.866A.865.865,0,0,0,12.982,0H11.251a.865.865,0,0,0-.866.866V8.814a2.573,2.573,0,0,1,.864-.159Zm6.924,5.193a3.462,3.462,0,0,0-3.462-3.462H11.244a.858.858,0,0,0-.86.857v.03a2.574,2.574,0,0,0,2.573,2.574h1.907c.524,0,.714.194.714.433v.876a.445.445,0,0,1-.426.433c-2.408.123-3.471,1.337-5.2,3.925l-.341.512a.432.432,0,0,1-.6.12l-.72-.48a.432.432,0,0,1-.12-.6l.341-.512a15.31,15.31,0,0,1,2.559-3.142,3.48,3.48,0,0,1-2.1-1.864,2.564,2.564,0,0,1-1.183.3H6.059a2.578,2.578,0,0,1-1.731-.675,2.578,2.578,0,0,1-1.731.676H.866A2.557,2.557,0,0,1,0,13.689V17.9a6.923,6.923,0,0,0,2.028,4.9l1.434,1.434V27.7H17.309v-3.46l1.943-1.943a5.2,5.2,0,0,0,1.521-3.674ZM19.04,8.975V2.6a.865.865,0,0,0-.866-.866H16.444a.865.865,0,0,0-.866.866V8.655h1.731a5.126,5.126,0,0,1,1.731.319ZM.866,12.117H2.6a.865.865,0,0,0,.866-.866V4.328A.865.865,0,0,0,2.6,3.462H.866A.865.865,0,0,0,0,4.328v6.924A.865.865,0,0,0,.866,12.117Zm5.193,0H7.789a.865.865,0,0,0,.866-.866V2.6a.865.865,0,0,0-.866-.866H6.058a.865.865,0,0,0-.866.866v8.655A.865.865,0,0,0,6.058,12.117Z" transform="translate(25 9)"/><text class="c" transform="translate(35 58)"><tspan x="-11.66" y="0">EDL</tspan></text></g></svg>