<svg xmlns="http://www.w3.org/2000/svg" width="66" height="66" viewBox="0 0 66 66"><defs><style>.a{fill:none;}.b,.c{fill:#eaeade;}.b{font-size:11px;font-family:Arial-BoldMT, Arial;font-weight:700;letter-spacing:0.06em;}</style></defs><g transform="translate(-1.924 -2)"><rect class="a" width="66" height="66" rx="5" transform="translate(1.924 2)"/><text class="b" transform="translate(34.924 58)"><tspan x="-30.454" y="0">Elementos</tspan></text><path class="c" d="M163.018,36.48A14.144,14.144,0,0,1,142.24,24a13.879,13.879,0,0,1,1.371-6.047s0,3.762,1.688,5.45c0,0-.492-1.828,1.336-4.887s8.4-5.977,9.141-8.543.352-5.344-.809-6.61a6.892,6.892,0,0,1,3.586,5.59c.176,3.868-1.231,7.77,1.055,9.036a2.51,2.51,0,0,0,3.868-1.758,6.373,6.373,0,0,0-1.863-4.711s6.715,4.078,6.715,11.286c0,9.387-7.418,11.637-7.418,11.637a8.877,8.877,0,0,0,.738-9.493,5.752,5.752,0,0,1-4.113,5.906,4.324,4.324,0,0,0-1.934-8.192,4.284,4.284,0,0,0-4.289,4.29,7.629,7.629,0,0,0,.457,1.934c-1.828-1.019-1.477-3.656-1.477-3.656a9.181,9.181,0,0,0-.316,2.426,9.663,9.663,0,0,0,13.009,9.036" transform="translate(-120.316 2.639)"/></g></svg>