<svg xmlns="http://www.w3.org/2000/svg" xmlns:xlink="http://www.w3.org/1999/xlink" width="75" height="94" viewBox="0 0 75 94"><defs><style>.a{font-size:15px;font-family:ArialMT, Arial;letter-spacing:0.06em;}.b{clip-path:url(#a);}</style><clipPath id="a"><rect width="75" height="75"/></clipPath></defs><text class="a" transform="translate(38 91)"><tspan x="-19.305" y="0">Extra</tspan></text><g class="b"><path d="M366.919,145.655l-5.4-.929a.96.96,0,0,0-1.106.781l-.121.7a.96.96,0,0,0,.781,1.106l5.4.929a.96.96,0,0,0,1.106-.781l.121-.7a.96.96,0,0,0-.781-1.106" transform="translate(-306.237 -123.006)"/><path d="M90.947,145.655l5.4-.929a.96.96,0,0,1,1.106.781l.121.7a.96.96,0,0,1-.781,1.106l-5.4.929a.96.96,0,0,1-1.106-.781l-.121-.7a.96.96,0,0,1,.781-1.106" transform="translate(-76.629 -123.006)"/><path d="M244.458,339.25a1.627,1.627,0,1,0,.35,0h-.074c-.092,0-.184,0-.276,0" transform="translate(-206.55 -288.362)"/><path d="M230.405,314.117a1.57,1.57,0,1,0,1.57,1.57,1.572,1.572,0,0,0-1.57-1.57" transform="translate(-194.51 -266.999)"/><path d="M60.147,133.342a46.264,46.264,0,0,0,5.626,2.871,30.357,30.357,0,0,0,5.961,1.7,2.462,2.462,0,1,1,4.045.388,22.556,22.556,0,0,0,4.041-.292c4.045-.671,7.8-2.458,11.942-4.55a66.686,66.686,0,0,1,9.768-4.268,25.7,25.7,0,0,1,4.691-1.035,15.432,15.432,0,0,0-1.805-4.489,23.229,23.229,0,0,0-4.659-5.288,7.944,7.944,0,1,0-11.907-7.658A35.5,35.5,0,0,0,75.5,107.805a35.5,35.5,0,0,0-12.355,2.917,7.944,7.944,0,1,0-11.908,7.658,23.225,23.225,0,0,0-4.659,5.288,15.4,15.4,0,0,0-1.874,4.807,46.217,46.217,0,0,1,6.872,1.017,32.969,32.969,0,0,1,8.576,3.85m35.607-27.324a5.5,5.5,0,1,1-5.5,5.5,5.5,5.5,0,0,1,5.5-5.5M81.08,124.98a1.066,1.066,0,1,1-1.066,1.066,1.066,1.066,0,0,1,1.066-1.066m-11.169,0a1.066,1.066,0,1,1-1.066,1.066,1.066,1.066,0,0,1,1.066-1.066M49.736,111.518a5.5,5.5,0,1,1,5.5,5.5,5.5,5.5,0,0,1-5.5-5.5" transform="translate(-37.995 -88.038)"/><path d="M78.406,283.658q-.992.164-2.011.245a2.462,2.462,0,1,1-4.129-.011,31.23,31.23,0,0,1-8.968-2.144,47.712,47.712,0,0,1-5.877-2.992,31.028,31.028,0,0,0-8.042-3.642,44.453,44.453,0,0,0-6.69-.98c-.639,9.148,7.03,18.062,16.8,18.062H88.02c9.886,0,17.622-9.13,16.771-18.393-4.811.54-9.553,2.935-13.871,5.117-4.289,2.168-8.192,4.02-12.515,4.737" transform="translate(-36.253 -232.733)"/></g></svg>