<svg xmlns="http://www.w3.org/2000/svg" xmlns:xlink="http://www.w3.org/1999/xlink" width="88" height="94" viewBox="0 0 88 94"><defs><style>.a{font-size:15px;font-family:ArialMT, Arial;letter-spacing:0.06em;}.b{clip-path:url(#a);}</style><clipPath id="a"><rect width="75" height="75"/></clipPath></defs><text class="a" transform="translate(44 91)"><tspan x="-43.692" y="0">Habilidades</tspan></text><g transform="translate(6)"><g class="b"><path d="M153.208,174.308a12.072,12.072,0,0,0,7.978-3.018,13.261,13.261,0,0,0,3.65-4.568,11.642,11.642,0,0,0,.728-2.761,10.288,10.288,0,0,0-.272-4.448,10.481,10.481,0,0,0-3.8-5.411,8.1,8.1,0,0,0-4.467-1.884,29.393,29.393,0,0,0-3.614.1,7.134,7.134,0,0,0-1.333.185,6.205,6.205,0,0,0-3.146,2.1,8.381,8.381,0,0,0-2.265,4.3,7.122,7.122,0,0,0,1.212,5.426,7.392,7.392,0,0,0,5.138,3.04,5.739,5.739,0,0,0,4.5-1.054,4.747,4.747,0,0,0,1.933-3.959,2.517,2.517,0,0,0-.352-1.145,3.516,3.516,0,0,1-.311-2.247.88.88,0,0,1,1.193-.733,3.076,3.076,0,0,1,2.1,2.366,6.133,6.133,0,0,1-1.213,5.889,8.927,8.927,0,0,1-8.046,3.4,8.2,8.2,0,0,1-5.551-2.283,10.635,10.635,0,0,1-2.983-4.894,8.514,8.514,0,0,1-.16-3.252,20.331,20.331,0,0,1,.424-2.743,9.993,9.993,0,0,1,4.372-5.635,9.884,9.884,0,0,1,4.7-1.532,13.619,13.619,0,0,1,5.934.654c4.506,1.625,7.577,4.655,8.452,9.485a13.983,13.983,0,0,1-3.3,12.108,15.4,15.4,0,0,1-8.255,5.01,13.74,13.74,0,0,1-8.848-.828,14.644,14.644,0,0,1-5.6-4,17.144,17.144,0,0,1-3.83-7.408,25.374,25.374,0,0,1-.407-3.458,18.165,18.165,0,0,1-.008-2.572,13.6,13.6,0,0,1,1.489-5.148,15.4,15.4,0,0,1,5.765-6.418,13.812,13.812,0,0,1,6.536-2.05c1.027-.058,2.058-.09,3.087-.086a14.413,14.413,0,0,1,6.912,1.638,20.065,20.065,0,0,1,6.176,4.727,14.326,14.326,0,0,1,2.88,5.577,18.169,18.169,0,0,1,.319,2.679c.01.1-.066.2-.1.3-.074-.086-.182-.16-.216-.26a19.624,19.624,0,0,0-2.708-5.731,15.746,15.746,0,0,0-9.432-6.239,20.193,20.193,0,0,0-5.9-.4,13.208,13.208,0,0,0-7.673,3.194,12.348,12.348,0,0,0-3.818,6.557,10.891,10.891,0,0,0-.5,3.475c.249,3.85,1.248,7.44,4.117,10.225a13.557,13.557,0,0,0,6.626,3.5,16.8,16.8,0,0,0,1.895.23" transform="translate(-117.059 -123.112)"/><path d="M151.987,176.143a14.543,14.543,0,0,1-5.742-1.237,14.926,14.926,0,0,1-5.689-4.058,17.218,17.218,0,0,1-3.878-7.505,24.373,24.373,0,0,1-.4-3.327l-.012-.161a18.375,18.375,0,0,1-.008-2.6,13.753,13.753,0,0,1,1.512-5.233,15.674,15.674,0,0,1,5.848-6.51,14.051,14.051,0,0,1,6.641-2.083c1.1-.062,2.11-.091,3.1-.087A14.578,14.578,0,0,1,160.379,145a20.5,20.5,0,0,1,6.242,4.781,14.531,14.531,0,0,1,2.924,5.665,11.143,11.143,0,0,1,.261,1.952c.018.25.038.509.063.76a.6.6,0,0,1-.081.325c-.012.025-.025.05-.034.075l-.131.364-.251-.294c-.019-.022-.041-.043-.063-.064a.684.684,0,0,1-.195-.27,19.406,19.406,0,0,0-2.674-5.667,15.419,15.419,0,0,0-9.3-6.155,20.028,20.028,0,0,0-5.834-.393,13.013,13.013,0,0,0-7.544,3.141,12.044,12.044,0,0,0-3.746,6.443,10.629,10.629,0,0,0-.5,3.4c.289,4.475,1.576,7.677,4.049,10.078a13.345,13.345,0,0,0,6.518,3.437,10.324,10.324,0,0,0,1.388.182c.17.014.327.027.467.043a11.892,11.892,0,0,0,7.821-2.962,13.079,13.079,0,0,0,3.592-4.489,11.559,11.559,0,0,0,.712-2.707,10.06,10.06,0,0,0-.267-4.351,10.234,10.234,0,0,0-3.719-5.3,7.91,7.91,0,0,0-4.344-1.835,19.676,19.676,0,0,0-2.69.045c-.3.019-.6.037-.9.051a6.88,6.88,0,0,0-1.29.179,5.884,5.884,0,0,0-3.031,2.03,8.019,8.019,0,0,0-2.21,4.183,6.927,6.927,0,0,0,1.172,5.261,7.137,7.137,0,0,0,4.99,2.948,5.483,5.483,0,0,0,4.329-1.011,4.514,4.514,0,0,0,1.843-3.78,2.276,2.276,0,0,0-.325-1.037,3.8,3.8,0,0,1-.336-2.386,1.093,1.093,0,0,1,.468-.79,1.226,1.226,0,0,1,1.006-.13,3.315,3.315,0,0,1,2.256,2.516,6.324,6.324,0,0,1-1.251,6.1,9.157,9.157,0,0,1-8.237,3.489,8.4,8.4,0,0,1-5.7-2.349,10.739,10.739,0,0,1-3.041-5,8.756,8.756,0,0,1-.165-3.337c.037-.263.067-.534.1-.8a12.211,12.211,0,0,1,.333-1.977,10.172,10.172,0,0,1,4.464-5.761,10.026,10.026,0,0,1,4.8-1.568,13.9,13.9,0,0,1,6.031.666c4.862,1.754,7.754,5,8.6,9.656a14.2,14.2,0,0,1-3.353,12.294,15.692,15.692,0,0,1-8.372,5.082,13.653,13.653,0,0,1-3.248.4m1.2-32.356c-.927,0-1.878.028-2.9.086a13.607,13.607,0,0,0-6.431,2.017,15.234,15.234,0,0,0-5.682,6.327,13.321,13.321,0,0,0-1.466,5.063,17.963,17.963,0,0,0,.008,2.54l.012.161a24.032,24.032,0,0,0,.391,3.266,16.78,16.78,0,0,0,3.783,7.31,14.482,14.482,0,0,0,5.521,3.933,13.427,13.427,0,0,0,8.707.816,15.252,15.252,0,0,0,8.137-4.938,13.774,13.774,0,0,0,3.252-11.921c-.812-4.484-3.606-7.618-8.307-9.313a13.445,13.445,0,0,0-5.837-.642,9.6,9.6,0,0,0-4.6,1.5,9.741,9.741,0,0,0-4.281,5.509,11.9,11.9,0,0,0-.319,1.9c-.03.265-.061.539-.1.808a8.312,8.312,0,0,0,.156,3.166,10.313,10.313,0,0,0,2.925,4.79,7.976,7.976,0,0,0,5.406,2.216,8.73,8.73,0,0,0,7.855-3.32,5.9,5.9,0,0,0,1.174-5.682c-.406-1.3-.987-1.962-1.942-2.215a.785.785,0,0,0-.641.069.656.656,0,0,0-.271.477,3.252,3.252,0,0,0,.285,2.109,2.669,2.669,0,0,1,.38,1.254,4.944,4.944,0,0,1-2.023,4.138,5.989,5.989,0,0,1-4.667,1.1,7.565,7.565,0,0,1-5.287-3.131,7.364,7.364,0,0,1-1.251-5.591,8.437,8.437,0,0,1,2.319-4.415,6.3,6.3,0,0,1,3.261-2.168,7.35,7.35,0,0,1,1.375-.192c.3-.014.592-.033.889-.051a20,20,0,0,1,2.753-.045,8.349,8.349,0,0,1,4.59,1.932,10.668,10.668,0,0,1,3.872,5.526,10.511,10.511,0,0,1,.277,4.545,11.978,11.978,0,0,1-.744,2.814,13.485,13.485,0,0,1-3.708,4.647,12.328,12.328,0,0,1-8.121,3.074h-.016l-.016,0c-.14-.016-.3-.029-.469-.044a10.82,10.82,0,0,1-1.449-.19,13.787,13.787,0,0,1-6.734-3.554c-2.558-2.484-3.888-5.78-4.185-10.372a11.167,11.167,0,0,1,.509-3.547,12.47,12.47,0,0,1,3.89-6.67,13.456,13.456,0,0,1,7.8-3.247,20.479,20.479,0,0,1,5.965.4,16.058,16.058,0,0,1,9.564,6.324,18.589,18.589,0,0,1,2.575,5.3l-.017-.225a10.823,10.823,0,0,0-.249-1.874,14.083,14.083,0,0,0-2.835-5.49,20.072,20.072,0,0,0-6.108-4.672,14.14,14.14,0,0,0-6.807-1.611h-.171" transform="translate(-115.784 -121.837)"/><path d="M351.51,293.661c.465-.165.626.086.691.467a11.084,11.084,0,0,1,.146,3.342c-.055.417-.038.843-.066,1.265a.5.5,0,0,0,.417.608,4.983,4.983,0,0,1,.675.267,1.435,1.435,0,0,0-.287-1.869,18.871,18.871,0,0,1,2.268-1.837l.1.087a.613.613,0,0,1-.043.183,6.764,6.764,0,0,0-.9,4.127,5.671,5.671,0,0,0,.172.891c.168.717.37,1.427.5,2.151a.8.8,0,0,1-.219.649c-.11.09-.465.015-.618-.105-.5-.4-.966-.841-1.433-1.278a2.048,2.048,0,0,1-.243-.441c.269.081.427.126.583.176.3.1.458.044.485-.321a1.107,1.107,0,0,0-.67-1.164c-.646-.32-1.307-.613-2-.935.431-1.109.973-2.247.364-3.6-.246.551-.5,1.032-.677,1.539a2.64,2.64,0,0,1-.718,1.4,2.486,2.486,0,0,0-.872,2.139c0,.313.056.716-.11.91-.117.136-.566,0-.865-.035-.431-.047-.862-.1-1.288-.174-.124-.022-.331-.141-.327-.2.009-.134.109-.347.212-.375.634-.169.795-.659.973-1.207a4.162,4.162,0,0,1,1.654-2.1,3.6,3.6,0,0,0,1.4-2.039c.248-.831.464-1.671.7-2.519" transform="translate(-294.588 -249.568)"/><path d="M353.529,302.983a1.084,1.084,0,0,1-.6-.194c-.453-.357-.879-.757-1.291-1.144l-.156-.146a.917.917,0,0,1-.19-.3c-.026-.056-.057-.121-.1-.2l-.258-.479.763.229c.137.04.241.072.344.105a.4.4,0,0,0,.164.031.655.655,0,0,0,.027-.154.886.886,0,0,0-.545-.946c-.448-.222-.9-.428-1.372-.646l-.623-.287-.191-.089.076-.2.1-.25a4.283,4.283,0,0,0,.446-2.671c-.163.348-.317.677-.436,1.014-.035.1-.066.2-.1.3a2.17,2.17,0,0,1-.7,1.206,2.23,2.23,0,0,0-.785,1.961c0,.061,0,.125,0,.19a1.264,1.264,0,0,1-.169.865c-.17.2-.482.141-.813.082-.087-.016-.173-.031-.248-.04-.415-.046-.858-.1-1.3-.176-.088-.016-.531-.155-.513-.441.011-.169.133-.512.378-.577.493-.132.626-.471.817-1.059a4.351,4.351,0,0,1,1.739-2.212,3.369,3.369,0,0,0,1.313-1.919c.171-.572.33-1.161.484-1.732q.105-.39.213-.783l.031-.113.111-.039a.742.742,0,0,1,.639.014.856.856,0,0,1,.349.627,11.122,11.122,0,0,1,.147,3.409,7.146,7.146,0,0,0-.045.758c0,.164-.008.328-.019.492-.016.24.039.324.246.374a2.885,2.885,0,0,1,.5.186,1.13,1.13,0,0,0-.292-1.385l-.206-.145.168-.188a8.777,8.777,0,0,1,1.485-1.25c.271-.2.551-.4.808-.611l.149-.123.342.3-.029.129c0,.014,0,.028-.007.042a.516.516,0,0,1-.065.21,6.529,6.529,0,0,0-.865,3.993,4.225,4.225,0,0,0,.129.7l.038.159c.054.232.112.464.17.7.119.477.243.971.332,1.467a1.012,1.012,0,0,1-.3.863.471.471,0,0,1-.3.091m-1.612-1.7.033.031c.4.38.823.774,1.262,1.119a.635.635,0,0,0,.349.1.612.612,0,0,0,.127-.423c-.086-.48-.208-.967-.326-1.437-.059-.234-.117-.468-.172-.7l-.037-.156a4.628,4.628,0,0,1-.14-.771,7.146,7.146,0,0,1,.693-3.838l-.314.228a9.63,9.63,0,0,0-1.254,1.016,1.73,1.73,0,0,1,.168,1.977l-.088.2-.2-.083c-.071-.029-.142-.061-.213-.093a2.571,2.571,0,0,0-.431-.164.722.722,0,0,1-.588-.841c.011-.158.014-.316.018-.474a7.6,7.6,0,0,1,.049-.806,10.7,10.7,0,0,0-.144-3.274c-.037-.217-.093-.291-.134-.315a.228.228,0,0,0-.152-.009q-.09.33-.179.659c-.155.573-.315,1.165-.487,1.743a3.8,3.8,0,0,1-1.487,2.16,3.913,3.913,0,0,0-1.568,1.982c-.182.561-.371,1.14-1.1,1.347a.4.4,0,0,0-.051.1.469.469,0,0,0,.122.05c.431.077.865.127,1.273.171.085.009.181.027.279.044a1.922,1.922,0,0,0,.406.047,1.336,1.336,0,0,0,.046-.537c0-.071,0-.14,0-.206a2.722,2.722,0,0,1,.959-2.316,1.772,1.772,0,0,0,.541-.982c.033-.106.066-.213.1-.318a11.55,11.55,0,0,1,.456-1.062c.075-.16.152-.324.228-.494l.2-.459.206.458a4.239,4.239,0,0,1-.262,3.529l-.02.051.429.2c.479.219.931.427,1.385.651a1.324,1.324,0,0,1,.794,1.382.644.644,0,0,1-.228.5.624.624,0,0,1-.542.024" transform="translate(-293.312 -248.295)"/><path d="M118.931,392.858a7.87,7.87,0,0,0,.542-.938.467.467,0,0,0-.163-.427,2.873,2.873,0,0,0-1.917-.419.954.954,0,0,1-.572-.126,8.457,8.457,0,0,1-.894-.547c-.283-.19-.263-.373.02-.567.707-.483,1.407-.978,2.114-1.462a.7.7,0,0,1,.377-.167,7.431,7.431,0,0,1,3.357.715c.087.052.208.064.272.133.148.158.379.343.374.512a.692.692,0,0,1-.368.536.971.971,0,0,1-.655-.207c-.412-.264-.781-.6-1.2-.857a.833.833,0,0,0-1.015.09,1.1,1.1,0,0,0-.467,1.065.925.925,0,0,0,.522.557c.647.249,1.324.421,1.988.627a2.632,2.632,0,0,1,.293.135,1.841,1.841,0,0,1-.217.255,7.573,7.573,0,0,0-2.547,3.672,2.524,2.524,0,0,1-.4.663c-.04.054-.188.064-.27.039-.041-.013-.065-.148-.063-.227.017-.7.059-1.4.051-2.094a.631.631,0,0,0-.249-.5.7.7,0,0,0-.605.072,3.183,3.183,0,0,0-1.288,2.01,3.678,3.678,0,0,0,.142,1.247,2.539,2.539,0,0,1-.794,2.652c-.518.458-1.013.943-1.6,1.488a1.425,1.425,0,0,1,.318-1.243,1.371,1.371,0,0,1,.573-.447,1.608,1.608,0,0,0,.843-1.864c-.177-.923-.356-1.847-.473-2.778a1.216,1.216,0,0,1,.256-.8,5.838,5.838,0,0,1,1.161-1.229,1.926,1.926,0,0,1,1.735-.28c.281.1.486.411.815.707" transform="translate(-96.616 -329.975)"/><path d="M112.3,399.949l-.088-.381a1.647,1.647,0,0,1,.354-1.424,1.593,1.593,0,0,1,.671-.525,1.387,1.387,0,0,0,.707-1.613l-.015-.081c-.17-.885-.345-1.8-.459-2.712a1.436,1.436,0,0,1,.3-.965,5.937,5.937,0,0,1,1.209-1.275,2.161,2.161,0,0,1,1.938-.31,1.617,1.617,0,0,1,.612.473l.087.091.032-.051a4.353,4.353,0,0,0,.339-.6.374.374,0,0,0-.062-.161,2.66,2.66,0,0,0-1.756-.395,1.158,1.158,0,0,1-.721-.145,8.582,8.582,0,0,1-.918-.561.569.569,0,0,1-.3-.457.633.633,0,0,1,.321-.482c.352-.241.7-.484,1.053-.728s.706-.491,1.061-.734a.862.862,0,0,1,.522-.206l.415.03a6.624,6.624,0,0,1,3.039.715.532.532,0,0,0,.076.031.58.58,0,0,1,.246.142c.029.031.06.062.093.095a.861.861,0,0,1,.341.577.9.9,0,0,1-.53.746,1.083,1.083,0,0,1-.839-.234c-.205-.132-.4-.279-.587-.422-.205-.156-.4-.3-.606-.432a.616.616,0,0,0-.755.074.9.9,0,0,0-.388.846.722.722,0,0,0,.382.391c.441.17.907.306,1.359.438.205.06.411.12.615.184a1.361,1.361,0,0,1,.214.093l.107.052.266.124-.188.225c-.029.035-.054.067-.076.1a.98.98,0,0,1-.175.192,7.3,7.3,0,0,0-2.472,3.566,2.511,2.511,0,0,1-.4.68l-.034.046a.509.509,0,0,1-.516.119c-.214-.066-.224-.359-.222-.448.006-.236.014-.471.023-.706.016-.453.033-.921.028-1.379a.284.284,0,0,0-.487-.251,2.948,2.948,0,0,0-1.206,1.865,3.214,3.214,0,0,0,.12,1.082l.019.085a2.748,2.748,0,0,1-.865,2.869c-.35.31-.693.635-1.056.979-.172.163-.349.331-.535.5Zm3.962-8.942a1.77,1.77,0,0,0-1.022.334,5.573,5.573,0,0,0-1.113,1.183.994.994,0,0,0-.211.634c.112.9.287,1.8.455,2.683l.015.081a1.824,1.824,0,0,1-.978,2.114,1.141,1.141,0,0,0-.475.369,1.544,1.544,0,0,0-.3.614l.176-.167c.366-.347.712-.675,1.068-.989a2.3,2.3,0,0,0,.723-2.435l-.019-.084a3.545,3.545,0,0,1-.127-1.242,3.372,3.372,0,0,1,1.369-2.154.915.915,0,0,1,.834-.1.829.829,0,0,1,.387.7c0,.468-.012.942-.029,1.4-.008.217-.016.434-.021.65a1.934,1.934,0,0,0,.3-.5,7.84,7.84,0,0,1,2.619-3.775h0c-.2-.063-.4-.122-.608-.181-.46-.135-.936-.274-1.394-.45a1.144,1.144,0,0,1-.662-.723,1.321,1.321,0,0,1,.546-1.284,1.054,1.054,0,0,1,1.276-.107c.226.14.437.3.641.457.189.144.367.28.557.4.269.172.426.194.471.181a.515.515,0,0,0,.206-.326,1.1,1.1,0,0,0-.209-.246c-.037-.036-.072-.072-.1-.107l-.068-.025a.85.85,0,0,1-.154-.068,6.19,6.19,0,0,0-2.841-.654l-.419-.031a.794.794,0,0,0-.226.124c-.361.246-.713.491-1.065.736s-.7.489-1.056.73a.433.433,0,0,0-.121.108.375.375,0,0,0,.1.086,8.214,8.214,0,0,0,.87.533.755.755,0,0,0,.422.107,3.072,3.072,0,0,1,2.063.436.664.664,0,0,1,.273.716,4.625,4.625,0,0,1-.381.684c-.057.09-.117.184-.176.283l-.141.235-.2-.183c-.116-.1-.217-.211-.306-.3a1.324,1.324,0,0,0-.43-.357,1.59,1.59,0,0,0-.51-.083" transform="translate(-95.341 -328.7)"/><path d="M355.068,116.524a2.979,2.979,0,0,1-1.313-1.859,2.62,2.62,0,0,0-1-1.475,6.677,6.677,0,0,1-.875-.851,1.057,1.057,0,0,1-.231-.542c-.062-.521.119-.669.626-.572a10.826,10.826,0,0,1,1.32.255,5.886,5.886,0,0,1,1.031.537c.112.064.194.18.306.246.3.172.616.334.935.093.335-.253.277-.6.15-.952a1.006,1.006,0,0,1-.079-.421.352.352,0,0,0-.3-.441c-.26-.062-.3-.2-.25-.48.108-.658.129-1.33.2-1.995a1.314,1.314,0,0,1,.139-.541,5.553,5.553,0,0,1,1.868-1.913c.031-.019.084,0,.168,0a8.232,8.232,0,0,1-.017,1.157.948.948,0,0,1-.355.487c-.264.225-.583.387-.841.618a1.651,1.651,0,0,0-.271,1.926.4.4,0,0,0,.534.212,2.8,2.8,0,0,0,1.927-2.12,3.02,3.02,0,0,0,0-2.158l2.407-1.072a.677.677,0,0,1-.065.9,8.3,8.3,0,0,0-.771,1.579,3.05,3.05,0,0,0-.243.786,2.824,2.824,0,0,1-2.163,2.366.854.854,0,0,0-.657.939,7.716,7.716,0,0,0,.068,1.088.7.7,0,0,1-.335.736,1.6,1.6,0,0,1-2.4-.168c-.2-.2-.378-.405-.576-.6a.443.443,0,0,0-.665-.014c-.2.19-.31.444-.073.69.283.293.606.55.872.857a3.044,3.044,0,0,1,.555.845,10.586,10.586,0,0,1,.377,1.383,2.448,2.448,0,0,1,0,.474" transform="translate(-298.89 -88.962)"/><path d="M354.017,115.34l-.349-.23a3.212,3.212,0,0,1-1.407-1.993,2.393,2.393,0,0,0-.924-1.353,6.846,6.846,0,0,1-.9-.879,1.273,1.273,0,0,1-.284-.664.814.814,0,0,1,.166-.705.83.83,0,0,1,.726-.115c.141.027.284.049.427.07a5.745,5.745,0,0,1,.92.192,4.174,4.174,0,0,1,.833.415c.08.047.159.095.24.14a1.037,1.037,0,0,1,.2.155.727.727,0,0,0,.11.092c.317.185.5.248.686.108s.208-.325.073-.7a1.221,1.221,0,0,1-.092-.519c.015-.151-.01-.171-.131-.2a.554.554,0,0,1-.42-.735c.068-.413.1-.843.134-1.26.019-.241.038-.482.063-.722a1.5,1.5,0,0,1,.171-.636,5.736,5.736,0,0,1,1.944-1.988.351.351,0,0,1,.222-.037c.017,0,.038,0,.061,0h.225v.225c0,.111,0,.221.006.332a5.035,5.035,0,0,1-.025.856,1.089,1.089,0,0,1-.432.626,4.6,4.6,0,0,1-.422.308,3.783,3.783,0,0,0-.415.307,1.43,1.43,0,0,0-.228,1.642c.081.135.114.159.279.112a2.554,2.554,0,0,0,1.774-1.969,2.746,2.746,0,0,0,.012-2l-.093-.206,2.787-1.241.105.158a.9.9,0,0,1-.071,1.156,5.583,5.583,0,0,0-.589,1.163c-.052.126-.1.251-.159.375a2.782,2.782,0,0,0-.227.727,3.016,3.016,0,0,1-2.316,2.549.635.635,0,0,0-.5.722,7.5,7.5,0,0,0,.065,1.056.924.924,0,0,1-.422.951,1.817,1.817,0,0,1-2.7-.189c-.089-.09-.176-.182-.263-.275-.1-.109-.2-.218-.311-.323a.222.222,0,0,0-.352-.01.376.376,0,0,0-.137.228.192.192,0,0,0,.072.143c.114.118.238.234.359.346a6.74,6.74,0,0,1,.521.521,3.277,3.277,0,0,1,.594.91,8.09,8.09,0,0,1,.32,1.13c.022.094.043.189.066.282a1.152,1.152,0,0,1,.016.334c0,.056-.005.119-.005.192Zm-3.273-5.521c-.09,0-.118.02-.124.026s-.057.061-.026.323a.83.83,0,0,0,.177.421,6.382,6.382,0,0,0,.845.822,2.85,2.85,0,0,1,1.082,1.6,2.726,2.726,0,0,0,.862,1.455q-.029-.124-.058-.249a7.723,7.723,0,0,0-.3-1.068,2.859,2.859,0,0,0-.515-.779,6.27,6.27,0,0,0-.487-.485c-.125-.116-.255-.236-.377-.363a.641.641,0,0,1-.2-.465.789.789,0,0,1,.278-.545.663.663,0,0,1,.977.017c.111.109.217.222.324.335.084.09.168.179.254.266a1.382,1.382,0,0,0,2.106.146.478.478,0,0,0,.247-.521,7.992,7.992,0,0,1-.07-1.12,1.071,1.071,0,0,1,.812-1.156,2.6,2.6,0,0,0,2.01-2.184,3.206,3.206,0,0,1,.26-.846c.053-.121.1-.244.155-.367a6.006,6.006,0,0,1,.641-1.255c.156-.214.19-.344.147-.476l-2.018.9a3.456,3.456,0,0,1-.075,2.1,3,3,0,0,1-2.081,2.271.618.618,0,0,1-.789-.312,1.87,1.87,0,0,1,.314-2.21,4.207,4.207,0,0,1,.464-.345,4.2,4.2,0,0,0,.382-.277c.241-.2.273-.318.278-.347a4.622,4.622,0,0,0,.021-.78c0-.015,0-.03,0-.045a5.4,5.4,0,0,0-1.625,1.734,1.18,1.18,0,0,0-.106.446c-.025.236-.043.473-.062.71-.033.426-.067.866-.138,1.3-.025.153-.009.188-.008.191a.225.225,0,0,0,.088.033.574.574,0,0,1,.475.681.843.843,0,0,0,.067.322.983.983,0,0,1-.225,1.209,1.014,1.014,0,0,1-1.184-.078,1.053,1.053,0,0,1-.191-.152.69.69,0,0,0-.112-.093c-.083-.047-.165-.1-.248-.145a3.785,3.785,0,0,0-.742-.374,5.327,5.327,0,0,0-.848-.175c-.148-.022-.3-.045-.444-.073a1.16,1.16,0,0,0-.211-.024" transform="translate(-297.614 -87.36)"/><path d="M127.192,88.18a2.763,2.763,0,0,1,.183-.812,19.894,19.894,0,0,1,1.668-2.647,2.98,2.98,0,0,0,.573-3.49.34.34,0,0,1-.032-.126,1.6,1.6,0,0,1,.028-.218,5.638,5.638,0,0,1,.65.124c.442.138.868.338,1.317.441.5.115.554-.021.516-.514a10.544,10.544,0,0,1,.063-1.65c.006-.076.176-.188.278-.2.3-.026.607-.009.946-.009a4.175,4.175,0,0,0,.077.808c.048.164.221.291.338.434.11-.121.286-.227.318-.366a2.226,2.226,0,0,1,.717-1.169,2.319,2.319,0,0,0,.882-1.4.926.926,0,0,1-.024,1.339c-.241.3-.456.615-.7.949.737-.329,1.42-.629,2.1-.939.327-.15.265-.442.165-.676-.186-.438-.438-.848-.633-1.283a.662.662,0,0,1-.039-.485,4.782,4.782,0,0,0,.155-2.869c-.031-.208-.037-.421-.054-.631l.116-.056c.1.12.248.226.282.361a10.5,10.5,0,0,1,.3,1.485c.111,1.082.15,2.172.271,3.253.079.7.261.949.993,1.732-.531.106-.994.238-1.465.284a5.347,5.347,0,0,0-2.834,1.119c-.458.358-.877.766-1.337,1.122a2,2,0,0,1-.652.3,1.769,1.769,0,0,1-.479.009c-.795,0-.8,0-.794.783a2.325,2.325,0,0,1-.724,1.546,11.178,11.178,0,0,1-1.173,1.1,6.933,6.933,0,0,0-1.6,2c-.074.135-.152.267-.228.4l-.162-.05" transform="translate(-108.113 -61.826)"/><path d="M125.973,86.909l-.53-.164.042-.2c.016-.077.027-.161.038-.249a1.634,1.634,0,0,1,.17-.631c.1-.179.207-.36.31-.541a15.15,15.15,0,0,1,1.378-2.134,2.752,2.752,0,0,0,.545-3.248.562.562,0,0,1-.055-.212.67.67,0,0,1,.013-.153c0-.028.01-.063.017-.109l.032-.234.232.043c.068.012.135.023.2.033a3.215,3.215,0,0,1,.474.1c.179.056.356.122.527.185a6.271,6.271,0,0,0,.773.251.818.818,0,0,0,.241.032,1.169,1.169,0,0,0,0-.309,9.278,9.278,0,0,1,.046-1.482l.017-.2c.018-.218.3-.387.482-.4a6.585,6.585,0,0,1,.684-.013l.281,0h.208l.016.207c.007.094.011.185.014.274a2.066,2.066,0,0,0,.054.489.559.559,0,0,0,.133.179.4.4,0,0,0,.088-.1,2.427,2.427,0,0,1,.785-1.283,2.12,2.12,0,0,0,.819-1.3l.131-.438.267.371a1.143,1.143,0,0,1-.032,1.612c-.069.085-.136.172-.2.261.455-.2.894-.4,1.332-.6.084-.038.18-.082.052-.383-.1-.226-.214-.451-.328-.67-.1-.2-.209-.4-.3-.609a.868.868,0,0,1-.037-.673,4.573,4.573,0,0,0,.137-2.739c-.023-.152-.033-.3-.042-.451,0-.065-.008-.13-.014-.194l-.013-.153.415-.2.113.138c.026.032.057.063.088.094a.793.793,0,0,1,.238.354,10.794,10.794,0,0,1,.3,1.517c.052.508.089,1.025.125,1.525.04.567.082,1.154.146,1.726.071.632.218.838.934,1.6l.276.3-.4.079c-.168.034-.33.07-.487.1a8.182,8.182,0,0,1-1,.182A5.154,5.154,0,0,0,133,79.559c-.22.172-.436.36-.646.543s-.452.394-.692.579a2.218,2.218,0,0,1-.726.334,1.13,1.13,0,0,1-.4.025c-.046,0-.094-.005-.138-.006a1.953,1.953,0,0,0-.54.037,2,2,0,0,0-.03.52,2.551,2.551,0,0,1-.781,1.7,11.435,11.435,0,0,1-1.2,1.127,6.682,6.682,0,0,0-1.551,1.935c-.05.091-.1.181-.154.272Zm2.367-7.348a3.19,3.19,0,0,1-.61,3.714,14.429,14.429,0,0,0-1.3,2.016,6.678,6.678,0,0,1,1.126-1.221,11.044,11.044,0,0,0,1.15-1.081,2.12,2.12,0,0,0,.667-1.4c0-.9.1-1,1.018-1.008.061,0,.112,0,.169.007a.783.783,0,0,0,.247-.007,1.822,1.822,0,0,0,.579-.259c.229-.177.454-.373.671-.563s.435-.379.665-.558a5.6,5.6,0,0,1,2.951-1.166,7.838,7.838,0,0,0,.945-.173l.109-.024a2.948,2.948,0,0,1-.657-.97.6.6,0,0,1-.372.481c-.477.218-.956.431-1.455.652l-1.42.633.5-.685c.076-.1.149-.206.221-.307.162-.227.316-.441.486-.65a.757.757,0,0,0,.24-.616,2.482,2.482,0,0,1-.772.988,2,2,0,0,0-.65,1.053.742.742,0,0,1-.271.372,1.315,1.315,0,0,0-.1.094l-.176.193-.165-.2c-.032-.039-.069-.077-.106-.115a.99.99,0,0,1-.274-.4,2.4,2.4,0,0,1-.072-.6c0-.016,0-.033,0-.05h-.075a6.321,6.321,0,0,0-.639.011.269.269,0,0,0-.077.042l-.013.155a8.916,8.916,0,0,0-.045,1.409c.022.287.026.537-.151.689a.714.714,0,0,1-.64.061,6.707,6.707,0,0,1-.829-.268c-.165-.062-.336-.125-.5-.177a2.547,2.547,0,0,0-.368-.076m2.555-1.844h0m4.637-5.511A4.419,4.419,0,0,1,135.3,74.8a.474.474,0,0,0,.041.3c.088.2.191.394.291.585.108.206.219.418.315.638,0-.015,0-.031-.005-.047-.065-.581-.107-1.172-.148-1.744-.035-.5-.072-1.01-.123-1.511a7.117,7.117,0,0,0-.137-.81" transform="translate(-106.627 -60.237)"/><path d="M133.313,40.738l-.852,1.124-.191-.093c-.038-1.231.115-2.493-.624-3.605l.165-.075c.1.114.24.213.286.346.224.646.881.762,1.336,1.121.038.03.137,0,.2-.023.663-.237,1.316-.514,1.991-.708a1.128,1.128,0,0,0,.924-.847,3.555,3.555,0,0,1,.417-.774l.153.027a4.1,4.1,0,0,1,.1.41c.064.428.1.861.18,1.287s0,.582-.452.561a2.825,2.825,0,0,0-2.152.636.736.736,0,0,0-.232.57c.025.129.325.3.49.285a7.077,7.077,0,0,0,1.132-.27,2.1,2.1,0,0,1-1.289.975c-.308.084-.535.209-.455.558s.36.565.684.416a12.77,12.77,0,0,0,1.523-.889,7.863,7.863,0,0,0,.7-.558l.106.06a1.6,1.6,0,0,1-.042.348,5.328,5.328,0,0,0,.7,4.5c.183.33.275.622.041.921a.717.717,0,0,1-.908.186c-.251-.1-.514-.176-.759-.29-.07-.033-.155-.195-.13-.236a.386.386,0,0,1,.261-.171c.287-.022.577-.008.924-.008a1.526,1.526,0,0,0-.117-.46,5.783,5.783,0,0,1-1.047-2.773c-.044-.418-.217-.473-.592-.272a1.839,1.839,0,0,0-.508.334,4.156,4.156,0,0,1-1.437,1.012,1.463,1.463,0,0,1-.307.064,1.331,1.331,0,0,1-.031-.329c.071-.471.194-.936.224-1.409a3.736,3.736,0,0,0-.161-.839c-.057-.322-.1-.647-.151-.971l-.1-.138" transform="translate(-111.899 -31.623)"/><path d="M135.733,46.117a1.242,1.242,0,0,1-.464-.1c-.1-.04-.2-.076-.3-.111-.154-.054-.314-.111-.469-.183a.549.549,0,0,1-.248-.315.288.288,0,0,1,.019-.241.6.6,0,0,1,.438-.28c.214-.016.428-.014.654-.011h.016a.315.315,0,0,0-.031-.1,5.976,5.976,0,0,1-1.086-2.878.525.525,0,0,0-.042-.183.633.633,0,0,0-.22.086l-.077.041a1.378,1.378,0,0,0-.37.245,4.361,4.361,0,0,1-1.513,1.067.973.973,0,0,1-.268.066c-.029,0-.058.008-.087.014l-.242.048-.026-.245c0-.03-.009-.06-.014-.09a.9.9,0,0,1-.016-.3c.026-.171.059-.342.091-.512a7.08,7.08,0,0,0,.131-.878,1.507,1.507,0,0,0-.081-.468c-.028-.1-.057-.208-.077-.317-.04-.225-.074-.452-.106-.673l-.706.932-.48-.232,0-.136c-.007-.218-.007-.437-.008-.656a4.845,4.845,0,0,0-.579-2.831l-.146-.22.559-.256.11.129c.027.031.057.061.088.091a.866.866,0,0,1,.24.328c.125.36.419.52.759.705a3.924,3.924,0,0,1,.445.269l.043-.014c.211-.076.421-.155.631-.235.445-.169.906-.343,1.374-.477s.674-.315.768-.686a2.1,2.1,0,0,1,.3-.6c.048-.075.1-.149.138-.225l.078-.14.453.079.036.141c.01.041.022.082.034.122a2.377,2.377,0,0,1,.074.31c.026.173.048.346.07.52.032.251.065.51.109.76a.754.754,0,0,1-.092.651.718.718,0,0,1-.592.174,2.569,2.569,0,0,0-1.99.578.572.572,0,0,0-.165.342.509.509,0,0,0,.255.122,3.549,3.549,0,0,0,.706-.156c.121-.035.249-.072.386-.107l.544-.139-.3.476a2.315,2.315,0,0,1-1.421,1.073c-.34.093-.322.172-.295.291a.391.391,0,0,0,.177.27.215.215,0,0,0,.194-.008,11.2,11.2,0,0,0,1.343-.776l.153-.1a4.137,4.137,0,0,0,.457-.359c.072-.062.144-.124.217-.184l.119-.1.369.208-.016.148c0,.033-.005.066-.007.1a1.04,1.04,0,0,1-.046.3,5,5,0,0,0,.685,4.313.978.978,0,0,1,.021,1.168.87.87,0,0,1-.706.354m-1-.778c.121.053.247.1.381.145.107.038.214.076.319.118.378.153.55.007.647-.116.138-.177.124-.34-.061-.673a5.66,5.66,0,0,1-.757-4.557,3.621,3.621,0,0,1-.386.292l-.152.1a11.522,11.522,0,0,1-1.4.806.665.665,0,0,1-.58,0,.826.826,0,0,1-.417-.573c-.142-.618.427-.774.614-.826a1.892,1.892,0,0,0,.693-.343,2.7,2.7,0,0,1-.46.079c-.244.015-.672-.188-.727-.465a.958.958,0,0,1,.3-.78,3.088,3.088,0,0,1,2.314-.694c.192.009.233-.021.234-.023s.025-.052-.015-.274c-.047-.261-.081-.527-.113-.783-.022-.17-.043-.34-.068-.51,0-.024-.008-.048-.014-.073a1.588,1.588,0,0,0-.218.433,1.362,1.362,0,0,1-1.08,1.007c-.45.129-.9.3-1.339.466-.213.08-.425.161-.639.238a.433.433,0,0,1-.415-.012,3.1,3.1,0,0,0-.44-.271,3.247,3.247,0,0,1-.543-.346,7.941,7.941,0,0,1,.177,2c0,.111,0,.223,0,.334l.828-1.093.309.429.008.054q.022.146.044.292c.033.222.066.451.106.673.016.089.041.18.068.277a1.867,1.867,0,0,1,.1.617,7.623,7.623,0,0,1-.138.933c-.032.165-.063.329-.088.495a.163.163,0,0,0,0,.034l.026-.009a3.925,3.925,0,0,0,1.361-.957,1.72,1.72,0,0,1,.494-.342l.074-.039a.7.7,0,0,1,.646-.091.645.645,0,0,1,.277.537,5.534,5.534,0,0,0,1.007,2.667.848.848,0,0,1,.12.368c.008.052.017.109.032.168l.067.278h-.285l-.292,0c-.226,0-.421-.005-.615.009h0" transform="translate(-110.01 -30.211)"/><path d="M324.273,405.272l.184-1.91a2.925,2.925,0,0,0-.42.182c-.257.164-.494.361-.755.519-.244.148-.478.108-.531-.2a1.64,1.64,0,0,0-.86-1.146,2.619,2.619,0,0,1-.358-.333,2.067,2.067,0,0,1,1.583.075,1.291,1.291,0,0,0-.291-1.319.861.861,0,0,1-.142-1.076,1.386,1.386,0,0,0,.139-.407c.042-.287-.085-.392-.382-.347a12.085,12.085,0,0,1-1.419.151.789.789,0,0,1-.81-.7,6.2,6.2,0,0,1,.9.07,2.985,2.985,0,0,0,2.664-.983c.138-.117.152-.389.206-.594.047-.178.071-.362.106-.551.494.117.944.205,1.378.345.068.022.112.289.076.418a.725.725,0,0,1-.287.32,3.5,3.5,0,0,0-1.208,2.383c-.129.681-.271,1.36-.439,2.031-.136.542.042.78.595.652a5.635,5.635,0,0,0,.771-.372,3.892,3.892,0,0,1,.585-.143,2,2,0,0,1-.029.651c-.264.658-.57,1.3-.866,1.944-.063.137-.15.262-.227.393l-.161-.05" transform="translate(-272.179 -337.196)"/><path d="M323.027,404.042l-.507-.157.166-1.722-.04.023c-.112.072-.22.15-.334.232-.136.1-.276.2-.425.29a.611.611,0,0,1-.574.073.539.539,0,0,1-.3-.429,1.4,1.4,0,0,0-.756-.993,1.391,1.391,0,0,1-.274-.24c-.037-.039-.077-.08-.121-.122l-.235-.223.291-.142a1.919,1.919,0,0,1,1.5-.008l.012,0a1.017,1.017,0,0,0-.285-.884,1.086,1.086,0,0,1-.18-1.33,1.172,1.172,0,0,0,.118-.34.33.33,0,0,0,0-.1.4.4,0,0,0-.13,0,12.245,12.245,0,0,1-1.445.154,1.016,1.016,0,0,1-1.038-.888l-.045-.28.283.02c.1.007.19.01.284.013a3.463,3.463,0,0,1,.646.062,2.787,2.787,0,0,0,2.469-.935.773.773,0,0,0,.094-.3c.012-.063.025-.125.04-.183.03-.113.05-.232.071-.358.01-.059.02-.118.031-.177l.043-.232.229.054.365.084c.358.081.7.158,1.03.265.266.086.262.555.225.692a.892.892,0,0,1-.37.441,3.29,3.29,0,0,0-1.12,2.244c-.148.783-.289,1.432-.442,2.044-.075.3-.015.369-.007.377.029.029.133.047.333,0a1.547,1.547,0,0,0,.395-.184,2.794,2.794,0,0,1,.342-.177,2.326,2.326,0,0,1,.444-.118c.058-.011.117-.023.175-.036l.284-.067-.008.292c0,.063,0,.127.006.192a1.243,1.243,0,0,1-.051.537c-.215.538-.462,1.07-.7,1.585l-.17.369a2.708,2.708,0,0,1-.166.3c-.024.039-.048.078-.071.117Zm.179-2.582-.154,1.6.064-.139c.236-.51.48-1.036.691-1.563a.758.758,0,0,0,.022-.294,1.589,1.589,0,0,0-.284.078,2.428,2.428,0,0,0-.287.15,1.9,1.9,0,0,1-.519.233.768.768,0,0,1-.756-.125.6.6,0,0,1-.158-.441l0,.014-.059.213-.214-.055c-.084-.022-.168-.046-.252-.071a1.965,1.965,0,0,0-.856-.122.441.441,0,0,0,.056.042,1.886,1.886,0,0,1,.964,1.3c.012.071.034.094.039.1a.226.226,0,0,0,.154-.048c.134-.081.261-.173.395-.27.114-.082.232-.168.355-.246a1.618,1.618,0,0,1,.312-.144c.045-.017.093-.035.142-.056Zm-2.158-3.936a.491.491,0,0,1,.365.132.538.538,0,0,1,.12.483,1.6,1.6,0,0,1-.16.475.637.637,0,0,0,.1.822,1.458,1.458,0,0,1,.417,1.085c.144-.582.278-1.2.418-1.945a3.712,3.712,0,0,1,1.295-2.522c.155-.114.2-.171.2-.2a.477.477,0,0,0-.007-.17c-.29-.089-.594-.158-.913-.23l-.137-.031c-.019.111-.04.224-.07.336-.013.049-.023.1-.034.155a.924.924,0,0,1-.244.553,3.2,3.2,0,0,1-2.859,1.031,2.835,2.835,0,0,0-.518-.05.537.537,0,0,0,.473.234,11.879,11.879,0,0,0,1.392-.149,1.031,1.031,0,0,1,.154-.012" transform="translate(-270.668 -335.648)"/><path d="M415.561,324.868a2.713,2.713,0,0,1-2.962-1.7,3.828,3.828,0,0,0-.407-.859.988.988,0,0,0-1.379-.328,5.341,5.341,0,0,0-.582.384c-.613.426-.86.4-1.352-.183l-.448.7-.155-.051c0-.334.009-.668,0-1a.854.854,0,0,0-.1-.356c-.121-.225-.274-.432-.4-.657a.61.61,0,0,1,.138-.842.5.5,0,0,0,.032-.768c-.517-.636-.161-1.3-.057-1.961.007-.047.152-.119.206-.1.094.032.229.116.239.193.134.986.792,1.836.682,2.9-.034.331.307.728.54,1.049.179.247.451.132.664-.022.27-.2.518-.423.8-.6a.644.644,0,0,1,.869.1,4.079,4.079,0,0,1,1.334,1.992,1.725,1.725,0,0,0,.657.763c.375.294.813.508,1.2.788a3.466,3.466,0,0,1,.485.559" transform="translate(-346.517 -269.568)"/><path d="M413.843,323.858a2.944,2.944,0,0,1-2.731-1.894,3.669,3.669,0,0,0-.381-.809.771.771,0,0,0-1.091-.254,3.435,3.435,0,0,0-.416.27l-.14.1c-.626.435-.988.451-1.448,0l-.384.6-.476-.155v-.163c0-.1,0-.19,0-.286,0-.233,0-.473-.006-.706a.634.634,0,0,0-.075-.259c-.057-.106-.122-.208-.191-.316s-.141-.222-.2-.34a.831.831,0,0,1,.19-1.12c.107-.092.2-.21,0-.455a1.784,1.784,0,0,1-.2-1.714c.036-.147.069-.286.091-.424a.316.316,0,0,1,.166-.218.425.425,0,0,1,.335-.06c.132.044.363.174.39.376a5.211,5.211,0,0,0,.321,1.1,4.016,4.016,0,0,1,.362,1.854c-.02.2.211.508.4.756l.1.137c.026.036.086.119.35-.072.108-.078.212-.162.322-.249.153-.123.312-.249.482-.361a.859.859,0,0,1,1.146.128,4.314,4.314,0,0,1,1.4,2.1c.059.234.4.5.577.641a6.536,6.536,0,0,0,.636.423c.185.113.376.229.558.36a1.781,1.781,0,0,1,.357.385c.051.066.1.137.167.211l.251.3-.383.07a2.685,2.685,0,0,1-.483.044m-3.745-3.531a1.2,1.2,0,0,1,1,.575,4.062,4.062,0,0,1,.432.91,2.521,2.521,0,0,0,2.318,1.6.978.978,0,0,0-.184-.19c-.167-.121-.342-.228-.528-.341a6.954,6.954,0,0,1-.68-.453,1.853,1.853,0,0,1-.736-.885,3.829,3.829,0,0,0-1.269-1.882.422.422,0,0,0-.593-.081c-.153.1-.3.215-.448.336-.109.088-.222.178-.34.263-.566.409-.872.116-.978-.029-.031-.043-.064-.087-.1-.132a1.714,1.714,0,0,1-.484-1.072,3.618,3.618,0,0,0-.336-1.652,5.8,5.8,0,0,1-.34-1.159l-.026-.018c-.023.118-.051.235-.079.348a1.375,1.375,0,0,0,.108,1.324.716.716,0,0,1-.06,1.08.391.391,0,0,0-.087.564c.057.1.121.206.189.313s.142.224.207.345a1.077,1.077,0,0,1,.128.453c.007.177.008.355.008.53l.35-.546.2.233c.413.489.531.505,1.052.143l.135-.1a3.818,3.818,0,0,1,.472-.3,1.451,1.451,0,0,1,.664-.174m-3.351-4.247h0Z" transform="translate(-345.242 -268.292)"/><path d="M301.4,25.308a3.9,3.9,0,0,0,.617.873c.326.248.563.08.565-.335,0-.379,0-.759,0-1.138,0-.742.411-1.185,1.287-1.307a1.63,1.63,0,0,1-.177.478,2.935,2.935,0,0,0-.6,2.079,5.971,5.971,0,0,1-.21,1.351c-.064.291.107.308.287.28.328-.051.649-.145.976-.2.187-.034.381-.035.571-.051l.08.128a4.154,4.154,0,0,1-.449.585,2.675,2.675,0,0,0-.864,1.514c-.209,1.067-1.044,1.779-1.589,2.658l-.128-.058c.279-.75.559-1.5.835-2.251.1-.285.218-.569.294-.862.127-.492-.119-.758-.615-.713a5.888,5.888,0,0,1-.96.03,1.057,1.057,0,0,1-.545-.2,1.34,1.34,0,0,0-2.053-.006,1.028,1.028,0,0,1-.339.106,1.57,1.57,0,0,1-.02-.349c.056-.343.134-.682.2-1.024.075-.411.287-.556.682-.421a1.148,1.148,0,0,1,.525.292,3.492,3.492,0,0,0,1.831.927c.117.041.374-.015.4-.087a.547.547,0,0,0-.054-.468,1.792,1.792,0,0,0-.569-.381.791.791,0,0,1-.536-.957c.079-.389.327-.519.57-.488" transform="translate(-253.595 -19.891)"/><path d="M300.7,30.954l-.5-.225.312-.839q.3-.8.6-1.608l.057-.153a7.008,7.008,0,0,0,.23-.687.405.405,0,0,0-.023-.351.42.42,0,0,0-.354-.082,6.115,6.115,0,0,1-1,.031,1.277,1.277,0,0,1-.666-.247c-.737-.574-1.052-.576-1.775-.007a.725.725,0,0,1-.321.124c-.032.006-.064.012-.094.021l-.269.079-.019-.279c0-.033-.007-.065-.011-.1a1.034,1.034,0,0,1-.007-.3c.033-.2.075-.41.114-.608.028-.14.057-.28.082-.42a.776.776,0,0,1,.338-.575.751.751,0,0,1,.639-.019,1.308,1.308,0,0,1,.628.365,2.473,2.473,0,0,0,1.336.729c.131.04.263.08.392.125a.376.376,0,0,0,.128-.012.345.345,0,0,0-.025-.183,1.629,1.629,0,0,0-.5-.326,1.015,1.015,0,0,1-.659-1.2.734.734,0,0,1,.82-.666l.1.013.057.084c.088.129.162.253.227.362a1.612,1.612,0,0,0,.34.459c.089.068.141.071.149.069s.054-.065.055-.226c0-.224,0-.449,0-.674q0-.232,0-.463c0-.6.256-1.36,1.481-1.53l.366-.051-.123.349c-.02.056-.034.111-.048.164a.943.943,0,0,1-.169.385,2.76,2.76,0,0,0-.552,1.93,5.14,5.14,0,0,1-.173,1.214l-.042.189,0,.014.036,0c.174-.027.345-.066.525-.108.144-.033.294-.068.445-.1a3.462,3.462,0,0,1,.42-.042c.058,0,.116-.007.173-.011l.137-.011.235.375-.093.124c-.044.059-.086.12-.128.182a2.425,2.425,0,0,1-.348.434,2.464,2.464,0,0,0-.8,1.392A4.692,4.692,0,0,1,301.364,30c-.2.253-.4.515-.564.784Zm.4-4.4a.758.758,0,0,1,.612.245.8.8,0,0,1,.116.754,7.432,7.432,0,0,1-.244.732l-.056.151q-.218.594-.439,1.188a4.026,4.026,0,0,0,.89-1.658,2.892,2.892,0,0,1,.932-1.636,1.8,1.8,0,0,0,.246-.3,2.292,2.292,0,0,0-.256.029c-.14.025-.284.059-.423.091-.181.042-.368.085-.558.114a.506.506,0,0,1-.457-.109.467.467,0,0,1-.084-.442l.043-.192a4.814,4.814,0,0,0,.162-1.107,3.165,3.165,0,0,1,.658-2.228.156.156,0,0,0,.02-.031.951.951,0,0,0-.733,1.006q0,.231,0,.461c0,.226,0,.452,0,.678a.633.633,0,0,1-.306.628.57.57,0,0,1-.62-.115,1.928,1.928,0,0,1-.454-.587c-.046-.078-.094-.158-.147-.24-.141.029-.2.176-.229.307-.059.293-.01.5.414.71a1.994,1.994,0,0,1,.64.435.766.766,0,0,1,.1.694c-.086.236-.5.287-.685.223-.124-.043-.25-.081-.376-.12a2.855,2.855,0,0,1-1.557-.88,1.035,1.035,0,0,0-.421-.219.355.355,0,0,0-.265-.019.4.4,0,0,0-.123.267c-.026.143-.055.286-.083.429-.039.194-.08.394-.112.591a.257.257,0,0,0,0,.032h0a1.557,1.557,0,0,1,2.33.006.832.832,0,0,0,.423.153,5.662,5.662,0,0,0,.923-.03c.044,0,.086-.006.126-.006" transform="translate(-252.32 -18.34)"/><path d="M45.946,297.482a2.914,2.914,0,0,1-.013.774,2.671,2.671,0,0,1-.413.72c-.025.034-.214-.051-.327-.08-.131-.033-.29-.126-.384-.081a.436.436,0,0,0-.194.345,9.358,9.358,0,0,1-1.149,4.638,6.154,6.154,0,0,0-.292,1.124c-.654-1.182-1.587-2.1-1.853-3.485l-1.615.679c.062-.229.056-.434.155-.536a9.719,9.719,0,0,0,1.719-2.92,1.783,1.783,0,0,1,.276-.346c.077.156.215.309.221.468.027.656-.043,1.32.036,1.968a6.278,6.278,0,0,0,.457,1.473c.107.275.309.275.491.026a4.526,4.526,0,0,0,.871-2.243c.048-.462.053-.93.1-1.392.014-.133.073-.329.169-.374.568-.27,1.152-.5,1.746-.758" transform="translate(-33.748 -252.86)"/><path d="M41.338,303.6l-.276-.5c-.2-.367-.439-.716-.667-1.054a7.27,7.27,0,0,1-1.149-2.229l-1.793.754.12-.445c.019-.069.031-.137.042-.2a.775.775,0,0,1,.169-.431,8.629,8.629,0,0,0,1.563-2.607l.112-.248a1.129,1.129,0,0,1,.221-.3c.029-.031.059-.063.085-.1l.221-.271.155.313c.021.043.048.086.075.128a.9.9,0,0,1,.17.431c.011.266.006.534,0,.793a8.264,8.264,0,0,0,.033,1.157,5.4,5.4,0,0,0,.387,1.273l.057.145a.312.312,0,0,0,.026.054.4.4,0,0,0,.074-.079,4.319,4.319,0,0,0,.829-2.133c.024-.229.037-.466.05-.7s.026-.463.049-.7c.007-.073.056-.441.3-.555.429-.2.875-.392,1.307-.573l.448-.189.313-.133v.341c0,.1.006.193.01.279a1.54,1.54,0,0,1-.034.563,2.849,2.849,0,0,1-.445.784c-.114.158-.3.1-.456.041-.039-.013-.077-.027-.109-.035a1.515,1.515,0,0,1-.145-.048c-.03-.011-.072-.027-.1-.034a.291.291,0,0,0-.052.118,9.424,9.424,0,0,1-1.172,4.747,2.666,2.666,0,0,0-.18.638c-.027.132-.057.282-.1.441Zm-1.763-4.409.052.272a6.255,6.255,0,0,0,1.141,2.331c.13.192.262.389.391.591a2.512,2.512,0,0,1,.19-.617,9.006,9.006,0,0,0,1.127-4.528.657.657,0,0,1,.323-.56.556.556,0,0,1,.435.033c.035.013.069.026.1.034s.093.028.144.045l.026.009a2.092,2.092,0,0,0,.3-.544,1.112,1.112,0,0,0,.016-.372l-.15.063c-.44.185-.856.36-1.27.556a.544.544,0,0,0-.06.2c-.023.223-.035.453-.048.675s-.027.477-.052.718a4.763,4.763,0,0,1-.914,2.352.535.535,0,0,1-.5.272.486.486,0,0,1-.382-.349l-.057-.144a5.754,5.754,0,0,1-.415-1.383,8.758,8.758,0,0,1-.036-1.22c0-.253.009-.514,0-.766a.259.259,0,0,0-.034-.1.323.323,0,0,0-.034.056l-.112.247a9.105,9.105,0,0,1-1.651,2.736l0,0Z" transform="translate(-31.835 -250.931)"/><path d="M275.787,361.919c.022-.039.03-.079.05-.085.845-.264,1.684-.549,2.538-.775.414-.109.874-.048,1.286-.163a10.906,10.906,0,0,0,4.187-2.343c.426-.365.863-.717,1.295-1.075l.1.07c-.039.158-.074.316-.117.473-.193.7-.433,1.386-.563,2.094a4.207,4.207,0,0,0,.1,1.159c.014.126.042.25.065.386-.506-.127-.518-.165-.763-2.334a2.6,2.6,0,0,0-.583.306,9.886,9.886,0,0,1-3.9,2.093,1.957,1.957,0,0,0-1.477,1.38c-.057.212-.137.425-.412.215-.6-.458-1.19-.924-1.8-1.4" transform="translate(-234.419 -303.856)"/><path d="M276.139,362.041a.556.556,0,0,1-.331-.133c-.423-.324-.844-.652-1.271-.985l-.688-.536.095-.169c0-.007.006-.014.009-.02a.28.28,0,0,1,.17-.17c.225-.07.45-.142.675-.214.61-.2,1.241-.4,1.874-.564a3.412,3.412,0,0,1,.679-.086,2.936,2.936,0,0,0,.6-.076,10.65,10.65,0,0,0,4.1-2.3c.294-.252.6-.5.891-.742l.407-.335.13-.108.373.252-.072.295c-.027.113-.054.225-.085.336-.059.212-.122.423-.185.635a13.94,13.94,0,0,0-.374,1.441,2.185,2.185,0,0,0,.047.73c.02.118.041.241.054.364.008.077.023.156.039.241.008.043.016.086.024.131l.059.341-.335-.084c-.633-.159-.682-.328-.9-2.22a.876.876,0,0,0-.241.138,10.194,10.194,0,0,1-3.99,2.144,1.714,1.714,0,0,0-1.327,1.224c-.035.131-.1.375-.318.449a.359.359,0,0,1-.117.019m-1.586-1.676.261.2c.426.333.845.66,1.268.983l.023.017c.009-.024.021-.059.035-.111a2.2,2.2,0,0,1,1.626-1.536,9.53,9.53,0,0,0,3.818-2.043,1.451,1.451,0,0,1,.435-.251c.065-.028.132-.057.2-.091l.289-.148.036.323c.054.475.1.84.132,1.122a1.584,1.584,0,0,1,.022-.348,14.25,14.25,0,0,1,.386-1.488c.062-.208.124-.417.182-.626h0l-.034.028c-.292.24-.593.487-.884.736a11.092,11.092,0,0,1-4.274,2.389,3.309,3.309,0,0,1-.7.091,3.037,3.037,0,0,0-.59.072c-.621.164-1.246.364-1.851.557l-.381.122" transform="translate(-232.772 -302.265)"/><path d="M90.571,264.918c1.462-1.155,2.035-2.743,2.746-4.247.05-.106.191-.168.289-.251a1.107,1.107,0,0,1,.126.334,14.243,14.243,0,0,0,2.2,7.237c.205.331.458.632.746,1.025a1.152,1.152,0,0,1-.863-.6c-.69-1.128-1.37-2.262-2.055-3.394a3.447,3.447,0,0,0-.328-.513.6.6,0,0,0-.939.123,10.854,10.854,0,0,0-.631,1.086c-.046.079-.113.2-.179.2s-.241-.087-.24-.135c.007-.522-.4-.67-.871-.863" transform="translate(-76.985 -221.356)"/><path d="M94.676,267.206l-.539-.085a1.378,1.378,0,0,1-1.02-.707q-.7-1.151-1.4-2.308l-.656-1.086c-.029-.047-.056-.1-.084-.144a2.044,2.044,0,0,0-.221-.337.292.292,0,0,0-.237-.1.482.482,0,0,0-.353.21,5.1,5.1,0,0,0-.407.681c-.068.129-.137.258-.21.383s-.172.3-.354.311a.577.577,0,0,1-.385-.151.281.281,0,0,1-.1-.211c0-.322-.185-.43-.687-.634l-.4-.164.3-.239a8.793,8.793,0,0,0,2.388-3.532c.1-.213.194-.425.293-.635a.7.7,0,0,1,.263-.266,1,1,0,0,0,.084-.061l.239-.2.115.291c.012.029.027.059.041.088a.771.771,0,0,1,.1.322,14.087,14.087,0,0,0,2.165,7.125c.132.212.283.411.459.642.088.116.181.237.277.369Zm-4.144-5.218a.747.747,0,0,1,.563.254,2.4,2.4,0,0,1,.274.411c.026.045.051.09.078.134l.656,1.087.11.182A14.376,14.376,0,0,1,91,258.676c-.094.2-.186.4-.279.6a9.74,9.74,0,0,1-2.234,3.458,1,1,0,0,1,.661.764l.009-.015c.07-.121.136-.244.2-.368a5.494,5.494,0,0,1,.445-.741.927.927,0,0,1,.7-.39h.03" transform="translate(-74.48 -219.24)"/><path d="M98.32,136.591a3.463,3.463,0,0,1-.585-1.888c-.048-.448-.053-.9-.1-1.348a1.187,1.187,0,0,0-.157-.491,2.316,2.316,0,0,0-.373-.38,2.2,2.2,0,0,0-.239.464,3.624,3.624,0,0,0-.054.62c-.533.02-.417-.315-.371-.563.139-.752.3-1.5.462-2.274a4.933,4.933,0,0,0,.345.832c.1.164.325.253.494.376a4.016,4.016,0,0,0,.272-.465c.237-.558.429-1.138.7-1.678a2.016,2.016,0,0,1,.6-.6.373.373,0,0,1,.338.041c.052.036.056.221.012.3a5.593,5.593,0,0,0-.46,2.326c-.072.852-.171,1.7-.27,2.552a2.285,2.285,0,0,1-.144.407c-.126.389-.254.778-.368,1.17-.046.157-.059.324-.107.6" transform="translate(-81.937 -109.796)"/><path d="M97.177,135.87l-.312-.418a3.516,3.516,0,0,1-.62-1.915l-.009-.084c-.025-.234-.039-.471-.052-.7s-.025-.435-.048-.649a.963.963,0,0,0-.125-.4.761.761,0,0,0-.129-.147.69.69,0,0,0-.074.167,1.857,1.857,0,0,0-.039.387c0,.065,0,.13-.009.194l-.015.2-.2.008a.636.636,0,0,1-.54-.178.663.663,0,0,1-.073-.591l.012-.06c.1-.542.211-1.069.328-1.628q.067-.323.135-.651l.152-.738.278.7c.035.089.067.179.1.268a2.61,2.61,0,0,0,.228.526.751.751,0,0,0,.234.185,1.693,1.693,0,0,0,.135-.241c.084-.2.162-.4.24-.6.142-.362.288-.737.467-1.093a1.971,1.971,0,0,1,.6-.624l.064-.049a.573.573,0,0,1,.605.035.516.516,0,0,1,.08.592,4.4,4.4,0,0,0-.406,1.873c-.008.121-.017.243-.027.364-.072.858-.174,1.723-.271,2.559a1.114,1.114,0,0,1-.1.32c-.019.043-.038.086-.052.13l-.044.136c-.11.337-.222.685-.323,1.028a2.57,2.57,0,0,0-.06.317c-.011.075-.024.158-.041.255Zm-1.4-5.032.214.211c.036.035.074.069.113.1a1.483,1.483,0,0,1,.294.319,1.413,1.413,0,0,1,.19.587c.023.224.036.451.049.669s.026.455.05.678l.009.085a4.176,4.176,0,0,0,.241,1.178l0-.01c.1-.35.216-.7.326-1.041l.044-.136c.019-.058.043-.115.068-.171a.77.77,0,0,0,.067-.192c.1-.833.2-1.694.269-2.544.01-.119.018-.238.027-.358a4.8,4.8,0,0,1,.46-2.057.157.157,0,0,0,0-.028.261.261,0,0,0-.045-.007l-.038.029a1.637,1.637,0,0,0-.475.469c-.17.337-.312.7-.45,1.054-.08.2-.16.409-.245.611a2.383,2.383,0,0,1-.2.355c-.03.045-.059.091-.087.137l-.126.212-.2-.146c-.047-.034-.1-.066-.151-.1a1.154,1.154,0,0,1-.4-.34,1.7,1.7,0,0,1-.09-.162c-.083.395-.162.775-.236,1.156.032-.061.066-.118.1-.171s.052-.085.076-.129Zm2.408-2.735h0" transform="translate(-80.662 -108.523)"/><path d="M311.412,120.1l-1.03,1.224c.978,1.387.806,2.083-.717,2.619a6.132,6.132,0,0,0-.008-1c-.24-1.4-1.57-1.636-2.643-1.194a3.563,3.563,0,0,0-.454.256c-.249.149-.388.094-.386-.21,0-.248.022-.5.019-.743-.007-.544-.166-.708-.7-.809a2.814,2.814,0,0,1-.959-.362,2.965,2.965,0,0,1,.429-.118c.388-.048.781-.067,1.168-.121a.586.586,0,0,1,.7.374,1.194,1.194,0,0,0,1.262.782,7.018,7.018,0,0,0,2.837-.7,3.14,3.14,0,0,1,.429-.118l.049.12" transform="translate(-258.856 -101.689)"/><path d="M306.275,122.988v-.318c0-.117,0-.232.01-.345a2.988,2.988,0,0,0-.014-.616,1.359,1.359,0,0,0-.668-1.024,1.963,1.963,0,0,0-1.667,0,2.23,2.23,0,0,0-.312.172l-.113.069a.5.5,0,0,1-.52.064.491.491,0,0,1-.207-.468c0-.113.005-.226.01-.339.005-.138.01-.269.009-.4-.005-.425-.077-.508-.514-.591a3.014,3.014,0,0,1-1.034-.39l-.442-.268.5-.141c.042-.012.083-.025.125-.039a1.8,1.8,0,0,1,.338-.086c.18-.023.361-.039.542-.055.205-.018.418-.037.622-.066a.811.811,0,0,1,.943.513.967.967,0,0,0,1.055.64,6.843,6.843,0,0,0,2.747-.685,1.862,1.862,0,0,1,.33-.1c.043-.01.087-.02.129-.031l.192-.051.175.43-1.007,1.2a2.046,2.046,0,0,1,.5,1.721c-.146.457-.6.806-1.425,1.1Zm-1.45-2.935a2.054,2.054,0,0,1,.994.24,1.811,1.811,0,0,1,.894,1.342,3.335,3.335,0,0,1,.021.705c.485-.207.754-.429.837-.69.106-.331-.065-.8-.538-1.468l-.1-.142.8-.955a7.113,7.113,0,0,1-2.771.67h-.035a1.415,1.415,0,0,1-1.469-.923c-.059-.148-.157-.278-.463-.235-.216.03-.434.05-.645.068l-.256.023c.088.025.178.047.274.065.65.123.872.382.88,1.027,0,.143,0,.285-.009.423,0,.108-.009.216-.009.324,0,.015,0,.028,0,.04l.045-.025.106-.065a2.588,2.588,0,0,1,.378-.206,2.8,2.8,0,0,1,1.062-.218" transform="translate(-255.691 -100.417)"/><path d="M375.4,197.052c-.047-.479-.116-.957-.135-1.437-.025-.612.025-1.229-.021-1.838a7.355,7.355,0,0,0-.264-1.446c-.139-.492-.172-.483.241-.762l-1.16-.761.071-.114,2.077-.553-.467,2.8,2.559-1.448.134.136a8.022,8.022,0,0,1-.462.838,6.812,6.812,0,0,1-.78.941,4.216,4.216,0,0,0-1.08,2.282,10.844,10.844,0,0,1-.492,1.4l-.22-.032" transform="translate(-317.948 -161.619)"/><path d="M374.026,195.592l-.576-.085-.017-.175c-.014-.146-.031-.292-.047-.439-.037-.33-.076-.671-.089-1.011-.011-.274-.008-.551,0-.818,0-.334.009-.68-.016-1.013a7.121,7.121,0,0,0-.256-1.4l-.026-.092c-.109-.381-.113-.532.093-.719l-1.076-.706.234-.376,2.5-.666-.447,2.677,2.3-1.3.372.378-.079.146c-.046.084-.089.17-.132.257a4.637,4.637,0,0,1-.344.6,6.923,6.923,0,0,1-.807.972,3.964,3.964,0,0,0-1.017,2.168,6.131,6.131,0,0,1-.336,1c-.056.141-.113.282-.164.424Zm-1.267-6.506,1.125.738-.28.189a1.456,1.456,0,0,0-.24.181,2.052,2.052,0,0,0,.062.239l.027.094a7.568,7.568,0,0,1,.272,1.49c.026.352.022.708.017,1.052,0,.262-.007.532,0,.794.013.322.05.652.086.972l0-.008a5.714,5.714,0,0,0,.314-.929,4.452,4.452,0,0,1,1.143-2.4,6.5,6.5,0,0,0,.754-.91,3.52,3.52,0,0,0,.256-.441l-2.6,1.472.487-2.918Z" transform="translate(-316.209 -159.877)"/><path d="M236.163,72.349a3.287,3.287,0,0,1-.118.561,11.034,11.034,0,0,1-1.838,3.1.327.327,0,0,1-.093.092c-.706.33-.789,1.005-.951,1.652-.031.125-.258.315-.356.294a19.271,19.271,0,0,0-4.039-.238c-.057,0-.114-.009-.319-.025.133-.151.2-.293.289-.315,1.107-.271,2.222-.509,3.326-.792a1.576,1.576,0,0,0,.613-.409,1,1,0,0,0,.212-.425,1.667,1.667,0,0,1,1.058-1.135,1.681,1.681,0,0,0,.916-.879,11.32,11.32,0,0,1,.719-1.141,2.666,2.666,0,0,1,.464-.41l.114.071" transform="translate(-194.183 -61.436)"/><path d="M230.169,76.7a.291.291,0,0,1-.06-.006,15.807,15.807,0,0,0-3.378-.233c-.205,0-.41,0-.615,0-.039,0-.079,0-.155-.01l-.18-.015-.45-.035.3-.338c.042-.048.076-.094.107-.136a.55.55,0,0,1,.3-.249c.464-.113.928-.221,1.393-.329.634-.147,1.29-.3,1.93-.463a1.4,1.4,0,0,0,.516-.356.889.889,0,0,0,.151-.327,1.883,1.883,0,0,1,1.2-1.281,1.484,1.484,0,0,0,.794-.774,11.572,11.572,0,0,1,.734-1.164,1.619,1.619,0,0,1,.357-.336c.049-.037.1-.074.143-.113l.125-.108.387.241-.031.153c-.011.056-.02.113-.029.17a1.942,1.942,0,0,1-.1.429,11.311,11.311,0,0,1-1.876,3.162l-.013.016a.437.437,0,0,1-.156.134c-.532.248-.646.732-.777,1.291-.017.07-.033.141-.051.211a.706.706,0,0,1-.561.466m-3.041-.69a14.624,14.624,0,0,1,3.036.236.408.408,0,0,0,.132-.127c.015-.061.031-.13.047-.2a2.023,2.023,0,0,1,1.006-1.587l.013-.017.021-.025a10.861,10.861,0,0,0,1.8-3.037.844.844,0,0,0,.037-.121.7.7,0,0,0-.1.112,11.127,11.127,0,0,0-.7,1.119,1.912,1.912,0,0,1-1.039.983,1.435,1.435,0,0,0-.919.992,1.182,1.182,0,0,1-.273.521,1.747,1.747,0,0,1-.711.462c-.645.165-1.3.318-1.941.465q-.479.111-.958.224h.557" transform="translate(-191.531 -59.859)"/><path d="M181.443,381.48a1.977,1.977,0,0,1,.259-.449c.586-.587,1.18-1.168,1.789-1.732a.774.774,0,0,1,1.069-.061,3.625,3.625,0,0,1,.42.312,4.809,4.809,0,0,0,3.036,1.252,2.281,2.281,0,0,1,.341.107,4.205,4.205,0,0,1-.474.142,22.293,22.293,0,0,0-2.2.392,1.738,1.738,0,0,1-1.867-.538c-.083-.1-.383-.11-.544-.052-.584.209-1.151.465-1.724.7l-.1-.075" transform="translate(-154.227 -322.195)"/><path d="M179.848,380.537l-.37-.264.1-.176c.024-.043.046-.089.067-.135a1.238,1.238,0,0,1,.228-.363c.66-.662,1.248-1.23,1.8-1.738a1,1,0,0,1,1.354-.078c.042.03.085.059.128.088a2.166,2.166,0,0,1,.318.245,4.516,4.516,0,0,0,2.9,1.189.943.943,0,0,1,.232.063c.042.015.092.033.155.053l.686.219-.689.21c-.074.023-.137.044-.194.063a1.891,1.891,0,0,1-.311.086l-.471.071a16.271,16.271,0,0,0-1.708.316,1.957,1.957,0,0,1-2.087-.6.567.567,0,0,0-.3,0c-.417.15-.835.327-1.24.5l-.473.2Zm2-1.219a.606.606,0,0,1,.473.171,1.529,1.529,0,0,0,1.636.462,15.5,15.5,0,0,1,1.628-.307,4.59,4.59,0,0,1-2.43-1.207,1.829,1.829,0,0,0-.254-.193c-.048-.032-.1-.064-.141-.1a.554.554,0,0,0-.784.044c-.538.5-1.115,1.057-1.763,1.706l.05-.021c.411-.174.835-.355,1.264-.509a1.02,1.02,0,0,1,.321-.048" transform="translate(-152.556 -320.922)"/><path d="M298.014,59.6c-.179-.093-.356-.19-.538-.278a.474.474,0,0,0-.683.158.464.464,0,0,0,.157.711,2.449,2.449,0,0,0,.787.36c.314.062.352.219.347.483-.027,1.677-.233,1.8-1.789,1.816-.6,0-.6,0-1.061-.442.71-.372.72-.72,1.665-.006a.625.625,0,0,0,.565-.066.457.457,0,0,0,.083-.693,2.2,2.2,0,0,0-1.578-.718c-.157-.023-.314-.046-.469-.077-.561-.112-.589-.13-.295-.6a10,10,0,0,1,1.019-1.395.8.8,0,0,1,1.113-.064c.293.2.654.35.77.722Z" transform="translate(-250.767 -49.803)"/><path d="M294.9,61.79c-.541,0-.621-.049-1.088-.493l-.239-.227.278-.146c.136-.071.247-.143.344-.206.494-.32.757-.386,1.552.214a.51.51,0,0,0,.307-.062.249.249,0,0,0,.109-.159.291.291,0,0,0-.072-.214,2,2,0,0,0-1.432-.633c-.163-.024-.322-.048-.48-.079-.331-.066-.55-.109-.634-.3s.037-.391.192-.639a10.068,10.068,0,0,1,1.043-1.426,1.021,1.021,0,0,1,1.407-.1c.053.036.108.07.164.1a1.371,1.371,0,0,1,.695.738l.04.131-.307.3-.312-.163c-.121-.064-.242-.128-.365-.187-.222-.106-.314-.053-.4.076a.323.323,0,0,0-.063.225.317.317,0,0,0,.15.174,2.27,2.27,0,0,0,.711.33.6.6,0,0,1,.529.707c-.028,1.756-.291,2.023-2.012,2.037H294.9m-.569-.625c.206.179.291.178.684.175.2,0,.371,0,.522-.01a.358.358,0,0,1-.052-.033c-.626-.473-.7-.426-1.045-.2l-.109.07M294,59.284c.075.021.186.043.268.059.147.029.3.052.457.075a2.394,2.394,0,0,1,1.725.8.857.857,0,0,1,.108.182c.015-.182.021-.4.025-.658,0-.219-.011-.228-.166-.259a2.651,2.651,0,0,1-.863-.39.686.686,0,0,1-.227-1.024.669.669,0,0,1,.693-.331l-.084-.054a.6.6,0,0,0-.82.028,9.653,9.653,0,0,0-1,1.363c-.029.047-.085.137-.12.2" transform="translate(-249.489 -48.521)"/><path d="M226.818,397.816c-.205.528-.191,1.161-.8,1.493a.5.5,0,0,1-.712-.174c-.018-.023-.032-.049-.048-.073-.775-1.182-1.283-1.287-2.469-.513a2.58,2.58,0,0,0-.253.172c-.258.218-.429.132-.6-.129a6.3,6.3,0,0,0-.555-.728,1.135,1.135,0,0,0-1.626-.265c-.621.338-1.257.649-1.894.957a1.456,1.456,0,0,1-.411.066c-.016-.726.232-1.035.858-1.141.813-.138,1.623-.3,2.437-.425a1.1,1.1,0,0,1,.974.388,2.76,2.76,0,0,0,.537.445.874.874,0,0,0,1.087-.062c.56-.459.851-.454,1.436-.013.07.052.134.113.2.168.611.5.675.492,1.3-.01a3.45,3.45,0,0,1,.427-.256l.108.1" transform="translate(-184.834 -337.487)"/><path d="M224.448,398.343a.744.744,0,0,1-.6-.348c-.016-.021-.029-.042-.043-.064l-.013-.021c-.709-1.081-1.072-1.156-2.158-.448l-.067.043a1.525,1.525,0,0,0-.163.113.6.6,0,0,1-.482.171.692.692,0,0,1-.448-.352,5.98,5.98,0,0,0-.536-.7.919.919,0,0,0-1.348-.215c-.622.338-1.255.648-1.9.962a.945.945,0,0,1-.356.075c-.04,0-.081.006-.12.011l-.252.037-.006-.255c-.018-.831.295-1.24,1.045-1.368.327-.056.653-.115.979-.173.478-.086.972-.175,1.461-.253a1.3,1.3,0,0,1,1.169.451,2.555,2.555,0,0,0,.492.41.65.65,0,0,0,.83-.041,1.142,1.142,0,0,1,1.715-.019c.046.034.09.072.133.109l.075.063a1.294,1.294,0,0,0,.5.319h0c.1,0,.276-.137.515-.33a2.016,2.016,0,0,1,.324-.2c.044-.024.088-.047.131-.072l.144-.085.343.317-.055.143a3.871,3.871,0,0,0-.122.4,1.683,1.683,0,0,1-.782,1.208.845.845,0,0,1-.4.112m-1.726-1.788c.527,0,.953.358,1.445,1.108l.018.029c.007.011.014.022.022.033.138.184.241.211.424.111a1.272,1.272,0,0,0,.562-.929l.023-.087a.82.82,0,0,0-.07.051c-.71.572-.888.574-1.582.009l-.085-.071c-.036-.031-.073-.063-.111-.091-.449-.339-.637-.378-1-.114a1.39,1.39,0,0,1,.354-.049M219.75,396a1.82,1.82,0,0,1,.527.436,6.4,6.4,0,0,1,.575.755c.09.141.136.149.137.149s.051-.009.124-.071a1.891,1.891,0,0,1,.213-.149l.061-.039.139-.088a1.248,1.248,0,0,1-.658-.19,2.953,2.953,0,0,1-.583-.481,1.04,1.04,0,0,0-.535-.322m-1.572.226-.123.022c-.328.059-.655.118-.983.174-.4.067-.62.2-.664.672a.281.281,0,0,0,.081-.021c.575-.278,1.138-.554,1.689-.847" transform="translate(-183.558 -336.21)"/><path d="M424.865,324.63l-.548-1.144a2.425,2.425,0,0,1,2.776-.264,3.743,3.743,0,0,1,1.961,3.3c-.445-.382-.856-.745-1.278-1.094-.212-.175-.455-.313-.665-.49a.814.814,0,0,1-.175-.307c-.082-.19-.12-.527-.232-.551a1.643,1.643,0,0,0-.85.068,7.768,7.768,0,0,0-.988.487" transform="translate(-360.669 -274.479)"/><path d="M427.725,325.739l-.363-.312-.385-.332c-.305-.264-.593-.514-.889-.758-.1-.079-.2-.151-.309-.226s-.242-.168-.358-.266a.861.861,0,0,1-.219-.346l-.018-.044a2.084,2.084,0,0,1-.084-.258c-.014-.051-.035-.127-.053-.174a1.465,1.465,0,0,0-.665.072,4.475,4.475,0,0,0-.685.327c-.094.052-.186.1-.275.147l-.205.1-.717-1.5.116-.113a2.654,2.654,0,0,1,3.025-.308,3.971,3.971,0,0,1,2.093,3.506Zm-2.852-3.179a1.56,1.56,0,0,1,.333.034c.205.046.267.267.327.482a1.788,1.788,0,0,0,.064.2l.021.049a.589.589,0,0,0,.093.175c.1.084.209.16.325.24s.228.158.339.249c.292.241.574.485.872.743a3.513,3.513,0,0,0-1.79-2.567,2.251,2.251,0,0,0-2.408.115l.373.78.058-.032a4.905,4.905,0,0,1,.755-.359,1.988,1.988,0,0,1,.639-.109" transform="translate(-359.124 -273.217)"/><path d="M123.965,327.6a5.083,5.083,0,0,1,.3.56.98.98,0,0,1,0,.346,1.094,1.094,0,0,1-.311-.062,1.75,1.75,0,0,1-.8-1.673c-.035-.721.083-1.469-.566-2.048l.1-.09c.474.066.951.118,1.42.209.073.014.142.2.161.309.047.286.046.58.1.865s.1.573.536.6c.539.031.82.648.6,1.245-.472-.2-.918-.591-1.546-.259" transform="translate(-104.203 -275.937)"/><path d="M122.56,327.433l-.263-.049c-.027-.005-.056-.008-.084-.011a.775.775,0,0,1-.291-.074,1.961,1.961,0,0,1-.919-1.861c-.006-.122-.008-.245-.009-.367a1.823,1.823,0,0,0-.482-1.523l-.191-.17.374-.324.1.014.349.047c.355.047.722.095,1.083.165.26.05.333.448.34.493.024.144.036.288.047.427s.025.294.05.433c.057.312.084.4.328.414a.888.888,0,0,1,.7.412,1.276,1.276,0,0,1,.095,1.135l-.081.222-.218-.092c-.1-.043-.2-.094-.3-.143a1.208,1.208,0,0,0-.835-.209,2.707,2.707,0,0,1,.184.363.709.709,0,0,1,.026.339c0,.031-.006.062-.006.092Zm-1.444-3.869a2.661,2.661,0,0,1,.327,1.5c0,.117,0,.235.009.351.035.725.156,1.2.673,1.481a2.759,2.759,0,0,0-.188-.358c-.033-.057-.067-.115-.1-.174l-.111-.2.2-.107a1.453,1.453,0,0,1,1.471.122l.026.013a.758.758,0,0,0-.105-.487.444.444,0,0,0-.354-.21c-.607-.035-.689-.48-.743-.774a4.8,4.8,0,0,1-.058-.485c-.011-.136-.022-.265-.043-.392a.561.561,0,0,0-.043-.136c-.318-.059-.645-.1-.963-.144" transform="translate(-102.271 -274.595)"/><path d="M79.294,123.476a6.961,6.961,0,0,0-1.39-3.1l.068-.1a4.708,4.708,0,0,0,.511.188,1.626,1.626,0,0,0,.616.076c.061-.01.129-.3.109-.453q-.16-1.225-.369-2.443c-.081-.47.11-.755.574-.719.358.027.3.314.215.53a4.534,4.534,0,0,0-.035,2.319.843.843,0,0,0,.085.193l.424-.258.123.041-.73,3.694-.2.036" transform="translate(-66.218 -99.381)"/><path d="M77.514,122.459l-.049-.206a6.662,6.662,0,0,0-1.341-3.008l-.115-.131.266-.39.165.062c.054.02.108.042.162.064a2.393,2.393,0,0,0,.324.115l.022.005a1.984,1.984,0,0,0,.4.073.682.682,0,0,0,.022-.207c-.109-.836-.233-1.655-.368-2.434a.862.862,0,0,1,.16-.765.755.755,0,0,1,.653-.216.5.5,0,0,1,.419.223.664.664,0,0,1-.013.616,3.454,3.454,0,0,0-.069,1.823c.012.088.024.177.035.265l.272-.166.41.138-.8,4.039Zm-.7-3.057a7.167,7.167,0,0,1,.951,2.205l.556-2.81-.354.215-.1-.232c-.012-.026-.023-.048-.034-.067s-.016-.029-.023-.045l.015.11c.011.085.013.656-.3.7a1.752,1.752,0,0,1-.683-.075l-.021-.005h0m.913-3.534a.309.309,0,0,0-.228.073.475.475,0,0,0-.049.386q.093.542.18,1.108a2.956,2.956,0,0,1,.179-1.343c.065-.16.046-.212.046-.212s-.022-.006-.07-.009l-.058,0" transform="translate(-64.609 -98.106)"/><path d="M112.35,187.63a30.381,30.381,0,0,1-.064-4.56c.143.088.226.133.3.189s.153.127.289.243c.2-.321.38-.628.589-.911a2.19,2.19,0,0,1,.4-.337c.033.178.132.375.088.532-.293,1.056-.62,2.1-.929,3.155-.165.564-.316,1.133-.473,1.7l-.2-.01" transform="translate(-95.376 -154.916)"/><path d="M111.447,185.522l-.592-.029,0-.209c-.01-.462-.04-.935-.068-1.392a17.077,17.077,0,0,1,.006-3.2l.043-.349.3.185.125.076c.075.045.134.08.192.123.035.025.068.052.1.083l.036-.058c.139-.226.271-.439.424-.645a1.375,1.375,0,0,1,.318-.286c.041-.03.083-.06.122-.091l.294-.241.069.374c.009.049.024.1.039.15a.871.871,0,0,1,.045.482c-.19.685-.4,1.376-.6,2.045-.111.371-.223.742-.332,1.113-.114.387-.222.783-.327,1.167q-.072.265-.146.529Zm-.249-4.42a18.717,18.717,0,0,0,.034,2.761c.013.2.025.407.037.613.086-.315.175-.635.268-.95.109-.373.221-.744.332-1.116.2-.666.407-1.355.6-2.036a.218.218,0,0,0,0-.089.536.536,0,0,0-.086.088c-.142.191-.269.4-.4.614-.057.093-.116.188-.177.284l-.138.217-.2-.166-.121-.1c-.055-.047-.1-.084-.139-.116" transform="translate(-94.102 -152.564)"/><path d="M314.242,386.433a4.422,4.422,0,0,1-.777-.283c-.565-.352-1.116-.73-1.661-1.113a2.823,2.823,0,0,1-.379-.39,4.067,4.067,0,0,0,.413-.242,3.109,3.109,0,0,0,.414-.372c.2-.211.36-.457.573-.648a1.35,1.35,0,0,1,.458-.167,2.281,2.281,0,0,1,.054.521c-.027.228-.124.446-.169.672a.427.427,0,0,0,.3.574c.6.216.681.757.777,1.448" transform="translate(-264.711 -325.735)"/><path d="M312.474,385.052l-.349-.123c-.111-.039-.213-.07-.3-.1a2.094,2.094,0,0,1-.517-.206c-.6-.371-1.179-.774-1.671-1.12a1.682,1.682,0,0,1-.305-.3c-.035-.041-.07-.082-.107-.121l-.2-.207.248-.143c.045-.026.09-.05.135-.074a2.042,2.042,0,0,0,.256-.153,2.886,2.886,0,0,0,.384-.344c.072-.077.139-.16.21-.247a3.489,3.489,0,0,1,.378-.415.893.893,0,0,1,.4-.176c.045-.011.09-.022.133-.036l.264-.09.033.277c.006.049.015.1.023.149a1.446,1.446,0,0,1,.03.425,2.459,2.459,0,0,1-.1.421c-.028.093-.054.182-.072.268-.04.2-.015.258.152.318.734.263.826.926.924,1.628Zm-2.736-2.06a.939.939,0,0,0,.153.144c.487.342,1.064.74,1.651,1.106a1.651,1.651,0,0,0,.382.149c-.085-.494-.2-.776-.577-.911a.652.652,0,0,1-.441-.829c.021-.108.052-.211.082-.311a2.134,2.134,0,0,0,.084-.345.806.806,0,0,0-.013-.212.352.352,0,0,0-.126.053,3.144,3.144,0,0,0-.329.364c-.073.089-.148.181-.229.269a3.328,3.328,0,0,1-.444.4,1.8,1.8,0,0,1-.193.124" transform="translate(-262.67 -324.019)"/><path d="M148.583,361.52a5,5,0,0,0,3.261,3.145,2.089,2.089,0,0,1-1.794-.005,3.408,3.408,0,0,1-.667-.447c-.364-.355-.425-.358-.733.037a1.863,1.863,0,0,1-.436.3l.369-3.03" transform="translate(-125.982 -307.292)"/><path d="M149.223,360.206a1.709,1.709,0,0,1-.888-.237l-.113-.066a2.9,2.9,0,0,1-.6-.414,1.861,1.861,0,0,0-.219-.191,1.508,1.508,0,0,0-.179.206,1.073,1.073,0,0,1-.338.258c-.049.028-.1.057-.151.091l-.407.271.53-4.35.329.774a4.779,4.779,0,0,0,3.118,3.017l.706.208-.7.222a3.661,3.661,0,0,1-1.088.212m-1.82-1.366c.186,0,.335.131.536.327a2.526,2.526,0,0,0,.507.347l.117.068a1.349,1.349,0,0,0,.916.155,5.023,5.023,0,0,1-2.368-2.309l-.215,1.768c.158-.2.289-.341.478-.354h.028" transform="translate(-124.381 -302.406)"/><path d="M160.945,358.944a7.413,7.413,0,0,1-1.229-.316,3.02,3.02,0,0,1-1.773-1.509,1.747,1.747,0,0,0-.4-.513c-.4-.4-.4-.577.039-1,.556.551,1.1,1.115,1.673,1.649s1.155,1.017,1.735,1.523l-.046.164" transform="translate(-133.663 -302.267)"/><path d="M159.829,357.432l-.212-.052c-.125-.031-.252-.056-.38-.082a4.225,4.225,0,0,1-.887-.247,3.255,3.255,0,0,1-1.89-1.628,1.588,1.588,0,0,0-.35-.441.938.938,0,0,1-.359-.644,1.011,1.011,0,0,1,.4-.674l.158-.153.156.155q.256.253.509.509c.376.377.764.768,1.159,1.135s.8.713,1.193,1.054q.269.231.537.464l.107.093Zm-3.517-3.286a.4.4,0,0,0-.111.2c0,.093.171.265.227.322a1.938,1.938,0,0,1,.446.584,2.832,2.832,0,0,0,1.657,1.391,3.2,3.2,0,0,0,.643.187l-.141-.121c-.4-.344-.813-.7-1.206-1.066s-.792-.767-1.171-1.147l-.345-.346" transform="translate(-132.389 -300.484)"/><path d="M222.532,90.827a13.822,13.822,0,0,1,1.351-1.071,1.619,1.619,0,0,1,1.767-.033.563.563,0,0,0,.748-.033,2.481,2.481,0,0,1,.558-.241,1.625,1.625,0,0,1-1.156.915c-.617.192-1.234.393-1.864.531a11.01,11.01,0,0,1-1.347.134l-.058-.2" transform="translate(-189.152 -76.032)"/><path d="M220.966,88.84l-.15-.523.116-.094c.136-.109.268-.223.4-.337a7.921,7.921,0,0,1,.974-.751,1.84,1.84,0,0,1,2-.034c.21.127.324.124.487-.013a1.182,1.182,0,0,1,.385-.189c.068-.024.145-.051.232-.087l.53-.221-.239.522a1.839,1.839,0,0,1-1.294,1.036l-.206.064c-.544.17-1.107.346-1.677.471a6.27,6.27,0,0,1-.963.109c-.138.008-.275.017-.412.029Zm2.381-1.568a1.542,1.542,0,0,0-.8.246,7.46,7.46,0,0,0-.917.709l-.14.12.05,0a5.837,5.837,0,0,0,.894-.1c.55-.12,1.1-.294,1.639-.461l.206-.064c.078-.024.154-.049.228-.077a1,1,0,0,1-.428-.156,1.387,1.387,0,0,0-.728-.214" transform="translate(-187.694 -73.602)"/><path d="M46.33,336.177a1.882,1.882,0,0,1-1.347-1.256,6.422,6.422,0,0,1-.025-1.563l.108-.033c.61,1.005,1.227,2.006,1.825,3.018.122.206.244.488-.03.654a.6.6,0,0,1-.507-.056c-.281-.169-.183-.417-.043-.644a.44.44,0,0,0,.019-.12" transform="translate(-38.182 -283.326)"/><path d="M45.426,335.748a.972.972,0,0,1-.463-.123.56.56,0,0,1-.274-.348.7.7,0,0,1,.081-.475,1.994,1.994,0,0,1-1.28-1.335,3.7,3.7,0,0,1-.051-1.144c.01-.165.019-.321.019-.475v-.167l.434-.133.566.93c.446.732.908,1.49,1.352,2.241.339.573.079.848-.107.961a.531.531,0,0,1-.277.068m-.149-1.045c0,.018,0,.033,0,.045a.334.334,0,0,1-.045.157c-.1.168-.108.238-.1.265s.041.052.069.069a.464.464,0,0,0,.279.054c.045-.028.112-.069-.051-.345l-.145-.245m-1.392-2.3a3.139,3.139,0,0,0,.041.952,1.689,1.689,0,0,0,1.2,1.1h0c-.35-.586-.707-1.171-1.055-1.742Z" transform="translate(-36.907 -281.816)"/><path d="M353.705,459.345a.792.792,0,0,1-.976.111c-.745-.447-1.489-.9-2.219-1.366-.512-.329-.533-.572-.141-1.035.166-.2.336-.391.58-.675-.025.523-.557,1.034.144,1.319.415.169.534-.209.764-.578.31,1.052.531,2.1,1.848,2.225" transform="translate(-297.583 -387.922)"/><path d="M351.854,456.161a1,1,0,0,1-.517-.153c-.713-.428-1.472-.886-2.225-1.37a.988.988,0,0,1-.509-.616,1,1,0,0,1,.318-.754c.11-.13.221-.258.353-.412l.655-.76-.031.653a1.912,1.912,0,0,1-.128.535c-.134.386-.136.456.132.565.135.055.174.054.381-.307.034-.059.069-.121.107-.182l.265-.426.2.672c.286.989.513,1.77,1.6,1.875l.564.054-.447.347a1.165,1.165,0,0,1-.713.279m-2.621-2.565c-.134.165-.2.286-.185.36s.115.18.307.3c.622.4,1.251.783,1.854,1.146a3.206,3.206,0,0,1-.7-1.377.594.594,0,0,1-.776.236.657.657,0,0,1-.5-.67" transform="translate(-296.307 -384.282)"/><path d="M419.542,98.243a4.765,4.765,0,0,0-.118-1.264,4.075,4.075,0,0,0-.721-.951c1.055-.541,1.15-.333,1.988.408a.461.461,0,0,1,.117.309,1.964,1.964,0,0,1-1.266,1.5" transform="translate(-355.898 -81.366)"/><path d="M417.372,97.247l-.019-.254c-.01-.143-.012-.285-.014-.422a2.394,2.394,0,0,0-.09-.78,2.041,2.041,0,0,0-.429-.593c-.086-.1-.175-.193-.258-.3l-.17-.215.244-.125c1.064-.546,1.324-.38,2.059.279l.18.16a.679.679,0,0,1,.193.474,2.165,2.165,0,0,1-1.446,1.722Zm-.274-2.413.056.061a2.389,2.389,0,0,1,.517.738,2.743,2.743,0,0,1,.119.932c0,.027,0,.054,0,.081a1.811,1.811,0,0,0,.828-1.164.281.281,0,0,0-.042-.146l-.181-.161c-.588-.527-.7-.624-1.3-.341" transform="translate(-353.934 -80.098)"/><path d="M297.425,97.109a.788.788,0,0,1-.114-.261,6.423,6.423,0,0,1,.342-3.038c.049-.1.156-.25.241-.254.546-.023,1.093-.012,1.693-.012-.079.09-.124.191-.181.2a1.409,1.409,0,0,0-1.112,1c-.25.621-.381,1.289-.571,1.935-.046.158-.12.308-.181.462l-.117-.029" transform="translate(-252.692 -79.511)"/><path d="M296.4,96.128l-.413-.1-.045-.1c-.01-.021-.022-.042-.035-.064a.6.6,0,0,1-.1-.284q0-.153-.01-.307a5.917,5.917,0,0,1,.374-2.834c.029-.062.188-.372.435-.382.414-.017.825-.015,1.26-.013h.939l-.327.373a.893.893,0,0,0-.057.075.4.4,0,0,1-.264.2,1.171,1.171,0,0,0-.933.857,10.616,10.616,0,0,0-.388,1.267c-.055.213-.113.432-.176.648a3.127,3.127,0,0,1-.13.343c-.02.046-.039.093-.058.139Zm.264-3.623a.517.517,0,0,0-.086.127,5.493,5.493,0,0,0-.33,2.626s0,.008,0,.012c.054-.188.1-.381.153-.568a10.961,10.961,0,0,1,.406-1.321,1.933,1.933,0,0,1,.65-.889h-.005c-.268,0-.528,0-.787.013" transform="translate(-251.417 -78.237)"/><path d="M120.857,144.809a7.072,7.072,0,0,1-1.976,3.7c.152-.725.306-1.335.4-1.954.085-.558.212-1.032.838-1.231a3.259,3.259,0,0,0,.738-.52" transform="translate(-101.049 -123.088)"/><path d="M116.4,146.471l.151-.723c.048-.228.1-.444.142-.653.1-.448.193-.871.257-1.289a1.476,1.476,0,0,1,.992-1.411,1.364,1.364,0,0,0,.4-.267c.082-.068.175-.146.279-.221l.41-.3-.054.5a7.3,7.3,0,0,1-2.043,3.842Zm2.006-3.822a1.151,1.151,0,0,1-.328.175c-.468.149-.593.457-.683,1.05-.056.371-.135.74-.219,1.124a7.417,7.417,0,0,0,1.23-2.349" transform="translate(-98.943 -120.368)"/><path d="M85.568,310.779c-.214-.063-.415-.064-.52-.165a1.589,1.589,0,0,0-1.088-.358c-.341-.027-.675-.126-1.015-.176a.706.706,0,0,0-.258.071l-.481.139a2.235,2.235,0,0,1,.85-1.285.516.516,0,0,1,.374.15,2.132,2.132,0,0,0,1.662.713c.3,0,.422.237.477.911" transform="translate(-69.875 -262.654)"/><path d="M84.545,309.814l-.315-.093c-.065-.019-.128-.032-.187-.044a.806.806,0,0,1-.425-.175,1.338,1.338,0,0,0-.919-.293l-.031,0a5.091,5.091,0,0,1-.631-.1c-.138-.029-.268-.056-.4-.075a.291.291,0,0,1-.057.026,1.1,1.1,0,0,1-.105.038l-.763.221-.006-.294c-.007-.372.656-1.479,1.055-1.514a.741.741,0,0,1,.56.223,1.918,1.918,0,0,0,1.5.639c.61,0,.667.7.7,1.118Zm-2.9-1.234a.356.356,0,0,1,.055,0c.145.021.288.051.426.079a4.685,4.685,0,0,0,.575.1l.031,0a1.745,1.745,0,0,1,1.2.418.3.3,0,0,0,.1.037c-.063-.4-.157-.4-.218-.4a2.345,2.345,0,0,1-1.828-.787.315.315,0,0,0-.171-.077,2.5,2.5,0,0,0-.543.727l.074-.021c.021-.006.041-.015.062-.023a.623.623,0,0,1,.237-.058" transform="translate(-68.601 -261.379)"/><path d="M382.236,167.534a2.112,2.112,0,0,1-.132,2.086c-.077.136-.306.186-.464.275-.094-.178-.3-.386-.261-.527.1-.365-.006-.518-.344-.543-.108-.6.273-1.007,1.2-1.291" transform="translate(-323.865 -142.404)"/><path d="M380.274,168.668l-.108-.2a1.675,1.675,0,0,0-.1-.151.677.677,0,0,1-.182-.542c.047-.172.02-.217.02-.217s-.028-.032-.164-.041l-.174-.013-.031-.172c-.193-1.072.973-1.429,1.356-1.546l.183-.056.084.172a2.317,2.317,0,0,1-.138,2.3.775.775,0,0,1-.408.295,1.442,1.442,0,0,0-.142.066Zm.053-.8a1.156,1.156,0,0,0,.113.187l.009.013a.657.657,0,0,0,.185-.1,1.9,1.9,0,0,0,.2-1.7c-.712.254-.871.546-.87.819a.524.524,0,0,1,.309.2.687.687,0,0,1,.052.576" transform="translate(-322.589 -140.867)"/><path d="M141.027,25.486l-.8.132c-.164-1.137-.319-2.219-.477-3.314.5.228,1.082.988,1.009,1.413a2.14,2.14,0,0,0,.21,1.5,1.069,1.069,0,0,1,.055.267" transform="translate(-118.79 -18.959)"/><path d="M138.447,23.756l-.568-3.948.374.169c.576.261,1.231,1.111,1.137,1.656a1.918,1.918,0,0,0,.183,1.351.581.581,0,0,1,.064.227c0,.031.009.067.017.11l.044.227Zm.01-3.087.369,2.567.341-.057a2.342,2.342,0,0,1-.221-1.623,1.412,1.412,0,0,0-.489-.888" transform="translate(-117.197 -16.837)"/><path d="M105.375,296.609a3.336,3.336,0,0,1,.8,1.918c-.013.2.273.43.44.631.126.151.3.264.415.421a.31.31,0,0,1,0,.3.4.4,0,0,1-.316.018,1.446,1.446,0,0,1-1.1-1.691,1.018,1.018,0,0,0-.426-1.06c-.265-.174-.056-.369.18-.538" transform="translate(-89.311 -252.118)"/><path d="M105.6,298.295a.848.848,0,0,1-.227-.033,1.661,1.661,0,0,1-1.254-1.924.8.8,0,0,0-.325-.854.435.435,0,0,1-.225-.358c0-.231.188-.4.4-.551l.2-.144.125.213c.075.129.159.257.24.381a2.639,2.639,0,0,1,.592,1.664c0,.06.155.22.236.305.054.057.107.113.152.168a1.739,1.739,0,0,0,.17.168,1.773,1.773,0,0,1,.253.264.512.512,0,0,1-.034.6.457.457,0,0,1-.3.1m-1.029-2.279a2.209,2.209,0,0,1,0,.359,1.228,1.228,0,0,0,.937,1.457.312.312,0,0,0,.054.011,1.607,1.607,0,0,0-.178-.178,2.117,2.117,0,0,1-.214-.214c-.039-.047-.086-.1-.133-.146a.95.95,0,0,1-.359-.644,1.5,1.5,0,0,0-.1-.645m-.536-.911,0,0,.013.009-.012-.02-.006.007" transform="translate(-88.036 -250.266)"/><path d="M206.029,106.073c.423.044.845.087,1.268.133a1.843,1.843,0,0,1,.682.1c.195.111.313.357.464.544-.181.07-.378.225-.54.193a10.562,10.562,0,0,1-1.534-.426c-.167-.06-.281-.267-.419-.407l.079-.133" transform="translate(-175.057 -90.162)"/><path d="M206.35,105.916a.464.464,0,0,1-.088-.008,10.834,10.834,0,0,1-1.567-.435.943.943,0,0,1-.393-.333c-.036-.045-.072-.09-.111-.129l-.122-.123.24-.407.5.052.91.1c.063.007.128.008.194.01a1.218,1.218,0,0,1,.576.114,1.327,1.327,0,0,1,.406.43c.039.058.079.115.122.168l.195.24-.288.111a1.627,1.627,0,0,0-.151.072.95.95,0,0,1-.425.14m-1.592-.936a.272.272,0,0,0,.089.068,10.362,10.362,0,0,0,1.5.417.462.462,0,0,0,.157-.058.874.874,0,0,0-.236-.263.9.9,0,0,0-.367-.056c-.077,0-.154-.005-.228-.013l-.908-.1Z" transform="translate(-173.46 -88.809)"/><path d="M74.287,326.339c.073-.152.129-.268.185-.385a9.121,9.121,0,0,0,.446-.937c.128-.366.318-.488.678-.32a.982.982,0,0,0,.251.045c-.386,1.119-.78,1.54-1.561,1.6" transform="translate(-63.144 -275.93)"/><path d="M71.811,325.316l.354-.736c.048-.1.1-.2.149-.292a4.814,4.814,0,0,0,.288-.621.79.79,0,0,1,.4-.5.707.707,0,0,1,.589.053.451.451,0,0,0,.095.015c.033,0,.066.006.1.012l.263.043-.087.252c-.354,1.025-.771,1.675-1.757,1.748Zm1.4-1.744a.108.108,0,0,0-.041.007c-.028.012-.085.058-.147.236a5.209,5.209,0,0,1-.313.68c-.045.086-.089.172-.132.259.33-.127.592-.425.858-1.112l-.042-.017a.474.474,0,0,0-.183-.053" transform="translate(-61.039 -274.654)"/><path d="M278.952,103.582l1.647-1.618a1.426,1.426,0,0,1-1.647,1.618" transform="translate(-237.109 -86.669)"/><path d="M276.774,101.241a1.292,1.292,0,0,1-.348-.047l-.375-.1,2.229-2.19.075.42a1.667,1.667,0,0,1-.549,1.5,1.548,1.548,0,0,1-1.031.421m1.093-1.305-.833.818a1.186,1.186,0,0,0,.468-.267,1.315,1.315,0,0,0,.364-.551" transform="translate(-234.643 -84.064)"/><path d="M249.677,388.936c.6-.22,1.069-.633,1.713-.576.088.008.22.068.241.133a.348.348,0,0,1-.1.261,1.555,1.555,0,0,1-1.853.182" transform="translate(-212.225 -330.102)"/><path d="M247.585,388.109a1.841,1.841,0,0,1-.948-.256l-.4-.242.438-.162a4.994,4.994,0,0,0,.513-.234,2.349,2.349,0,0,1,1.3-.355.519.519,0,0,1,.435.287.564.564,0,0,1-.146.48,1.584,1.584,0,0,1-1.191.482m-.237-.471a1.23,1.23,0,0,0,1.089-.308l.016-.021h-.007a1.94,1.94,0,0,0-1.056.308l-.042.021" transform="translate(-209.301 -328.827)"/><path d="M284.146,87.16l-1.034.469a8.255,8.255,0,0,1-.3-.855c-.07-.3.124-.456.4-.324.338.16.651.374.975.565l-.043.144" transform="translate(-240.379 -73.443)"/><path d="M281.707,86.657l-.082-.23c-.032-.09-.066-.178-.1-.264a4.69,4.69,0,0,1-.206-.615.485.485,0,0,1,.717-.578,7.369,7.369,0,0,1,.705.4c.1.059.191.118.288.175l.152.09-.124.41Zm.037-1.305c.005,0,0,.033.012.093a4.285,4.285,0,0,0,.188.555l.018.047.587-.267-.045-.028a6.957,6.957,0,0,0-.662-.376.173.173,0,0,0-.1-.024h0" transform="translate(-239.103 -72.166)"/><path d="M379.881,277.971c-.536-.3-.71-.619-.527-.933.141-.242.33-.367.6-.213s.241.663-.077,1.145" transform="translate(-322.391 -235.244)"/><path d="M378.68,277l-.183-.1a1.287,1.287,0,0,1-.689-.715.675.675,0,0,1,.078-.527.619.619,0,0,1,.909-.3.582.582,0,0,1,.276.384,1.462,1.462,0,0,1-.276,1.081Zm-.215-1.288c-.053,0-.113.039-.19.17a.223.223,0,0,0-.032.182.655.655,0,0,0,.286.323.87.87,0,0,0,.105-.537.145.145,0,0,0-.06-.1.23.23,0,0,0-.109-.04" transform="translate(-321.118 -233.972)"/><path d="M71.494,126.271a2.541,2.541,0,0,1,.678-.146c.526.032.379.521.587.94l-1.234-.616-.031-.179" transform="translate(-60.77 -107.206)"/><path d="M71.8,126.291l-1.936-.966-.085-.5.207-.048c.066-.015.132-.036.2-.056a1.53,1.53,0,0,1,.544-.1c.527.032.608.422.668.706a1.5,1.5,0,0,0,.107.359Zm-1.354-1.178.5.247c-.054-.244-.089-.276-.241-.285a.829.829,0,0,0-.254.038" transform="translate(-59.313 -105.93)"/></g></g></svg>