<svg xmlns="http://www.w3.org/2000/svg" width="66" height="66" viewBox="0 0 66 66"><defs><style>.a{fill:none;}.b{font-size:11px;font-family:Arial-BoldMT, Arial;font-weight:700;letter-spacing:0.06em;}</style></defs><g transform="translate(-1.667 -2)"><rect class="a" width="66" height="66" rx="5" transform="translate(1.667 2)"/><path d="M26.25,21.094V1.406A1.4,1.4,0,0,0,24.844,0H5.625A5.626,5.626,0,0,0,0,5.625v18.75A5.626,5.626,0,0,0,5.625,30H24.844a1.4,1.4,0,0,0,1.406-1.406v-.937a1.417,1.417,0,0,0-.521-1.1,13.067,13.067,0,0,1,0-4.377A1.4,1.4,0,0,0,26.25,21.094ZM7.5,7.852A.353.353,0,0,1,7.852,7.5H20.273a.353.353,0,0,1,.352.352V9.023a.353.353,0,0,1-.352.352H7.852A.353.353,0,0,1,7.5,9.023Zm0,3.75a.353.353,0,0,1,.352-.352H20.273a.353.353,0,0,1,.352.352v1.172a.353.353,0,0,1-.352.352H7.852a.353.353,0,0,1-.352-.352ZM22.348,26.25H5.625a1.875,1.875,0,1,1,0-3.75H22.348A21.094,21.094,0,0,0,22.348,26.25Z" transform="translate(21.667 7)"/><text class="b" transform="translate(34.667 58)"><tspan x="-22.787" y="0">História</tspan></text></g></svg>