<svg xmlns="http://www.w3.org/2000/svg" xmlns:xlink="http://www.w3.org/1999/xlink" width="66" height="66" viewBox="0 0 66 66"><defs><style>.a{fill:#e9e9de;}.b{fill:none;}.c{clip-path:url(#a);}.d{fill:#eaeade;font-size:11px;font-family:Arial-BoldMT, Arial;font-weight:700;letter-spacing:0.06em;}</style><clipPath id="a"><rect class="a" width="27.653" height="29.943"/></clipPath></defs><g transform="translate(-2 -2)"><rect class="b" width="66" height="66" rx="5" transform="translate(2 2)"/><g transform="translate(21 8)"><g class="c"><path class="a" d="M4.847,1.609A8.93,8.93,0,0,1,9.288,0a5.872,5.872,0,0,0-.619.4A6.381,6.381,0,0,0,6.433,3.423a.4.4,0,0,0,.052.364.411.411,0,0,0,.323.172,5.527,5.527,0,0,1,4.449,2.268,5.592,5.592,0,0,1-5.339,8.846,5.6,5.6,0,0,1-4.748-5.3A9.768,9.768,0,0,1,4.847,1.609Z" transform="translate(-1.086)"/><path class="a" d="M14.653,260.432a5.579,5.579,0,0,1-2.132,2.484,9.775,9.775,0,0,1-8.906.895A8.886,8.886,0,0,1,0,260.768a6.833,6.833,0,0,0,.659.335,6.345,6.345,0,0,0,3.734.423.4.4,0,0,0,.272-.587,5.588,5.588,0,1,1,9.988-.507Z" transform="translate(0 -234.585)"/><path class="a" d="M211.608,119.689a6.507,6.507,0,0,0-.04-.739,6.378,6.378,0,0,0-1.5-3.447.4.4,0,0,0-.3-.14h-.036a.4.4,0,0,0-.308.2,5.536,5.536,0,0,1-4.189,2.72,5.59,5.59,0,1,1,1.969-10.507,9.775,9.775,0,0,1,5.228,7.264,8.9,8.9,0,0,1-.823,4.653Z" transform="translate(-184.827 -99.493)"/></g></g><text class="d" transform="translate(35 52)"><tspan x="-28.942" y="0">Individua-</tspan><tspan x="-17.543" y="12">lidade</tspan></text></g></svg>