<svg xmlns="http://www.w3.org/2000/svg" xmlns:xlink="http://www.w3.org/1999/xlink" width="50" height="50" viewBox="0 0 50 50"><defs><style>.a{fill:#eaeade;}.b{clip-path:url(#a);}.c{fill:none;}</style><clipPath id="a"><rect class="a" width="50" height="34.766"/></clipPath></defs><g transform="translate(-108 -200)"><g transform="translate(108 208)"><g class="b"><path class="a" d="M21.519,32.086h-.427q-7.156,0-14.312,0c-1.3,0-2.592.066-3.886.038-1-.022-1.393-.328-1.58-1.3C1.1,29.708,1.02,28.567.871,27.438c-.22-1.658-.449-3.314-.677-4.971-.042-.308-.1-.614-.146-.921a3.215,3.215,0,0,1,.665-2.563A54.365,54.365,0,0,0,3.866,14.3a30.037,30.037,0,0,0,3.8-10.6A21.556,21.556,0,0,1,8.2,1.451a3.619,3.619,0,0,1,.36-.809A1.144,1.144,0,0,1,9.669,0Q20.828.03,31.986,0a1.2,1.2,0,0,1,1.243.805,10.93,10.93,0,0,1,.464,1.524q1.22,5.119,2.412,10.246a.458.458,0,0,0,.516.418c1.026-.028,2.051-.074,3.076-.1,1.187-.03,2.376-.093,3.56-.051a1.569,1.569,0,0,1,1.5,1.3c.189.715.342,1.443.578,2.143a15.662,15.662,0,0,0,3.352,5.359,2.155,2.155,0,0,0,.328.362c1.2.836,1,2.053.907,3.243-.141,1.905-.269,3.811-.418,5.716-.064.825-.143,1.651-.266,2.469a2.447,2.447,0,0,1-.363.849.965.965,0,0,1-.895.477q-12.478-.009-24.956,0a1.047,1.047,0,0,1-1.052-.805c-.191-.587-.3-1.2-.459-1.874M21.267,29.2a7.3,7.3,0,0,0-.007-1c-.119-.8-.31-1.6-.406-2.407-.2-1.7.035-2.253,1.38-3.109.226-.144.461-.276.671-.44a6.923,6.923,0,0,0,1.019-.857,12.291,12.291,0,0,0,2.425-4.657q.418-1.4.918-2.779a1.47,1.47,0,0,1,1.346-1.013,11.465,11.465,0,0,1,1.29-.032c.8.028,1.606.094,2.409.121a6.526,6.526,0,0,0,.87-.089L30.759,2.885h-.367q-9.482,0-18.963-.009c-.446,0-.59.162-.649.568A34.255,34.255,0,0,1,5.768,16.877c-.7,1.115-1.461,2.2-2.245,3.261a2.115,2.115,0,0,0-.391,2,7.316,7.316,0,0,1,.222,1.13c.243,1.835.487,3.669.7,5.507.045.388.213.434.545.434q8.1-.013,16.19-.006ZM24.63,31.85H46.378c.217-2.052.418-4.069.649-6.083a3.064,3.064,0,0,0-1.06-2.807,11.792,11.792,0,0,1-2.976-4.491c-.334-.865-.592-1.759-.855-2.553H38.817c-2.876,0-5.752,0-8.628-.009a.449.449,0,0,0-.518.389c-.285.934-.565,1.874-.926,2.781a10.544,10.544,0,0,1-3.964,5.395,3.879,3.879,0,0,0-.446.37,1.287,1.287,0,0,0-.494,1.137c.053.544.112,1.088.186,1.629.194,1.406.4,2.81.6,4.241" transform="translate(0.001 0)"/></g></g><rect class="c" width="50" height="50" transform="translate(108 200)"/></g></svg>