<svg xmlns="http://www.w3.org/2000/svg" xmlns:xlink="http://www.w3.org/1999/xlink" width="66" height="66" viewBox="0 0 66 66"><defs><style>.a,.c{fill:#eaeade;}.b{fill:none;}.c{font-size:11px;font-family:Arial-BoldMT, Arial;font-weight:700;letter-spacing:0.06em;}.d{clip-path:url(#a);}</style><clipPath id="a"><rect class="a" width="41.657" height="33.151"/></clipPath></defs><g transform="translate(-1.705 -2)"><rect class="b" width="66" height="66" rx="5" transform="translate(1.705 2)"/><text class="c" transform="translate(34.705 52)"><tspan x="-19.377" y="0">Jutsus</tspan><tspan x="-18.773" y="12">Gerais</tspan></text><g transform="translate(13.705 6)"><g class="d"><path class="a" d="M216.661,375.031a3.3,3.3,0,0,1-.226.444.311.311,0,0,1-.209.139c.1.229.193.471.3.691a1.449,1.449,0,0,0,.064-.429,2.321,2.321,0,0,1,.184-.605C216.809,375.182,216.809,374.721,216.661,375.031Z" transform="translate(-198.547 -344.27)"/><path class="a" d="M258.784,11.449c.322-.081.614-.181.909-.271-.187-1.232-1.171-.917-1.319-1.776h0A9.159,9.159,0,0,0,258,7.59c-.5-1.316-1.141-2.454-1.547-3.809-.307-1.02-1.174-2.027-1.954-.853a4.243,4.243,0,0,0-.608,2.531,6.258,6.258,0,0,0,.5,2.406c.309.814.5.382,1.165.739.368.2.265.616-.176.616h0a2.5,2.5,0,0,1-.605-.064,6.093,6.093,0,0,0-.733,1.5,7.7,7.7,0,0,0-.2,1.821.373.373,0,0,1-.011.058,3.251,3.251,0,0,1,1.684.6c.107.087.212.17.312.254.312-.4.814-.537,1.257-.909h0a4.33,4.33,0,0,1,1.7-1.029Z" transform="translate(-233.081 -2.204)"/><path class="a" d="M20.267,117.653c.636-.326,1.252-.677,1.882-1h0A11.734,11.734,0,0,0,23.7,115.6a6.393,6.393,0,0,0-1.366-1.467,4.842,4.842,0,0,0-2.459-.825,46.525,46.525,0,0,1-4.717-1.369c-1.675-.524-4.364-.677-5.088,1.263A5.456,5.456,0,0,0,9.613,116a2.088,2.088,0,0,1-.095.884,2.5,2.5,0,0,1,.984-.368c.41-.039.407.6,0,.641a2.44,2.44,0,0,0-.945.524c-.22.148-.524.286-.652.533a3.947,3.947,0,0,1-.326.61,4.915,4.915,0,0,0-.449.544.322.322,0,0,1-.555-.322c.2-.346.527-.566.675-.945a1.532,1.532,0,0,1,.449-.613.271.271,0,0,1,.006-.084c.017-.065.027-.131.041-.2h0a.31.31,0,0,1-.143-.014,4.045,4.045,0,0,0-2.088.293h0a9.322,9.322,0,0,1-1.684.229.226.226,0,0,1-.086-.014.318.318,0,0,1-.2-.028c-.463-.223-.979-.254-1.442-.474a2.909,2.909,0,0,0-1.428-.226.458.458,0,0,1-.069-.011c-1.271.786-1.469,3.666-1.514,4.987-.061,1.829-.358,4.269.652,5.877a13.671,13.671,0,0,1,.7,1.628c.409.9.881.825,1.907.85a9.161,9.161,0,0,0,3.167-.254,4.431,4.431,0,0,1,.93-.2c-.41-.412-.742-.892-1.166-1.308-.3-.286.159-.742.455-.452a18.153,18.153,0,0,0,1.363,1.486,3.527,3.527,0,0,0,2.476.465h0a5.482,5.482,0,0,1,1.409.2,4.383,4.383,0,0,0,2.01.03,1.111,1.111,0,0,0-.2-.151,3.706,3.706,0,0,0-1.475-.209c-1.386-.1-1.851-1.4-2.181-2.537-.742.173-1.037-.577-1.31-1.135h0a6.175,6.175,0,0,1-.547-2.939c0-.558.641-.558.641,0h0a8.8,8.8,0,0,0,0,1.093,9.739,9.739,0,0,0,.267.945c.072.307.429,1.538.906,1.369a.281.281,0,0,1,.215.006.306.306,0,0,1,.368.217c.365,1.288.8,2.317,2.339,2.367h0a2,2,0,0,1,1.409.5,6.1,6.1,0,0,1,1.33,1.492c.4.742,1.1,1.171,1.489,1.882h0a.317.317,0,0,1,.028.07.3.3,0,0,1,.1.058c.209-.34.293-.736.764-.8h0a.68.68,0,0,1,.739.513c.12.471-.14.909-.215,1.371h0a1.142,1.142,0,0,1-.3.647c.521.432,1.508,1.1,1.729-.064a9.165,9.165,0,0,0-.069-1.913c-.023-.844-.315-1.946-1.327-2.155-.4-.084-.234-.7.17-.619h0a1.7,1.7,0,0,1,.309.1c-.143-.39-.271-.767-.4-1.165a3.188,3.188,0,0,0-.441-.915,3.7,3.7,0,0,0-.352-.368c-.429.036-.861.053-1.293.053a.5.5,0,0,1-.062-.011,2.409,2.409,0,0,1-1.145.343H13.1c-.279,0-.279-.557,0-.557h2.127a3.015,3.015,0,0,0,1.567-.591.313.313,0,0,1,.463.17c.242-.009.482-.023.713-.048a.33.33,0,0,1,.128-.017,3.42,3.42,0,0,0,2.08-.959,2.387,2.387,0,0,1-.37-1.849c.122-.613.036-1.3.432-1.751h0a.567.567,0,0,1-.053-.031,1.655,1.655,0,0,1-1.045.362c-.259.014-.516.017-.772.014.069.248.028.549.1.8a4.245,4.245,0,0,1,.2.647c.072.518.268,1.664-.58,1.592h0a1.3,1.3,0,0,1-1.316-1.355c0-.5-.031-1.341.4-1.72l-.173-.007a.324.324,0,0,1-.151-.048c-.552-.019-1.1-.067-1.639-.131h0a.328.328,0,0,1-.14.229A7.647,7.647,0,0,1,13,124.441a3.844,3.844,0,0,1-2.292-.217c-.9-.577-1.634-1.578-.744-2.387a.277.277,0,0,1,.3-.257c2.227.112,4.377.664,6.6.745a.27.27,0,0,1,.153.048c.555.028,1.1.047,1.659.045.281,0,.577-.012.856-.039.17-.019.365-.273.5-.379.009-.006.017-.009.025-.014h0a2.426,2.426,0,0,0-.107-1.9c-.516-1.274-1.043-1.2-2.247-1.3a13.4,13.4,0,0,1-3.8-.987c-.379-.153-.215-.772.17-.619.25.1.5.187.751.268a.33.33,0,0,1,.234-.14,2.355,2.355,0,0,0,.358-.156,1.024,1.024,0,0,0,.279-.153c.044-.042.086-.089.128-.137a4.156,4.156,0,0,1-.552-.107,1.6,1.6,0,0,1-.764-.435c-.273-.31.179-.764.455-.452.449.508,1.277.2,1.793.552a.322.322,0,0,1,.143.24,4.032,4.032,0,0,0,1.2.212,2.96,2.96,0,0,1,.715.1,5.52,5.52,0,0,1,1.023.318,2.357,2.357,0,0,1,.432.363Z" transform="translate(0 -102.473)"/><path class="a" d="M213.146,254.835c0,.006-.006.008-.006.014h0a2.251,2.251,0,0,0-.083.795c0,.474.123.9.677.909a5.373,5.373,0,0,0-.17-1.238,4.5,4.5,0,0,1-.1-.943C213.464,254.383,213.2,254.726,213.146,254.835Z" transform="translate(-195.631 -233.574)"/><path class="a" d="M192.836,179.356a2.007,2.007,0,0,1-.173.2,1.211,1.211,0,0,1-.388.281c-.056.023-.107.05-.162.075.533.137,1.071.25,1.631.362.6.12,1.589-.075,2.2.281h0a1.877,1.877,0,0,1,.19-.276,4.086,4.086,0,0,0-2.113-.585,2.826,2.826,0,0,1-1.182-.343Z" transform="translate(-176.406 -164.691)"/><path class="a" d="M125.59,243.273a2.267,2.267,0,0,0,1.359-.181,10.822,10.822,0,0,0,1.16-.894c-1.327-.184-2.643-.415-3.99-.5h0a.25.25,0,0,1-.039.036c-1.139.853,1.183,1.527,1.509,1.539Z" transform="translate(-113.649 -221.936)"/><path class="a" d="M160.4,9.3c1.093.309,2.1.694,3.229.918l.033.008h0a3.643,3.643,0,0,0-.365-1.687c-.239-.5.145-1.316-.449-1.614,0,0-.006,0-.008,0a2.118,2.118,0,0,1-2.64.516c-.368-.19-.044-.745.324-.555,2.254,1.157,3-2.623,2.966-4.078-.028-1.084.34-2.8-1.2-2.8-.834,0-1.037,1.263-1.33,1.793h0a6.815,6.815,0,0,1-.563,1.088,3.626,3.626,0,0,0-.892,1.207,3.446,3.446,0,0,1-.919,1.273c-.343.318-.806.65-.87,1.149a1.08,1.08,0,0,1-.148.441c-.374.577-.865,1.026-1.2,1.617.519.028,1.04.084,1.528.084a9.46,9.46,0,0,1,2.5.65Z" transform="translate(-143.585)"/><path class="a" d="M274.628,252.659c.349-.006.814-.265.764-.675h0a2.5,2.5,0,0,0-.209-.638,11.535,11.535,0,0,1-.388-1.288c-.165,0-.329,0-.493-.011h0a5.555,5.555,0,0,1,.3,2.272C274.567,252.542,274.408,252.665,274.628,252.659Z" transform="translate(-251.874 -229.602)"/><path class="a" d="M265.772,121.546a6.152,6.152,0,0,0-2.4.1c-.358.056-.722.1-1.076.176a.332.332,0,0,1-.465.4,5.091,5.091,0,0,0-1.6-.561,5.774,5.774,0,0,0-1.09-.231,5.325,5.325,0,0,1,.326,1.082c.072.4-.546.577-.619.17a6.74,6.74,0,0,0-.368-1.322.335.335,0,0,1-.064-.148,3.258,3.258,0,0,0-.278-.5,10.94,10.94,0,0,1-1.068-1.486c-.337-.706-.379-1.5-.744-2.186a2.141,2.141,0,0,0-1.093-.906h0l-.019-.014a.254.254,0,0,1-.05.011c-1.363-.027-2.947-.627-4.207,0h0a9.12,9.12,0,0,0-1.77.968,8.418,8.418,0,0,0-1.227.875h0a6.241,6.241,0,0,1,.993,1.157,4,4,0,0,1,1.433-.613.308.308,0,0,1,.137,0,0,0,0,0,1,0,0,3.325,3.325,0,0,1,1.517-.092,21.327,21.327,0,0,1,1.952.883,4.858,4.858,0,0,1,2.094,1.1c.279.3-.173.758-.454.452a4.489,4.489,0,0,0-1.723-.9c-1.149-.493-1.9-1.09-3.215-.828h0a.329.329,0,0,1-.139,0c-1.232.237-2.007,1.274-3.084,1.827-.468.242-.873.577-1.335.828-.525.286-1.145.245-1.4.93,0,.005-.006.008-.006.011a3.552,3.552,0,0,1,.653,3.362h0a5,5,0,0,0,.9-.013,4.778,4.778,0,0,0,1.4.1h0a5.348,5.348,0,0,1,1.7-.15l-.042-.107c-.014-.042-.033-.193-.081-.209a.88.88,0,0,1-.2-.12.3.3,0,0,1-.29-.076h-.351c-.279,0-.279-.507,0-.507.145,0,.271,0,.382.008.005,0,.008-.008.014-.011.34-.19.831-.265,1.1-.552h0a2.448,2.448,0,0,1,.611-.53c.278-.156.552-.326.839-.469.156-.075.4-.089.5-.239a.339.339,0,0,1,.61.153,4.2,4.2,0,0,0,.879.033,2.631,2.631,0,0,1,.811.207,1.594,1.594,0,0,1,.92,1.065c.248.837.594,1.935-.365,2.468a.323.323,0,0,1-.117.039c-.444.438-1.574.29-2.11.231h0a8.418,8.418,0,0,1-1.528-.332,7.5,7.5,0,0,1-.984-.454.3.3,0,0,1-.162.048c-.5,0-1.007.064-1.508.107.084.276.167.555.237.831h0a8.438,8.438,0,0,1,.317.984,1.189,1.189,0,0,1-.833,1.359c-.368.145-1.246.25-1.31-.332-.042-.4.147-.792.107-1.213a2.922,2.922,0,0,0-.354-1.48.272.272,0,0,1-.058-.176c-.217,0-.446.017-.669.011a.3.3,0,0,1-.137.139c-.451.248-.443,1.419-.443,1.884h0a1.808,1.808,0,0,0,1.347,1.846c.962.237,2.966.371,3.68-.471.27-.315.719.143.454.454a1.924,1.924,0,0,1-.619.477,2.153,2.153,0,0,1,1.107.17,1.966,1.966,0,0,0,1.958-.081c.365-.2.689.358.322.552a2.612,2.612,0,0,1-1.874.358,6.215,6.215,0,0,0-1.308-.3,5.337,5.337,0,0,1-.923-.12.28.28,0,0,1-.226-.315h-.017a.442.442,0,0,1-.011.045,10.741,10.741,0,0,1-2.161,2.955c-.424.455-.114.856-.742,1.174h0a8.541,8.541,0,0,0-.819.621c.005.044.011.089.014.134a8.218,8.218,0,0,1,.02,3.022c.566.212,1.124.407,1.538-.181l.322-.457h0a.327.327,0,0,1-.139-.159,2.443,2.443,0,0,1-.1-1.11,1.428,1.428,0,0,1,.394-.976.549.549,0,0,1,.829.031,3.264,3.264,0,0,1,.3.675,12.307,12.307,0,0,1,2.214-2.507c.549-.368,1.16-.689,1.692-1.059.4-.278,1.38-.884,1.5-1.305h0a.326.326,0,0,1,.5-.164,9.229,9.229,0,0,1,1.829-.909,2.39,2.39,0,0,0,1.419-2.325.348.348,0,0,1,.047-.148.266.266,0,0,1,.045-.245,8.945,8.945,0,0,0,.884-1.829,5.207,5.207,0,0,0,.513-2.426c-.036-.41.6-.407.641,0a5.235,5.235,0,0,1-.537,2.6,9.834,9.834,0,0,1-.951,1.982.022.022,0,0,1-.011.011.2.2,0,0,1,.009.058,2.435,2.435,0,0,1-.351,1.556c-.2.276-.358.751-.644.951a13.8,13.8,0,0,1-1.475.7,15.353,15.353,0,0,0-1.4.787.322.322,0,0,1-.137.053,3.44,3.44,0,0,1-1.085.909,5.9,5.9,0,0,0,5.1-1.773c.25-.322.806,0,.555.322a4.07,4.07,0,0,1-1.09,1.185,11.545,11.545,0,0,1-1.676.519.181.181,0,0,1-.033.014,6.8,6.8,0,0,0,3.739-.143,4.6,4.6,0,0,1,1.982.092,5.343,5.343,0,0,0,2.679-.061.026.026,0,0,1,.014,0,.08.08,0,0,1,.011-.022,12.257,12.257,0,0,0,1.3-2.4,8.013,8.013,0,0,0,.566-3.527c-.027-2.178-.549-4.308-.6-6.48Z" transform="translate(-224.729 -106.371)"/><path class="a" d="M306.1,216.319a6.064,6.064,0,0,0,1.506.455c.322.1,1.789.312,2.057-.009h0a.259.259,0,0,1,.217-.107,1.013,1.013,0,0,0,.234-1.165c-.223-.577-.286-1.151-1-1.31-.516-.112-1.129.03-1.574-.24-.322.212-.73.346-1.04.519-.348.2-.555.51-.886.711h0a3.278,3.278,0,0,1-.465.226,1.689,1.689,0,0,1,.371.638A3.99,3.99,0,0,1,306.1,216.319Z" transform="translate(-280.195 -196.449)"/><path class="a" d="M280.15,375.292a.271.271,0,0,1,.031-.1,2.465,2.465,0,0,1-.234-.507c-.017-.062-.025-.1-.042-.145h0a1.728,1.728,0,0,0-.114,1.14.979.979,0,0,0,.176-.232A.271.271,0,0,1,280.15,375.292Z" transform="translate(-256.87 -343.916)"/></g></g></g></svg>