<svg xmlns="http://www.w3.org/2000/svg" xmlns:xlink="http://www.w3.org/1999/xlink" width="66" height="66" viewBox="0 0 66 66"><defs><style>.a,.d{fill:#eaeade;}.b{fill:none;}.c{clip-path:url(#a);}.d{font-size:11px;font-family:Arial-BoldMT, Arial;font-weight:700;letter-spacing:0.06em;}</style><clipPath id="a"><rect class="a" width="30.727" height="36.68"/></clipPath></defs><g transform="translate(-2 -2)"><rect class="b" width="66" height="66" rx="5" transform="translate(2 2)"/><g transform="translate(20 5)"><g class="c"><path class="a" d="M146.874,4.531a21.366,21.366,0,0,0-1.318,4.434c-.234.872-.511,1.73-.775,2.594a21.585,21.585,0,0,0-.954,2.837,4.78,4.78,0,0,1,2.564-.691h.175a3.312,3.312,0,0,1,1.23-1.388,7.17,7.17,0,0,0,.89-.7c-.046-.478-.041-.953-.08-1.433h0a14.042,14.042,0,0,0-.089-1.52.273.273,0,0,1,.119-.29,8.547,8.547,0,0,0,.372-1.965c.1-.746.188-2.212.188-2.212a.136.136,0,0,1,.043-.1.275.275,0,0,1,0-.095c.158-.713.422-1.407.571-2.112.1-.466.261-1.872-.546-1.9l-.025,0h0a.976.976,0,0,1,.211.637,1.842,1.842,0,0,1-.105.886c-.305.575-.858.474-1.383.43a4.645,4.645,0,0,0-.241.518c-.1.253-.216.516-.326.779a3,3,0,0,1-.166.442l-.007.01c-.037.116-.071.231-.1.347-.071.145-.184.376-.253.48" transform="translate(-133.799)"/><path class="a" d="M208.055,5.5a2.487,2.487,0,0,0,.027-.585.463.463,0,0,0-.1-.3c-.027.052-.057.107-.091.164-.16.259-.218.587-.383.832-.031.045-.058.09-.087.135C207.7,5.773,207.994,5.761,208.055,5.5Z" transform="translate(-192.957 -4.276)"/><path class="a" d="M228.6,24.812a.2.2,0,0,1-.075.021c-.153.889-.482,1.811-.6,2.34a.283.283,0,0,1-.03.076c0,.268-.014.52-.035.767h0a.231.231,0,0,1,.1.162c.071.392.378.713.388,1.107q.017.655.035,1.311c.028,1.079.117,2.157.153,3.236,1.416-.155,2.8-.055,3.752,1.155.571.724.819,1.7,1.349,2.464q.4.57.748,1.172a10.71,10.71,0,0,0-1.131-2.67,9.07,9.07,0,0,1-.954-1.82c-.239-.827-.532-1.672-.793-2.483-.3-.924-.688-1.877-1-2.83h0a.268.268,0,0,1-.087.019.779.779,0,0,0-.326.083.266.266,0,0,1-.362-.1.283.283,0,0,1,.1-.375,1.4,1.4,0,0,1,.521-.149c-.039-.133-.073-.266-.108-.4-.007.007-.009.019-.018.026a.666.666,0,0,1-.22.136l-.087.026-.025.007v0a.259.259,0,0,1-.354-.109.278.278,0,0,1,.1-.368c.057-.024.11-.045.17-.063.007,0,.053-.026.053-.019h0a.267.267,0,0,1,.287-.045c-.108-.53-.252-1.041-.374-1.563h0a.222.222,0,0,1-.152.063c-.3.012-.782.169-.976-.169a2.063,2.063,0,0,1-.046-.955Z" transform="translate(-211.972 -23.02)"/><path class="a" d="M245.546,16.113c0-.081.424-.071.5-.074h0a.174.174,0,0,1,.051.007,11.184,11.184,0,0,0-.366-1.371.115.115,0,0,1-.028.007c-.254.014-.183.121-.158.323h0a3.361,3.361,0,0,1,0,.569C245.543,15.752,245.541,15.935,245.546,16.113Z" transform="translate(-228.402 -13.616)"/><path class="a" d="M135.952,121.051c-.239.3-.406.637-.663.931h0a1.956,1.956,0,0,0-.477,1.628c.02.24.571.2.826.155a28.72,28.72,0,0,0,1-3.208c.013-.043.028-.088.041-.133h0a3.018,3.018,0,0,0-.725.627Z" transform="translate(-125.39 -111.728)"/><path class="a" d="M126.832,201.545a3.62,3.62,0,0,0,1.592-.024c.8-.326,4.562.014,5.315.147-.7-.748-1.3-1.741-2.184-2.138a13.73,13.73,0,0,0-3.518-.917c-.807,0-1.61-.124-2.41-.119a3.966,3.966,0,0,0-1.915.644h0a1.668,1.668,0,0,0,.031.468c.044.15.117.292.152.442a1.168,1.168,0,0,1,.011.616c-.145.428-.454.5-.856.5-.3,0-.785.079-.89-.318a1.442,1.442,0,0,1,.067-.644,2.145,2.145,0,0,0,.048-.4,1.013,1.013,0,0,0-.206,1.428c.353.625,2.59.34,3.156.34C125.754,201.571,126.307,201.509,126.832,201.545Z" transform="translate(-113.374 -184.16)"/><path class="a" d="M134.027,212.042c.156,0,.353.035.36-.183h0a1.272,1.272,0,0,0-.119-.518,1.537,1.537,0,0,1-.1-.537c-.1.04-.2.078-.3.111-.011,0-.02.007-.032.01a.3.3,0,0,1-.014.1c-.064.193-.021.392-.066.59-.025.109-.064.228-.083.34a.556.556,0,0,1,.009.095.494.494,0,0,0,.057,0C133.834,212.047,133.928,212.042,134.027,212.042Z" transform="translate(-124.35 -195.581)"/><path class="a" d="M179.276,244.932a5.419,5.419,0,0,0-1.018-.5,28.215,28.215,0,0,0-3.459-.567,3.706,3.706,0,0,0-.873.032,7.255,7.255,0,0,0-1.319.238,5.3,5.3,0,0,1-1.734.043c-.553.019-1.106.024-1.661.024h0a5.3,5.3,0,0,1,.89.566,9.733,9.733,0,0,0,2.051,1.6,5.829,5.829,0,0,0,2.963.606,21.088,21.088,0,0,0,2.984-.111,2.772,2.772,0,0,1-.145-.993c-.023-.418-.031-.8.371-1.011a.722.722,0,0,1,.961.245,5.246,5.246,0,0,1,.429.625.667.667,0,0,0-.442-.795Z" transform="translate(-157.416 -226.245)"/><path class="a" d="M301.9,265.286a.216.216,0,0,1,.037.059,7.655,7.655,0,0,0,.789-.354.278.278,0,0,1-.071-.166c-.018-.264-.234-.383-.355-.592-.094-.164-.248-.406-.457-.226-.124.109-.016.613.012.744C301.885,264.915,301.789,265.141,301.9,265.286Z" transform="translate(-280.741 -244.883)"/><path class="a" d="M320.272,250.188c.168-.142.14-.518.025-.958a.754.754,0,0,1-.56.328l.115.093A1.9,1.9,0,0,1,320.272,250.188Z" transform="translate(-297.447 -231.232)"/><path class="a" d="M320.147,139.741a.268.268,0,0,1,.1-.032c-.2-.542-.351-.321-.6-.665-.11.152-.248.349-.108.492.114.117.434.3.607.205" transform="translate(-297.208 -129.003)"/><path class="a" d="M154.771,405.526c0-.007,0-.01,0-.012.007.053.009.06,0,.012" transform="translate(-143.976 -376.23)"/><path class="a" d="M278.729,85.746a5.1,5.1,0,0,1-.793-.805c-.592-.943-1.027-2.428-2.085-2.889.122.359.252.718.4,1.069a25.656,25.656,0,0,1,.706,2.542h0a13.176,13.176,0,0,0,.835,2.129.435.435,0,0,1,.175.078.22.22,0,0,1,.061.024,3.065,3.065,0,0,0,.747.317q.723.1.922-.827a1.187,1.187,0,0,1-1.117-.337c-.371-.394-.2-.839.083-1.236h0a.376.376,0,0,1,.065-.064Z" transform="translate(-256.62 -76.127)"/><path class="a" d="M193.447,157.341c0-.063-.009-.14-.018-.211a3.507,3.507,0,0,1-.808.644,3.591,3.591,0,0,0-1.429,1.24,7.088,7.088,0,0,1,2.436.361c.42.169.885.333,1.324.532a.325.325,0,0,1,.1-.028c.879-.081,1.268.338,2.013.751s1.131,1.371,1.778,1.959a.731.731,0,0,1,.229-.233,3.907,3.907,0,0,0,.462-.371,3.056,3.056,0,0,1,.507-.245.225.225,0,0,1,.1-.036c-.1-.219-.188-.39-.236-.474-.33-.582-.671-1.148-1.007-1.718h0a1.384,1.384,0,0,1-.2.164.26.26,0,0,1-.36-.1.288.288,0,0,1,.094-.375.448.448,0,0,0,.183-.186c-.08-.14-.159-.283-.236-.425h0a1.838,1.838,0,0,1-.172.23,2.271,2.271,0,0,0-.291.359.258.258,0,0,1-.357.092.278.278,0,0,1-.1-.368c.149-.259.436-.447.546-.727a.4.4,0,0,1,.08-.121c0-.007-.009-.017-.014-.026h0a2.344,2.344,0,0,0-1.83-1.419,8.29,8.29,0,0,0-1.514-.083,4.278,4.278,0,0,0-.027.494c0,.474-.528.474-.528,0h0a4.155,4.155,0,0,1,.018-.423.914.914,0,0,0-.269.107.167.167,0,0,1-.023.019v.016a.2.2,0,0,1-.007.055c.007.019.014.038.018.055a.929.929,0,0,1,.025.171c0,.1.034.209.039.316a.265.265,0,1,1-.529,0Z" transform="translate(-177.863 -145.221)"/><path class="a" d="M309.242,235.4a.466.466,0,0,1,.051.026,1.388,1.388,0,0,0,.323.2c.273.076.458.043.569-.23a.211.211,0,0,1,.153-.138c-.053-.148-.11-.292-.167-.43-.014.01-.028.021-.044.032h0a3.459,3.459,0,0,0-.578.333C309.494,235.236,309.352,235.32,309.242,235.4Z" transform="translate(-287.683 -217.87)"/><path class="a" d="M151.974,255.522a.247.247,0,0,1-.193.1c-.17.01-.5.1-.5.321,0,.063.044.566.2.477a2.6,2.6,0,0,0,.494-.43.663.663,0,0,0,.218-.313c0-.026-.128-.086-.138-.093h0A.249.249,0,0,1,151.974,255.522Z" transform="translate(-140.732 -237.07)"/><path class="a" d="M294.928,421.106h0Z" transform="translate(-274.367 -390.696)"/><path class="a" d="M162.464,265.57h0a.408.408,0,0,1-.006-.051h0a9.635,9.635,0,0,1-2.443-1.209c-.915-.585-1.917-.779-2.851-1.288a5.121,5.121,0,0,1-2.413-3.1,1.965,1.965,0,0,1-1.232,1.091,10.72,10.72,0,0,1-3.307.375,6.471,6.471,0,0,1-2.879-.188,7.107,7.107,0,0,1-2.271-1.209,6.385,6.385,0,0,0-1.248-1.145h0a.872.872,0,0,1-.227.479,6.784,6.784,0,0,1-.481.5.876.876,0,0,1-.583.25c-.507-.038-.693-.7-.647-1.15-.541,1.112.521,2.359,1.351,3.067a9.5,9.5,0,0,0,3.411,1.585.166.166,0,0,1,.044.021.236.236,0,0,1,.044-.021.269.269,0,0,1,.325.19.319.319,0,0,1,.007.093,3.065,3.065,0,0,1,.5.352,1.505,1.505,0,0,0,.954.306.274.274,0,0,1,0,.547,2.364,2.364,0,0,1-.264-.022c-.012.114-.019.233-.023.352a13.164,13.164,0,0,1,.08,2.6c.014,1.643,2.8,2.4,4.1,2.569a.267.267,0,0,1,.252-.178.235.235,0,0,1,.061-.052,2.964,2.964,0,0,1,.789-.276,3.1,3.1,0,0,0,.78-.437.258.258,0,0,1,.355.1.278.278,0,0,1-.089.37,3.3,3.3,0,0,1-.789.464,3.378,3.378,0,0,0-.734.228c.209.256.6.3.812.544h0a8.643,8.643,0,0,0,.771.744,13.025,13.025,0,0,1,1.56,1.6c.5.615.9,1.281,1.365,1.92.663.912,1.5,1.83,2.514.755a5.469,5.469,0,0,0,1.507-2.2,12.658,12.658,0,0,0,.741-2.832,22.828,22.828,0,0,0,.2-2.7,14.693,14.693,0,0,0-.041-3.046" transform="translate(-131.848 -240.153)"/><path class="a" d="M212.012,365.884a.307.307,0,0,1,.018-.078c0,.01-.009.017-.014.026A.427.427,0,0,0,212.012,365.884Z" transform="translate(-197.231 -339.39)"/><path class="a" d="M15.631,254.075l-.014-.007c-.287-.135-.516-.385-.8-.535h0a.245.245,0,0,1-.1-.093.293.293,0,0,1-.041-.053l-.025,0a9.594,9.594,0,0,1-2.558-.979,6.563,6.563,0,0,1-1.727-1.226c-.77-1.124-1.518-2.622-.4-3.791h0a5.067,5.067,0,0,1-.745-.093c-.147.606-.257,1.219-.452,1.81-.152.454-.59.913-.605,1.4-.016.559-.452.784-.844,1.064h0a.262.262,0,0,1-.007.093,1.988,1.988,0,0,1-.1.379,2.17,2.17,0,0,0-.209.5,5.42,5.42,0,0,0,.009.817c0,.238-.528.238-.528,0a3.554,3.554,0,0,1,.009-.96.251.251,0,0,0,.011-.035.34.34,0,0,1-.108-.019,33.694,33.694,0,0,0-3.085,1.872c-.835.582-3.39,1.287-3.31,2.58a12.921,12.921,0,0,0,.6,2.713,10.456,10.456,0,0,0,.75,2.324c.42.753.718,1.787,1.5,2.255.152.095,1,.62,1.385.53h0a.282.282,0,0,1,.083-.091,37.34,37.34,0,0,1,3.583-2.74c1.069-.577,2.193-1.05,3.3-1.537h0a22.025,22.025,0,0,0,3.333-1.753c1.328-.885,1.22-2.278,1.3-3.7h0a2.48,2.48,0,0,0-.2-.708Z" transform="translate(0.001 -229.436)"/></g></g><text class="d" transform="translate(35 52)"><tspan x="-19.377" y="0">Jutsus</tspan><tspan x="-23.075" y="12">Básicos</tspan></text></g></svg>