<svg xmlns="http://www.w3.org/2000/svg" xmlns:xlink="http://www.w3.org/1999/xlink" width="50" height="50" viewBox="0 0 50 50"><defs><style>.a{fill:#eaeade;}.b{clip-path:url(#a);}.c{fill:none;}</style><clipPath id="a"><rect class="a" width="50" height="39.735"/></clipPath></defs><g transform="translate(-248 -150)"><g transform="translate(248 155)"><g class="b"><path class="a" d="M647.866,530.13a1.63,1.63,0,0,1-.891,1.335c-.972.575-1.955,1.136-2.892,1.765a10.822,10.822,0,0,0-3.68,4.239,28.454,28.454,0,0,1-1.5,2.683,13.633,13.633,0,0,1-4.166,3.982c-.818.532-1.668,1.017-2.519,1.494a1.607,1.607,0,1,1-1.528-2.828,22.79,22.79,0,0,0,3.585-2.31,10.442,10.442,0,0,0,2.669-3.3c.464-.883.915-1.776,1.432-2.628a13.406,13.406,0,0,1,4.151-4.171c.963-.64,1.964-1.228,2.978-1.785a1.607,1.607,0,0,1,2.363,1.524" transform="translate(-603.398 -506.248)"/><path class="a" d="M0,547.543A1.625,1.625,0,0,1,.894,546.2c.971-.577,1.953-1.141,2.885-1.777a10.277,10.277,0,0,0,3.383-3.873c.442-.863.889-1.727,1.39-2.556a13.563,13.563,0,0,1,3.8-3.942,26.981,26.981,0,0,1,3.34-2.036,1.6,1.6,0,0,1,2.177.666,1.627,1.627,0,0,1-.674,2.183c-.974.572-1.957,1.134-2.9,1.76a10.74,10.74,0,0,0-3.727,4.305,19.426,19.426,0,0,1-1.78,3.078,14.6,14.6,0,0,1-3.84,3.523c-.835.544-1.7,1.046-2.574,1.524A1.61,1.61,0,0,1,0,547.543" transform="translate(0 -509.522)"/><path class="a" d="M128.89,19.134a1.622,1.622,0,0,1,.886-1.339c.976-.583,1.964-1.15,2.9-1.79a10.261,10.261,0,0,0,3.379-3.876c.438-.857.881-1.715,1.379-2.538A13.663,13.663,0,0,1,141.3,5.6a27.38,27.38,0,0,1,3.271-1.989,1.6,1.6,0,0,1,2.18.653,1.62,1.62,0,0,1-.661,2.185c-.961.566-1.933,1.12-2.861,1.737a10.8,10.8,0,0,0-3.784,4.364,19.287,19.287,0,0,1-1.722,2.99,14.565,14.565,0,0,1-3.892,3.588c-.835.544-1.7,1.047-2.575,1.523a1.609,1.609,0,0,1-2.368-1.517" transform="translate(-123.485 -3.272)"/><path class="a" d="M763.269,17.482a1.709,1.709,0,0,1-1.577-1.238,1.632,1.632,0,0,1,.8-1.837c.848-.5,1.705-.983,2.529-1.518a10.88,10.88,0,0,0,3.953-4.484,17.95,17.95,0,0,1,1.9-3.223,15.158,15.158,0,0,1,3.835-3.439c.842-.545,1.717-1.043,2.6-1.53a1.59,1.59,0,0,1,2.21.655,1.6,1.6,0,0,1-.707,2.183,26.1,26.1,0,0,0-3.234,2.008,10.956,10.956,0,0,0-3.343,4.02,20.411,20.411,0,0,1-1.752,3.046,14.646,14.646,0,0,1-3.926,3.612c-.818.532-1.671,1.011-2.522,1.49a4.087,4.087,0,0,1-.764.254" transform="translate(-729.702 -0.001)"/></g></g><rect class="c" width="50" height="50" transform="translate(248 150)"/></g></svg>