<svg xmlns="http://www.w3.org/2000/svg" xmlns:xlink="http://www.w3.org/1999/xlink" width="50" height="50" viewBox="0 0 50 50"><defs><style>.a{fill:#fff;}.b{clip-path:url(#a);}</style><clipPath id="a"><rect class="a" width="50" height="50"/></clipPath></defs><g transform="translate(-117 50)"><g class="b" transform="translate(117 -50)"><path class="a" d="M14.78,102.484c-2.186.107-4.372.23-6.559.315a1.478,1.478,0,0,1-1.605-1.759A2.676,2.676,0,0,1,7,100.179,56.538,56.538,0,0,0,12.352,89.37c.995-2.754,1.831-5.569,2.654-8.381a18.7,18.7,0,0,1,8.511-11.26,19.646,19.646,0,0,1,16.754-1.9,21.157,21.157,0,0,1,5.866,3.1c.6.438.608.431,1.225-.006q2.505-1.773,5.013-3.542a4.861,4.861,0,0,1,.859-.5,1.412,1.412,0,0,1,1.7.451,1.469,1.469,0,0,1-.026,1.886,2.524,2.524,0,0,1-.462.407c-1.956,1.383-3.878,2.816-5.883,4.124s-1.83,1.323-3.8-.062a19.829,19.829,0,0,0-6.811-3.381,16.572,16.572,0,0,0-19.368,9.615,16.844,16.844,0,0,0,.065,13.743,10.532,10.532,0,0,0,7.4,6.106,19.037,19.037,0,0,0,12.315-.741c4.668-1.953,6.917-6.331,5.509-11.2a11.563,11.563,0,0,0-8.683-8.6,11.023,11.023,0,0,0-6.241.23c-4.2,1.415-5.788,7.067-2.9,10.284a6.7,6.7,0,0,0,7.608,1.5A3.313,3.313,0,0,0,35.6,88.295a2.5,2.5,0,0,0-2.019-2.439c-.46-.118-.938-.169-1.393-.3a1.47,1.47,0,0,1,.1-2.856c2.279-.21,5.6,1.2,6.222,4.477a6.338,6.338,0,0,1-2.91,6.459,8.248,8.248,0,0,1-4.955,1.216,9.509,9.509,0,0,1-6.208-2.421A9.389,9.389,0,0,1,22.945,80.7a10.022,10.022,0,0,1,7.582-4.685A14.777,14.777,0,0,1,46.861,87.28a11.879,11.879,0,0,1-2.335,10.975A13.988,13.988,0,0,1,37.04,102.7a25.158,25.158,0,0,1-9.827.429,69.4,69.4,0,0,0-12.434-.643M14.8,91.549l-3.686,7.893h8.02A14.415,14.415,0,0,1,14.8,91.549" transform="translate(-5.926 -60.089)"/></g></g></svg>