<svg xmlns="http://www.w3.org/2000/svg" xmlns:xlink="http://www.w3.org/1999/xlink" width="66" height="66" viewBox="0 0 66 66"><defs><style>.a{fill:#e9e9de;}.b{fill:none;}.c{fill:#eaeade;font-size:11px;font-family:Arial-BoldMT, Arial;font-weight:700;letter-spacing:0.06em;}.d{clip-path:url(#a);}</style><clipPath id="a"><rect class="a" width="37.361" height="41.782"/></clipPath></defs><g transform="translate(-2 -2)"><rect class="b" width="66" height="66" rx="5" transform="translate(2 2)"/><text class="c" transform="translate(35 58)"><tspan x="-28.596" y="0">Kuchyose</tspan></text><g transform="translate(16 2)"><g class="d"><path class="a" d="M363.587,162.363l-2.69-.517a.486.486,0,0,0-.551.435l-.06.391a.532.532,0,0,0,.389.616l2.69.517a.486.486,0,0,0,.551-.435l.06-.391a.532.532,0,0,0-.389-.616" transform="translate(-333.358 -149.745)"/><path class="a" d="M90.548,162.363l2.69-.517a.486.486,0,0,1,.551.435l.06.391a.532.532,0,0,1-.389.616l-2.69.517a.486.486,0,0,1-.551-.435l-.06-.391a.532.532,0,0,1,.389-.616" transform="translate(-83.415 -149.745)"/><path class="a" d="M203.47,272.128a.845.845,0,1,0,.751.84.8.8,0,0,0-.751-.84m0,1.433a.6.6,0,1,1,.531-.593.564.564,0,0,1-.531.593m5.564-1.433a.845.845,0,1,0,.751.84.8.8,0,0,0-.751-.84m0,1.433a.6.6,0,1,1,.531-.593.564.564,0,0,1-.531.593" transform="translate(-187.572 -251.794)"/><path class="a" d="M74.314,130.064a8.836,8.836,0,0,0-.967-3.041,12.61,12.61,0,0,0-2.321-2.946,4.541,4.541,0,0,0,1.963-3.823,4.211,4.211,0,0,0-3.957-4.426A4.155,4.155,0,0,0,65.1,119.81a16.156,16.156,0,0,0-6.155-1.624,16.163,16.163,0,0,0-6.155,1.624,4.156,4.156,0,0,0-3.937-3.982,4.211,4.211,0,0,0-3.957,4.426,4.543,4.543,0,0,0,1.963,3.823,12.61,12.61,0,0,0-2.321,2.946,9.4,9.4,0,0,0,4.015,12.484,7.325,7.325,0,0,0,3.285.794H66.048a8.625,8.625,0,0,0,7.175-4.626,9.2,9.2,0,0,0,1.091-5.611m-12.592-2.557a.845.845,0,1,1-.751.84.8.8,0,0,1,.751-.84m-5.564,0a.845.845,0,1,1-.751.84.8.8,0,0,1,.751-.84m-7.31-4.19a3.083,3.083,0,1,1,2.739-3.064,2.916,2.916,0,0,1-2.739,3.064M66.44,134.3a4.11,4.11,0,0,1-1.238,1.145,8.784,8.784,0,0,1-3.4,1.233,15.952,15.952,0,0,1-5.648-.093,10.549,10.549,0,0,1-3.435-1.285,5.107,5.107,0,0,1-1.152-.887c-.48-.536.31-1.331.793-.793a3.09,3.09,0,0,0,.3.275c.028.024.058.047.087.071.067.05.134.1.2.146.181.125.368.241.56.35a10.19,10.19,0,0,0,3.362,1.117A14.162,14.162,0,0,0,62,135.507a7.44,7.44,0,0,0,2.844-1.172l.06-.044.076-.061c.05-.042.1-.084.148-.128.084-.077.166-.157.243-.242.035-.039.093-.114.11-.135.391-.587,1.343-.029.959.578m2.593-10.986a3.083,3.083,0,1,1,2.74-3.064,2.916,2.916,0,0,1-2.74,3.064" transform="translate(-40.279 -107.173)"/></g></g></g></svg>