<svg xmlns="http://www.w3.org/2000/svg" xmlns:xlink="http://www.w3.org/1999/xlink" width="50" height="50" viewBox="0 0 50 50"><defs><style>.a{fill:#eaeade;}.b{clip-path:url(#a);}.c{fill:none;}</style><clipPath id="a"><rect class="a" width="50" height="25.11"/></clipPath></defs><g transform="translate(-165 -150)"><g transform="translate(165 162)"><g class="b"><path class="a" d="M0,4.5A8.525,8.525,0,0,1,.43,3.366,4.908,4.908,0,0,1,2.584,1.428,12.385,12.385,0,0,1,6.568.206,18.363,18.363,0,0,1,11.433.124a12.648,12.648,0,0,1,4.823,1.423,4.935,4.935,0,0,1,1.923,1.776,3.11,3.11,0,0,1-.22,3.522,6.187,6.187,0,0,1-2.585,1.877,13.649,13.649,0,0,1-3.7.958,18.229,18.229,0,0,1-4,.079A13.074,13.074,0,0,1,2.361,8.281,4.637,4.637,0,0,1,.407,6.426,8.6,8.6,0,0,1,0,5.3V4.5M9.53,6.98c.231-.011.69-.022,1.147-.059a11.317,11.317,0,0,0,3.615-.836,3.693,3.693,0,0,0,1.253-.807c.276-.29.274-.44,0-.728a3.687,3.687,0,0,0-1.235-.8,11.4,11.4,0,0,0-3.7-.848,14.787,14.787,0,0,0-5.123.432,5.934,5.934,0,0,0-2.212,1.03c-.527.426-.545.694.009,1.087A6.566,6.566,0,0,0,4.646,6.2,13.067,13.067,0,0,0,9.53,6.98" transform="translate(0 0)"/><path class="a" d="M224.465,26.954h-9.137a5.707,5.707,0,0,1-2.97-.77,5.823,5.823,0,0,1-3-4.84,5.929,5.929,0,0,1,4.119-6.04,6.268,6.268,0,0,1,2.014-.275q5.276.093,10.553.185a.353.353,0,0,0,.37-.237,1.044,1.044,0,0,0,.035-.773.445.445,0,0,0-.466-.355,5.135,5.135,0,0,1-4.653-3,6.058,6.058,0,0,1,.143-5.989,5.654,5.654,0,0,1,4.545-2.894c.345-.034.694-.033,1.041-.033q8.8,0,17.606,0a5.968,5.968,0,0,1,1.889,11.619,6.139,6.139,0,0,1-1.968.307q-5.194.009-10.389.013c-.3,0-.4.058-.472.351a1.6,1.6,0,0,0-.024.575c.047.321.175.416.5.428a5.377,5.377,0,0,1,3.519,1.365,5.548,5.548,0,0,1,1.792,3.528,5.886,5.886,0,0,1-1.04,4.333,5.733,5.733,0,0,1-4.362,2.481c-.256.021-.514.028-.771.028q-4.443,0-8.887,0m-.007-3.007h1.606c2.524,0,5.049,0,7.573,0a3.2,3.2,0,0,0,2.646-1.266,2.855,2.855,0,0,0-.249-3.749,2.685,2.685,0,0,0-1.87-.7,2.834,2.834,0,0,1-2.427-1.235,4.1,4.1,0,0,1-.41-4.2,3,3,0,0,1,3.009-1.949c3.414.024,6.829,0,10.243,0a3.535,3.535,0,0,0,1.816-.459,2.857,2.857,0,0,0,1.312-3.476,3.169,3.169,0,0,0-2.934-1.976q-9.138-.007-18.275,0a3.121,3.121,0,0,0-.862.124,3.005,3.005,0,0,0-1.823,4.52,2.515,2.515,0,0,0,2.279,1.264,2.844,2.844,0,0,1,2.136.969,4.245,4.245,0,0,1,.348,5.006,2.936,2.936,0,0,1-2.67,1.4c-3.483-.076-6.966-.123-10.449-.186a3.579,3.579,0,0,0-1.881.443,2.814,2.814,0,0,0-1.067,4,3.118,3.118,0,0,0,2.77,1.463c3.06.009,6.12,0,9.179,0" transform="translate(-200.606 -1.845)"/></g></g><rect class="c" width="50" height="50" transform="translate(165 150)"/></g></svg>