<svg xmlns="http://www.w3.org/2000/svg" width="66" height="66" viewBox="0 0 66 66"><defs><style>.a{fill:none;}.b,.c{fill:#eaeade;}.b{font-size:11px;font-family:Arial-BoldMT, Arial;font-weight:700;letter-spacing:0.06em;}</style></defs><g transform="translate(-1.582 -2)"><rect class="a" width="66" height="66" rx="5" transform="translate(1.582 2)"/><text class="b" transform="translate(34.582 58)"><tspan x="-16.601" y="0">Notas</tspan></text><path class="c" d="M21.938,22.5H31.5V3.938A1.683,1.683,0,0,0,29.813,2.25H1.688A1.683,1.683,0,0,0,0,3.938V32.063A1.683,1.683,0,0,0,1.688,33.75H20.25V24.188A1.692,1.692,0,0,1,21.938,22.5Zm9.07,3.867-6.891,6.891a1.686,1.686,0,0,1-1.2.492H22.5v-9h9v.429A1.682,1.682,0,0,1,31.008,26.367Z" transform="translate(18.582 5.75)"/></g></svg>