<svg xmlns="http://www.w3.org/2000/svg" xmlns:xlink="http://www.w3.org/1999/xlink" width="50" height="50" viewBox="0 0 50 50"><defs><style>.a{fill:#eaeade;}.b{clip-path:url(#a);}.c{fill:none;}</style><clipPath id="a"><rect class="a" width="50" height="32.594"/></clipPath></defs><g transform="translate(-162 -163)"><g transform="translate(162 172)"><g class="b"><path class="a" d="M50,17.663c-.162.674-.285,1.361-.493,2.021a8.7,8.7,0,0,1-4.244,5.525,7.881,7.881,0,0,1-4.815.9,4.552,4.552,0,0,1-3.574-6.254,11.163,11.163,0,0,1,1.136-2.146,1.783,1.783,0,0,1,2.113-.692,6.783,6.783,0,0,0,.705.186,1.628,1.628,0,0,0,.477-.083c-.056-.186-.054-.443-.179-.547a2.415,2.415,0,0,0-2.257-.408,3.641,3.641,0,0,0-2.29,1.78,6.408,6.408,0,0,0-.18,6.424,3.974,3.974,0,0,0,2.239,2c.489.179.587.462.478.938a4.954,4.954,0,0,1-1.957,2.988,8.958,8.958,0,0,1-7.993,1.488,5.153,5.153,0,0,1-3.359-2.62c-.649.5-1.282.972-1.9,1.465a7.856,7.856,0,0,1-4.733,1.964c-3.327.084-5.4-1.165-6.635-4.97a6.293,6.293,0,0,1-.264-2.4,3.511,3.511,0,0,1,3.1-3.062,7.476,7.476,0,0,1,3,.012,1.861,1.861,0,0,1,1.258,1c.216.381.392.784.6,1.172.127.239.274.468.411.7l.131-.028a6.153,6.153,0,0,0-.012-1.188,3.124,3.124,0,0,0-2.032-2.317A6,6,0,0,0,12.594,22.7a4.456,4.456,0,0,0-1.211,4.172c.031.192.072.383.135.715-.75.068-1.48.193-2.209.19A7.853,7.853,0,0,1,2.5,23.729,25.522,25.522,0,0,1,0,18.216c.32.143.559.245.794.357a4.728,4.728,0,0,0,5.266-.522c.916-.7,1.809-1.434,2.713-2.153a6.951,6.951,0,0,1,4.682-1.767c.348.014.488-.12.543-.5a30.7,30.7,0,0,1,.672-3.785,6.535,6.535,0,0,1,6.686-5.052c.416,0,.833,0,1.293,0-.136.737-.308,1.365-.359,2a5.574,5.574,0,0,0,4.831,6.176,6.931,6.931,0,0,0,3.187-.116,3.518,3.518,0,0,0,2.631-4.348,5.6,5.6,0,0,0-.991-2.256A1.441,1.441,0,0,0,31.806,7.6a3.778,3.778,0,0,1,.183,2.158,3.213,3.213,0,0,1-3.8,2.4,5.189,5.189,0,0,1-4.5-3.536A5.638,5.638,0,0,1,25.2,2.706,9.026,9.026,0,0,1,31.976,0,7.94,7.94,0,0,1,38,2.305a6.64,6.64,0,0,1,1.734,3.328c.079.352.224.442.555.417a9.277,9.277,0,0,1,3.616.329,7.932,7.932,0,0,1,4.827,4.528,13.453,13.453,0,0,1,1.186,4,.9.9,0,0,0,.087.217Z" transform="translate(0 0)"/></g></g><rect class="c" width="50" height="50" transform="translate(162 163)"/></g></svg>