<svg xmlns="http://www.w3.org/2000/svg" xmlns:xlink="http://www.w3.org/1999/xlink" width="75" height="94" viewBox="0 0 75 94"><defs><style>.a{font-size:15px;font-family:ArialMT, Arial;letter-spacing:0.06em;}.b{clip-path:url(#a);}</style><clipPath id="a"><rect width="75" height="75"/></clipPath></defs><text class="a" transform="translate(38 91)"><tspan x="-19.337" y="0">Perfil</tspan></text><g class="b"><path d="M109.38,79.247c0-2.455-4.687-4.353-5.357-6.7s2.455-6.361,1.339-8.37c-1.228-2.121-6.25-1.339-7.924-3.125-1.674-1.674-1-6.7-3.125-7.924s-6.027,1.9-8.37,1.339c-2.344-.67-4.241-5.357-6.7-5.357s-4.353,4.687-6.7,5.357-6.361-2.455-8.37-1.339c-2.121,1.228-1.339,6.25-3.125,7.924-1.674,1.674-6.7,1-7.924,3.125s1.9,6.027,1.339,8.37c-.67,2.344-5.357,4.241-5.357,6.7s4.687,4.352,5.357,6.7-2.455,6.361-1.339,8.37c1.228,2.121,6.25,1.339,7.924,3.125,1.674,1.674,1,6.7,3.125,7.924s6.027-1.9,8.37-1.339c2.344.67,4.129,5.357,6.7,5.357,2.455,0,4.353-4.687,6.7-5.357s6.361,2.455,8.37,1.339c2.12-1.228,1.339-6.25,3.125-7.924,1.674-1.674,6.7-1,7.924-3.125s-1.9-6.027-1.339-8.37c.67-2.344,5.357-4.241,5.357-6.7M92.3,86.613a11.653,11.653,0,0,1-16.517,0,9.835,9.835,0,0,1,0-13.839A2.21,2.21,0,0,1,78.911,75.9a5.389,5.389,0,0,0,0,7.589,7.343,7.343,0,0,0,10.268,0,9.565,9.565,0,0,0,0-13.616,12.673,12.673,0,0,0-8.928-3.683,12.871,12.871,0,0,0-8.928,3.683,16.038,16.038,0,0,0-4.8,11.5,15.851,15.851,0,0,0,4.8,11.5,2.158,2.158,0,0,1,0,3.125,2.158,2.158,0,0,1-3.125,0,20.745,20.745,0,0,1,0-29.239,16.975,16.975,0,0,1,24.106,0,14.078,14.078,0,0,1,0,19.865Z" transform="translate(-41.747 -41.747)"/></g></svg>