<svg xmlns="http://www.w3.org/2000/svg" xmlns:xlink="http://www.w3.org/1999/xlink" width="50" height="50" viewBox="0 0 50 50"><defs><style>.a{fill:none;}.b{clip-path:url(#a);}.c{fill:#eaeade;}.d{fill:#64ff6b;}.e{fill:#fff;}</style><clipPath id="a"><rect class="a" width="50" height="50"/></clipPath></defs><g class="b"><path class="c" d="M18.283,55.507h7.6a5.2,5.2,0,0,1,3.718,1.18,4.427,4.427,0,0,1,1.236,3.36,4.562,4.562,0,0,1-1.347,3.5,5.836,5.836,0,0,1-4.111,1.261h-2.5V70.3H18.283Zm4.591,6.306h1.12a2.881,2.881,0,0,0,1.856-.459,1.479,1.479,0,0,0,.535-1.175A1.642,1.642,0,0,0,25.921,59a2.407,2.407,0,0,0-1.745-.484h-1.3Z" transform="translate(-16.455 -49.956)"/><path class="c" d="M165.576,55.507h4.778l3.329,10.644,3.286-10.644h4.639L176.116,70.3h-4.954Z" transform="translate(-149.018 -49.956)"/><path class="c" d="M353.022,55.507h7.6a5.2,5.2,0,0,1,3.718,1.18,4.427,4.427,0,0,1,1.236,3.36,4.562,4.562,0,0,1-1.347,3.5,5.836,5.836,0,0,1-4.111,1.261h-2.5V70.3h-4.591Zm4.591,6.306h1.12a2.881,2.881,0,0,0,1.856-.459,1.479,1.479,0,0,0,.535-1.175A1.643,1.643,0,0,0,360.66,59a2.406,2.406,0,0,0-1.745-.484h-1.3Z" transform="translate(-317.72 -49.956)"/><path class="d" d="M76.392,299.2a7,7,0,0,1,7.638-7.658,7.733,7.733,0,0,1,5.69,1.983,7.476,7.476,0,0,1,2,5.554,9.106,9.106,0,0,1-.873,4.253,6.221,6.221,0,0,1-2.522,2.583,8.326,8.326,0,0,1-4.111.923,9.46,9.46,0,0,1-4.142-.8,6.234,6.234,0,0,1-2.659-2.522,8.374,8.374,0,0,1-1.019-4.318m4.57.02a4.959,4.959,0,0,0,.832,3.218,3.15,3.15,0,0,0,4.545.02,5.473,5.473,0,0,0,.807-3.44,4.571,4.571,0,0,0-.842-3.052A2.881,2.881,0,0,0,84.02,295a2.777,2.777,0,0,0-2.22.979,4.975,4.975,0,0,0-.837,3.239" transform="translate(-68.753 -262.385)"/><path class="d" d="M266.967,294.062h4.268l5.569,8.183v-8.183h4.308v14.791H276.8l-5.539-8.121v8.121h-4.3Z" transform="translate(-240.271 -264.655)"/><rect class="e" width="46.037" height="1.718" transform="translate(2.135 24.213)"/></g></svg>