<svg xmlns="http://www.w3.org/2000/svg" xmlns:xlink="http://www.w3.org/1999/xlink" width="50" height="50" viewBox="0 0 50 50"><defs><style>.a{fill:none;}.b{clip-path:url(#a);}.c{fill:#eaeade;}.d{fill:#ff5a5a;}.e{fill:#fff;}</style><clipPath id="a"><rect class="a" width="50" height="50"/></clipPath></defs><g class="b"><path class="c" d="M18.331,55.546h7.6a5.2,5.2,0,0,1,3.717,1.18,4.426,4.426,0,0,1,1.236,3.359,4.561,4.561,0,0,1-1.347,3.5,5.835,5.835,0,0,1-4.111,1.261h-2.5v5.487h-4.59Zm4.59,6.3h1.12a2.88,2.88,0,0,0,1.856-.459,1.479,1.479,0,0,0,.535-1.175,1.642,1.642,0,0,0-.464-1.18,2.406,2.406,0,0,0-1.745-.484h-1.3Z" transform="translate(-16.498 -49.991)"/><path class="c" d="M165.593,55.547h4.777L173.7,66.189l3.286-10.642h4.638l-5.491,14.788h-4.953Z" transform="translate(-149.034 -49.992)"/><path class="c" d="M353,55.546h7.6a5.2,5.2,0,0,1,3.717,1.18,4.426,4.426,0,0,1,1.236,3.359,4.561,4.561,0,0,1-1.347,3.5,5.835,5.835,0,0,1-4.111,1.261h-2.5v5.487H353Zm4.59,6.3h1.12a2.88,2.88,0,0,0,1.856-.459,1.479,1.479,0,0,0,.535-1.175,1.642,1.642,0,0,0-.464-1.18,2.406,2.406,0,0,0-1.745-.484h-1.3Z" transform="translate(-317.702 -49.991)"/><path class="d" d="M18.483,299.187a7.622,7.622,0,0,1,2.017-5.639,7.594,7.594,0,0,1,5.619-2.017,7.731,7.731,0,0,1,5.689,1.982,7.474,7.474,0,0,1,2,5.553,9.1,9.1,0,0,1-.873,4.252,6.221,6.221,0,0,1-2.522,2.582,8.325,8.325,0,0,1-4.111.923,9.457,9.457,0,0,1-4.141-.8A6.232,6.232,0,0,1,19.5,303.5a8.371,8.371,0,0,1-1.019-4.317m4.569.02a4.957,4.957,0,0,0,.832,3.218,2.817,2.817,0,0,0,2.264.978,2.816,2.816,0,0,0,2.28-.958,5.472,5.472,0,0,0,.807-3.44,4.57,4.57,0,0,0-.842-3.051,2.88,2.88,0,0,0-2.285-.963,2.776,2.776,0,0,0-2.219.978,4.974,4.974,0,0,0-.837,3.238" transform="translate(-16.635 -262.378)"/><path class="d" d="M208.918,294.052h11.3v3.177h-6.708v2.582h5.73V302.8h-5.73v6.042h-4.59Z" transform="translate(-188.026 -264.647)"/><path class="d" d="M359.105,294.052h11.3v3.177h-6.708v2.582h5.73V302.8h-5.73v6.042h-4.59Z" transform="translate(-323.195 -264.647)"/><rect class="e" width="46.028" height="1.717" transform="translate(2.139 24.214)"/></g></svg>