<svg xmlns="http://www.w3.org/2000/svg" width="66" height="66" viewBox="0 0 66 66"><defs><style>.a{fill:none;}.b{fill:#eaeade;font-size:11px;font-family:Arial-BoldMT, Arial;font-weight:700;letter-spacing:0.06em;}.c{fill:#e6e6db;}</style></defs><g transform="translate(-2 -2)"><rect class="a" width="66" height="66" rx="5" transform="translate(2 2)"/><text class="b" transform="translate(35 52)"><tspan x="-23.706" y="0">Relacio-</tspan><tspan x="-28.287" y="12">namentos</tspan></text><g transform="translate(15 7)"><path class="c" d="M184.347,172.452a6.988,6.988,0,0,0-11.928-4.941,1.1,1.1,0,0,1-1.556,0,6.988,6.988,0,0,0-9.883,9.881l10.659,10.661L182.3,177.392a6.934,6.934,0,0,0,2.049-4.94Z" transform="translate(-153.833 -157.746)"/><path class="c" d="M229.578,87.781a8.9,8.9,0,0,0-15.2-6.3,1.1,1.1,0,0,1-1.556,0,8.876,8.876,0,0,0-14.427,2.7,9.169,9.169,0,0,1,9.7,1.082A9.188,9.188,0,0,1,220.309,98.95l-7.6,7.6.894.894,13.369-13.371a8.842,8.842,0,0,0,2.609-6.3Z" transform="translate(-190.286 -77.748)"/><path class="c" d="M143.117,388.3a3.012,3.012,0,0,0-3.541-.527,3.008,3.008,0,0,0-3.541,4.782l2.831,2.832a1.006,1.006,0,0,0,1.422,0l2.831-2.832a3.015,3.015,0,0,0,0-4.254Z" transform="translate(-131.858 -362.81)"/><path class="c" d="M96.24,70.62l2.2-2.2A2.561,2.561,0,0,0,95.529,64.3a2.561,2.561,0,0,0-2.911,4.124l2.2,2.2a1.006,1.006,0,0,0,1.422,0Z" transform="translate(-91.868 -64.049)"/><path class="c" d="M500.1,368.462a3.429,3.429,0,1,0-5.824,3.621l2.2,2.2a1.006,1.006,0,0,0,1.422,0l2.2-2.2a2.562,2.562,0,0,0,0-3.621Z" transform="translate(-462.959 -344.601)"/></g></g></svg>