<svg xmlns="http://www.w3.org/2000/svg" xmlns:xlink="http://www.w3.org/1999/xlink" width="80" height="94" viewBox="0 0 80 94"><defs><style>.a{font-size:15px;font-family:ArialMT, Arial;letter-spacing:0.06em;}.b{clip-path:url(#a);}</style><clipPath id="a"><rect width="75" height="75"/></clipPath></defs><text class="a" transform="translate(40 91)"><tspan x="-39.877" y="0">Reputação</tspan></text><g transform="translate(2)"><g class="b"><path d="M233.484,294.793l2.211-2.211a5.621,5.621,0,0,1-3.37-.981l1.16,3.192" transform="translate(-197.475 -247.861)"/><path d="M85.711,46.77,46.77,85.711a6.337,6.337,0,0,0,0,8.961l9.939,9.939a6.337,6.337,0,0,0,8.961,0L104.611,65.67a6.337,6.337,0,0,0,0-8.961L94.672,46.77a6.337,6.337,0,0,0-8.961,0m1.466,2.281a2.189,2.189,0,1,1,0,3.1,2.189,2.189,0,0,1,0-3.1M53.247,98.135a2.189,2.189,0,1,1,3.1,0,2.189,2.189,0,0,1-3.1,0m10.672,4.481a2.189,2.189,0,1,1,0-3.1,2.189,2.189,0,0,1,0,3.1M51.862,90.558a2.189,2.189,0,1,1,0-3.1,2.189,2.189,0,0,1,0,3.1M77.929,64.705a.981.981,0,0,1-.015.24c-.158.92-.293,1.845-.485,2.758s-.14.869-1.064,1.03a7.732,7.732,0,0,0-2.81.946,6.46,6.46,0,0,0-2.689,7.989,6.567,6.567,0,0,0,3.806,3.77,4.105,4.105,0,0,0,3.722-.356,7.421,7.421,0,0,0,3.19-3.6,3.5,3.5,0,0,0-1.568-4.605,4.507,4.507,0,0,0-4.764.023A4.3,4.3,0,0,0,73.6,74.685a2.562,2.562,0,0,0,2.036,3.633,2.612,2.612,0,0,0,2.51-1.684,1.291,1.291,0,0,0-.281-1.346.973.973,0,0,0-1.229-.116c-.159.094-.305.212-.467.3a.573.573,0,0,1-.76-.814,2.278,2.278,0,0,1,2.949-.481,2.47,2.47,0,0,1,.978,2.583,3.215,3.215,0,0,1-1.031,1.7,3.707,3.707,0,0,1-2.378,1.044,3.66,3.66,0,0,1-3.642-2.824,3.907,3.907,0,0,1,.8-3.381,5.761,5.761,0,0,1,7.607-1.4,4.631,4.631,0,0,1,2.382,3.669,5.453,5.453,0,0,1-.839,3.289,9.807,9.807,0,0,1-2.59,2.827,27.059,27.059,0,0,0-3.6,3.25c-.573.632-1.142,1.269-1.721,1.895a.576.576,0,0,1-.927-.042,1.041,1.041,0,0,1-.132-.343,22.042,22.042,0,0,0-1.5-4.455c-.485-1.033-1.03-2.04-1.579-3.042a7.29,7.29,0,0,1-.758-5.45,7.66,7.66,0,0,1,4.1-5.141,8.254,8.254,0,0,1,2.472-.762c.287-.046.286-.049.336-.339.135-.786.268-1.573.406-2.358a1.886,1.886,0,0,1,.1-.375.55.55,0,0,1,.594-.345.573.573,0,0,1,.513.527m24.4-.5a2.189,2.189,0,1,1,0-3.1,2.189,2.189,0,0,1,0,3.1m-4.481-7.576a2.189,2.189,0,1,1,0-3.1,2.189,2.189,0,0,1,0,3.1" transform="translate(-38.177 -38.177)"/></g></g></svg>