<svg xmlns="http://www.w3.org/2000/svg" xmlns:xlink="http://www.w3.org/1999/xlink" width="50" height="50" viewBox="0 0 50 50"><defs><style>.a{fill:#eaeade;}.b{clip-path:url(#a);}.c{fill:none;}</style><clipPath id="a"><rect class="a" width="31.844" height="45"/></clipPath></defs><g transform="translate(-225 -282)"><g transform="translate(234 285)"><g class="b"><path class="a" d="M.66,88.633H4.675c5.257,0,10.513-.016,15.77.006,3.381.014,6.761.079,10.141.126.823.011.818.021,1.007.834a7.833,7.833,0,0,1-2.233,7.745c-1.123,1.129-2.288,2.224-3.33,3.425a6.2,6.2,0,0,0-1.288,6.1,6.57,6.57,0,0,0,2.1,2.9c.653.609,1.329,1.193,1.989,1.795a8.834,8.834,0,0,1,2.957,6.347,15.535,15.535,0,0,1-.7,5.907.628.628,0,0,1-.714.5q-14.483-.017-28.965,0c-.392,0-.642-.1-.726-.483a23.859,23.859,0,0,1-.61-2.969,17.222,17.222,0,0,1,.321-5.173,8.791,8.791,0,0,1,2.784-4.421c.807-.778,1.621-1.549,2.452-2.3a5.64,5.64,0,0,0-.36-8.477A29.071,29.071,0,0,1,2.6,97.953,8.746,8.746,0,0,1,.415,89.538q.093-.409.2-.816a.233.233,0,0,1,.049-.089m1.986,2.455a7.67,7.67,0,0,0,.089.952,10.583,10.583,0,0,0,2.624,4.782C6.3,97.878,7.282,98.906,8.22,99.97a7.73,7.73,0,0,1-.016,9.994c-.989,1.111-2.046,2.162-3.092,3.222a8.367,8.367,0,0,0-2.584,7.684c.089.509.258.7.789.712,3.5.073,7,.244,10.506.256,3.976.013,7.953-.1,11.929-.172.981-.017,1.961-.071,2.941-.114.221-.01.436.015.483-.33a8.656,8.656,0,0,0-1.546-6.823,29.9,29.9,0,0,0-2.449-2.665,10.192,10.192,0,0,1-3.216-5.056,7.572,7.572,0,0,1,1.819-7.166c.644-.693,1.313-1.362,1.977-2.036A12.943,12.943,0,0,0,28.238,94.3a7.051,7.051,0,0,0,.848-3.212Z" transform="translate(0.001 -79.308)"/><path class="a" d="M32.642,8.2C22.158,8.18,11.8,8.456,1.365,7.955c0-2.047-.006-4.087.008-6.127a3.009,3.009,0,0,1,.168-.819C1.807.119,1.975,0,2.9,0H31.436c.787,0,.889.067,1.163.834a9.614,9.614,0,0,1,.331,3.691C32.88,5.763,32.74,7,32.642,8.2M3.945,5.958H30.31c0-.948,0-1.869,0-2.789,0-.5-.244-.665-.76-.663q-9.935.026-19.869.011c-1.647,0-3.294.013-4.941-.008a.749.749,0,0,0-.846.729,5.145,5.145,0,0,0-.026.891c.017.593.05,1.186.079,1.831" transform="translate(-1.22 -0.001)"/></g></g><rect class="c" width="50" height="50" transform="translate(225 282)"/></g></svg>