<svg xmlns="http://www.w3.org/2000/svg" width="66" height="66" viewBox="0 0 66 66"><defs><style>.a{fill:none;}.b,.c{fill:#eaeade;}.b{font-size:11px;font-family:Arial-BoldMT, Arial;font-weight:700;letter-spacing:0.06em;}</style></defs><g transform="translate(-2 -2)"><rect class="a" width="66" height="66" rx="5" transform="translate(2 2)"/><text class="b" transform="translate(35 60)"><tspan x="-24.517" y="0">Talentos</tspan></text><path class="c" d="M20,15a5,5,0,0,0-5-5,5,5,0,0,0-5,5,5,5,0,0,0,5,5,5,5,0,0,0,5-5Zm10-2.129v4.336a.752.752,0,0,1-.157.449.6.6,0,0,1-.391.254l-3.613.547a12.466,12.466,0,0,1-.762,1.778q.683.977,2.09,2.7a.755.755,0,0,1,.2.488.651.651,0,0,1-.176.449,19.89,19.89,0,0,1-1.933,2.109q-1.406,1.387-1.836,1.387a.953.953,0,0,1-.508-.176l-2.7-2.109a11.158,11.158,0,0,1-1.778.743,31.848,31.848,0,0,1-.567,3.633.657.657,0,0,1-.7.547H12.832a.738.738,0,0,1-.478-.166.576.576,0,0,1-.224-.419l-.547-3.594A12.092,12.092,0,0,1,9.825,25.1l-2.754,2.09a.7.7,0,0,1-.488.176.673.673,0,0,1-.488-.215,25.763,25.763,0,0,1-3.223-3.282.763.763,0,0,1-.137-.449.752.752,0,0,1,.157-.449q.293-.41,1-1.3t1.055-1.377a9.66,9.66,0,0,1-.8-1.933L.567,17.832a.615.615,0,0,1-.41-.244A.743.743,0,0,1,0,17.13V12.794a.752.752,0,0,1,.157-.449.59.59,0,0,1,.371-.254l3.633-.547a9.64,9.64,0,0,1,.762-1.8q-.782-1.113-2.09-2.7a.735.735,0,0,1-.2-.469.824.824,0,0,1,.176-.449,19.33,19.33,0,0,1,1.924-2.1q1.417-1.4,1.845-1.4a.83.83,0,0,1,.508.2l2.7,2.09a11.158,11.158,0,0,1,1.778-.743A31.848,31.848,0,0,1,12.129.547a.657.657,0,0,1,.7-.547h4.336a.738.738,0,0,1,.478.166.58.58,0,0,1,.225.42l.547,3.594a12.092,12.092,0,0,1,1.758.723l2.773-2.09a.634.634,0,0,1,.469-.176.755.755,0,0,1,.488.2,26.757,26.757,0,0,1,3.223,3.32.632.632,0,0,1,.137.43.752.752,0,0,1-.157.449q-.293.41-1,1.3T25.058,9.707a11.812,11.812,0,0,1,.8,1.914l3.574.547a.615.615,0,0,1,.41.244.744.744,0,0,1,.157.459Z" transform="translate(20 8.91)"/></g></svg>