<svg xmlns="http://www.w3.org/2000/svg" width="66" height="66" viewBox="0 0 66 66"><defs><style>.a{fill:none;}.b,.c{fill:#eaeade;}.b{font-size:11px;font-family:Arial-BoldMT, Arial;font-weight:700;letter-spacing:0.06em;}</style></defs><g transform="translate(-2 -2)"><rect class="a" width="66" height="66" rx="5" transform="translate(2 2)"/><text class="b" transform="translate(35 60)"><tspan x="-18.668" y="0">Testes</tspan></text><path class="c" d="M34.688,11.25H27.73a4.75,4.75,0,0,1-1,5.234L18.75,24.468v2.72A2.812,2.812,0,0,0,21.563,30H34.688A2.812,2.812,0,0,0,37.5,27.188V14.063A2.812,2.812,0,0,0,34.688,11.25ZM28.125,22.031a1.406,1.406,0,1,1,1.406-1.406A1.407,1.407,0,0,1,28.125,22.031ZM25.408,11.092,15.158.842a2.875,2.875,0,0,0-4.066,0L.842,11.092a2.875,2.875,0,0,0,0,4.066l10.25,10.25a2.875,2.875,0,0,0,4.066,0l10.25-10.25a2.876,2.876,0,0,0,0-4.066ZM5.625,14.531a1.406,1.406,0,1,1,1.406-1.406A1.407,1.407,0,0,1,5.625,14.531Zm7.5,7.5a1.406,1.406,0,1,1,1.406-1.406A1.407,1.407,0,0,1,13.125,22.031Zm0-7.5a1.406,1.406,0,1,1,1.406-1.406A1.407,1.407,0,0,1,13.125,14.531Zm0-7.5a1.406,1.406,0,1,1,1.406-1.406A1.407,1.407,0,0,1,13.125,7.031Zm7.5,7.5a1.406,1.406,0,1,1,1.406-1.406A1.407,1.407,0,0,1,20.625,14.531Z" transform="translate(16 7.79)"/></g></svg>